<svg xmlns="http://www.w3.org/2000/svg" width="263" height="67.84" viewBox="0 0 263 67.84">
  <title>LegolasvegasLogo</title>
  <g id="Layer_7" data-name="Layer 7">
    <g>
      <g>
        <path d="M21.06,51.7l-1.79,5.93H.91c.9-2.28,1.6-4.25,2.1-5.93Q7.14,38.07,8.88,31.46H16.8A105.85,105.85,0,0,0,10,51.79h2.15Q15.54,51.79,21.06,51.7Z" fill="#f5fffa" stroke="#000" stroke-miterlimit="10" stroke-width="1.23"/>
        <path d="M41.77,45.47A34.06,34.06,0,0,1,41.53,49H29.14A3.33,3.33,0,0,0,29,50.09a1.94,1.94,0,0,0,1,1.65,3.31,3.31,0,0,0,1.91.58,4.51,4.51,0,0,0,3.46-1.84h5.42a12.59,12.59,0,0,1-4.22,5.43A10.69,10.69,0,0,1,30,58.06a6.49,6.49,0,0,1-6.92-7,12.21,12.21,0,0,1,3.65-8.57,11.19,11.19,0,0,1,8.34-3.87Q41.77,38.66,41.77,45.47ZM36.93,46a2.32,2.32,0,0,0-2.62-2.38c-1.34,0-2.65.79-3.91,2.38Z" fill="#f5fffa" stroke="#000" stroke-miterlimit="10" stroke-width="1.23"/>
        <path d="M63.68,38.79q-2.24,6.33-3.91,11.71c-.4,1.3-1.19,3.74-2.36,7.3a22.32,22.32,0,0,1-2.94,6.13,7,7,0,0,1-5.74,3q-3.58,0-9-5.37a10.42,10.42,0,0,0,4.25.62q4.42,0,6.62-5.26a8.33,8.33,0,0,1-3.72.88,5.54,5.54,0,0,1-4.53-2A7.28,7.28,0,0,1,40.87,51a13,13,0,0,1,3-8.27q3.18-4,7.54-4a5.65,5.65,0,0,1,4.19,1.48l.26-1.35ZM52.45,45.72a2,2,0,0,0-2.22-2.25,3.67,3.67,0,0,0-2.78,1.33,4.22,4.22,0,0,0-1.21,2.91,2.08,2.08,0,0,0,2.34,2.36,3.46,3.46,0,0,0,2.79-1.37A4.5,4.5,0,0,0,52.45,45.72Z" fill="#f5fffa" stroke="#000" stroke-miterlimit="10" stroke-width="1.23"/>
        <path d="M79.22,45.3A13,13,0,0,1,76,54.17a10.86,10.86,0,0,1-8.49,3.89,6.76,6.76,0,0,1-5-1.9,7,7,0,0,1-1.86-5.08,12.17,12.17,0,0,1,3.66-8.55,11.2,11.2,0,0,1,8.32-3.87Q79.22,38.66,79.22,45.3Zm-4.92.42a2,2,0,0,0-2.22-2.25A3.67,3.67,0,0,0,69.3,44.8a4.22,4.22,0,0,0-1.21,2.91,2.08,2.08,0,0,0,2.34,2.36,3.46,3.46,0,0,0,2.79-1.37A4.5,4.5,0,0,0,74.3,45.72Z" fill="#f5fffa" stroke="#000" stroke-miterlimit="10" stroke-width="1.23"/>
        <path d="M92.36,31.46a108.46,108.46,0,0,0-8,26.17H76.47q3.28-8.51,8-26.17Z" fill="#f5fffa" stroke="#000" stroke-miterlimit="10" stroke-width="1.23"/>
        <path d="M110.39,38.81a133.74,133.74,0,0,0-5.74,18.82H97.46l.32-1.05a8.56,8.56,0,0,1-4.28,1.18,5.54,5.54,0,0,1-4.53-2A7.28,7.28,0,0,1,87.44,51a13,13,0,0,1,3-8.27q3.18-4,7.54-4a5.34,5.34,0,0,1,4.66,2l.58-1.89Zm-9.86,6.91a2,2,0,0,0-2.21-2.25,3.66,3.66,0,0,0-2.78,1.33,4.25,4.25,0,0,0-1.2,2.91,2.08,2.08,0,0,0,2.34,2.36,3.52,3.52,0,0,0,2.8-1.37A4.58,4.58,0,0,0,100.53,45.72Z" fill="#f5fffa" stroke="#000" stroke-miterlimit="10" stroke-width="1.23"/>
        <path d="M128.37,42.48a3.22,3.22,0,0,1-.81,2.18,2.63,2.63,0,0,1-2.07.94,5.24,5.24,0,0,1-2.53-.82,2.78,2.78,0,0,0,.81-1.61c0-.67-.48-1-1.44-1A1.66,1.66,0,0,0,120.44,44,3.48,3.48,0,0,0,122,46.44a21.06,21.06,0,0,1,2.79,2.64,7.39,7.39,0,0,1,1.53,4.7,6.22,6.22,0,0,1-3,5.23,10.28,10.28,0,0,1-6,1.89,12,12,0,0,1-6-1.51q-3.23-1.8-3.22-4.83a4.55,4.55,0,0,1,2.47-4.23A4.93,4.93,0,0,1,113,49.6a6.13,6.13,0,0,1,3.46,1.24,2.3,2.3,0,0,0-1.36,2.21c0,1.41.77,2.11,2.3,2.11,1.94,0,2.9-.79,2.9-2.36a3.13,3.13,0,0,0-1.67-2.52l-3.12-2.1a4.43,4.43,0,0,1-1.65-3.48q0-6.11,8.21-6.1Q128.38,38.6,128.37,42.48Z" fill="#f5fffa" stroke="#000" stroke-miterlimit="10" stroke-width="1.23"/>
        <path d="M150.59,30.3a116.05,116.05,0,0,0-13.65,27.33h-10a34,34,0,0,0,2.32-12.57c0-.59,0-1.28-.06-2.08a53,53,0,0,0-.65-6.47,23.88,23.88,0,0,0-2-6.14c-1.56-3.23-3.4-4.84-5.54-4.84s-3.58.45-4.21,1.33q3.14-6.27,8.92-6.27t8.2,7.74a41,41,0,0,1,1.64,12.43q0,3-.26,6.3a89.49,89.49,0,0,0,6.62-16.76Z" fill="#FFB100" stroke="#000" stroke-miterlimit="10" stroke-width="1.23"/>
        <path d="M161.67,45.47c0,.85-.08,2-.23,3.48H149a3.33,3.33,0,0,0-.17,1.14,1.93,1.93,0,0,0,1,1.65,3.34,3.34,0,0,0,1.92.58,4.52,4.52,0,0,0,3.46-1.84h5.41a12.5,12.5,0,0,1-4.21,5.43,10.72,10.72,0,0,1-6.49,2.15,6.81,6.81,0,0,1-5-1.89A6.89,6.89,0,0,1,143,51.1a12.18,12.18,0,0,1,3.66-8.57A11.17,11.17,0,0,1,155,38.66Q161.68,38.66,161.67,45.47Zm-4.83.49a2.33,2.33,0,0,0-2.62-2.38q-2,0-3.91,2.38Z" fill="#FFB100" stroke="#000" stroke-miterlimit="10" stroke-width="1.23"/>
        <path d="M183.59,38.79q-2.24,6.33-3.91,11.71c-.4,1.3-1.19,3.74-2.37,7.3a22,22,0,0,1-2.94,6.13,6.93,6.93,0,0,1-5.74,3q-3.58,0-9-5.37a10.48,10.48,0,0,0,4.26.62c2.95,0,5.15-1.75,6.62-5.26a8.39,8.39,0,0,1-3.72.88,5.53,5.53,0,0,1-4.53-2A7.28,7.28,0,0,1,160.77,51a13,13,0,0,1,3-8.27,9.37,9.37,0,0,1,7.54-4,5.67,5.67,0,0,1,4.19,1.48l.25-1.35Zm-11.24,6.93a2,2,0,0,0-2.21-2.25,3.64,3.64,0,0,0-2.78,1.33,4.23,4.23,0,0,0-1.22,2.91,2.08,2.08,0,0,0,2.34,2.36,3.49,3.49,0,0,0,2.8-1.37A4.54,4.54,0,0,0,172.35,45.72Z" fill="#FFB100" stroke="#000" stroke-miterlimit="10" stroke-width="1.23"/>
        <path d="M203.14,38.81a132.44,132.44,0,0,0-5.74,18.82h-7.2l.33-1.05a8.56,8.56,0,0,1-4.28,1.18,5.54,5.54,0,0,1-4.53-2A7.28,7.28,0,0,1,180.19,51a13,13,0,0,1,3-8.27q3.18-4,7.54-4a5.34,5.34,0,0,1,4.66,2l.58-1.89Zm-9.86,6.91a2,2,0,0,0-2.22-2.25,3.64,3.64,0,0,0-2.77,1.33,4.25,4.25,0,0,0-1.2,2.91,2.08,2.08,0,0,0,2.34,2.36,3.51,3.51,0,0,0,2.79-1.37A4.59,4.59,0,0,0,193.28,45.72Z" fill="#FFB100" stroke="#000" stroke-miterlimit="10" stroke-width="1.23"/>
        <path d="M221.12,42.48a3.18,3.18,0,0,1-.82,2.18,2.59,2.59,0,0,1-2.06.94,5.21,5.21,0,0,1-2.53-.82,2.78,2.78,0,0,0,.81-1.61c0-.67-.48-1-1.44-1A1.66,1.66,0,0,0,213.19,44a3.45,3.45,0,0,0,1.51,2.41,21.06,21.06,0,0,1,2.79,2.64,7.38,7.38,0,0,1,1.52,4.7A6.23,6.23,0,0,1,216,59a10.3,10.3,0,0,1-6,1.89,12,12,0,0,1-5.95-1.51q-3.23-1.8-3.22-4.83a4.55,4.55,0,0,1,2.47-4.23,4.93,4.93,0,0,1,2.43-.73,6.15,6.15,0,0,1,3.46,1.24,2.28,2.28,0,0,0-1.36,2.21c0,1.41.77,2.11,2.3,2.11,1.94,0,2.9-.79,2.9-2.36a3.16,3.16,0,0,0-1.67-2.52l-3.12-2.1a4.43,4.43,0,0,1-1.65-3.48q0-6.11,8.2-6.1Q221.11,38.6,221.12,42.48Z" fill="#FFB100" stroke="#000" stroke-miterlimit="10" stroke-width="1.23"/>
      </g>
      <g>
        <circle cx="246.41" cy="51.25" r="16.34" fill="#FFB100" stroke="#000" stroke-miterlimit="10" stroke-width="0.5"/>
        <circle cx="246.41" cy="51.25" r="13.54" fill="#f5fffa" stroke="#000" stroke-miterlimit="10" stroke-width="0.5"/>
        <circle cx="246.41" cy="51.25" r="10.38" fill="#FFB100" stroke="#000" stroke-miterlimit="10" stroke-width="0.5"/>
        <circle cx="246.41" cy="51.25" r="7.15" fill="#f5fffa" stroke="#000" stroke-miterlimit="10" stroke-width="0.5"/>
        <circle cx="246.41" cy="51.25" r="3.49" fill="#FFB100" stroke="#000" stroke-miterlimit="10" stroke-width="0.5"/>
        <g>
          <polygon points="227.88 39.49 225.45 37.71 224.09 34.64 227.88 34.64 227.88 39.49" fill="#FFB100" stroke="#000" stroke-miterlimit="10" stroke-width="0.5"/>
          <polygon points="227.88 39.67 225.24 38.21 221.89 38.26 223.47 41.7 227.88 39.67" fill="#FFB100" stroke="#000" stroke-miterlimit="10" stroke-width="0.5"/>
          <line x1="226.55" y1="38.37" x2="226.27" y2="35.82" fill="#f5fffa" stroke="#000" stroke-miterlimit="10" stroke-width="0.5"/>
          <line x1="226.32" y1="38.76" x2="223.75" y2="39.65" fill="#f5fffa" stroke="#000" stroke-miterlimit="10" stroke-width="0.5"/>
        </g>
        <g>
          <polygon points="183.63 16.97 181.03 15.45 179.35 12.55 183.11 12.15 183.63 16.97" fill="#f5fffa" stroke="#000" stroke-miterlimit="10" stroke-width="0.5"/>
          <polygon points="183.65 17.15 180.87 15.98 177.54 16.38 179.48 19.63 183.65 17.15" fill="#f5fffa" stroke="#000" stroke-miterlimit="10" stroke-width="0.5"/>
          <line x1="182.19" y1="15.99" x2="181.65" y2="13.48" fill="#FFB100" stroke="#000" stroke-miterlimit="10" stroke-width="0.5"/>
          <line x1="182" y1="16.4" x2="179.55" y2="17.56" fill="#FFB100" stroke="#000" stroke-miterlimit="10" stroke-width="0.5"/>
        </g>
        <g>
          <polygon points="123.4 4.64 120.42 4.17 117.8 2.09 121.16 0.34 123.4 4.64" fill="#FFB100" stroke="#000" stroke-miterlimit="10" stroke-width="0.5"/>
          <polygon points="123.48 4.8 120.47 4.72 117.51 6.31 120.5 8.63 123.48 4.8" fill="#FFB100" stroke="#000" stroke-miterlimit="10" stroke-width="0.5"/>
          <line x1="121.7" y1="4.26" x2="120.28" y2="2.12" fill="#f5fffa" stroke="#000" stroke-miterlimit="10" stroke-width="0.5"/>
          <line x1="121.67" y1="4.71" x2="119.81" y2="6.68" fill="#f5fffa" stroke="#000" stroke-miterlimit="10" stroke-width="0.5"/>
        </g>
        <g>
          <polygon points="72.84 9.24 69.86 9.72 66.73 8.55 69.38 5.84 72.84 9.24" fill="#f5fffa" stroke="#000" stroke-miterlimit="10" stroke-width="0.5"/>
          <polygon points="72.97 9.37 70.08 10.23 67.76 12.65 71.32 13.93 72.97 9.37" fill="#f5fffa" stroke="#000" stroke-miterlimit="10" stroke-width="0.5"/>
          <line x1="71.11" y1="9.4" x2="69.09" y2="7.81" fill="#FFB100" stroke="#000" stroke-miterlimit="10" stroke-width="0.5"/>
          <line x1="71.22" y1="9.84" x2="70.06" y2="12.29" fill="#FFB100" stroke="#000" stroke-miterlimit="10" stroke-width="0.5"/>
        </g>
        <g>
          <polygon points="27.16 26.19 24.59 27.76 22.98 30.7 26.75 31.02 27.16 26.19" fill="#FFB100" stroke="#000" stroke-miterlimit="10" stroke-width="0.5"/>
          <g>
            <polygon points="27.01 26.1 24.26 27.33 20.92 27 22.79 23.71 27.01 26.1" fill="#FFB100" stroke="#000" stroke-miterlimit="10" stroke-width="0.5"/>
            <line x1="25.37" y1="26.7" x2="23.02" y2="25.68" fill="#f5fffa" stroke="#000" stroke-miterlimit="10" stroke-width="0.5"/>
            <line x1="25.6" y1="27.09" x2="25.11" y2="29.76" fill="#f5fffa" stroke="#000" stroke-miterlimit="10" stroke-width="0.5"/>
          </g>
        </g>
        <path d="M16.44,31.46l14.44-7.1a192.69,192.69,0,0,1,186.19,8.82L241.56,48" fill="none" stroke="#000" stroke-miterlimit="10"/>
        <polygon points="241.57 44.82 238.69 49.19 246.1 50.93 241.57 44.82" fill="#f5fffa" stroke="#000" stroke-miterlimit="10" stroke-width="0.5"/>
      </g>
    </g>
  </g>
</svg>
