<svg xmlns="http://www.w3.org/2000/svg" width="117" height="117" viewBox="0 0 117 117">
  <title>qMark</title>
  <g id="Layer_2" data-name="Layer 2">
    <g id="qMark">
      <g>
        <circle cx="58.5" cy="58.5" r="56.5" fill="#fff"/>
        <path d="M58.5,4A54.5,54.5,0,1,1,4,58.5,54.56,54.56,0,0,1,58.5,4m0-4A58.5,58.5,0,1,0,117,58.5,58.5,58.5,0,0,0,58.5,0Z"/>
      </g>
      <path d="M54.81,82q-5.52-4.25-5.52-10.09a15.26,15.26,0,0,1,2-7.5Q53.19,60.87,60,53.27a66.62,66.62,0,0,0,7.94-10.36,17.16,17.16,0,0,0,2.56-8.68,14.26,14.26,0,0,0-4.91-11.07,17.3,17.3,0,0,0-12-4.41A23.75,23.75,0,0,0,45,20.57a16.38,16.38,0,0,0-3.37,5.05l-2.55,5.11-.81.54-3-.34L34.9,30l5.18-15.61A30.82,30.82,0,0,1,57.23,9.27a32.4,32.4,0,0,1,13.09,2.59,21,21,0,0,1,9.35,7.7,20.31,20.31,0,0,1,3.4,11.51A22.58,22.58,0,0,1,81.69,39a29,29,0,0,1-4,7.23Q75,49.77,67.46,56.5q-4.78,4.24-7.3,6.93a22.89,22.89,0,0,0-3.8,5.21,10.4,10.4,0,0,0-1.28,4.61,9.42,9.42,0,0,0,2.69,6.46l-.13.94L55.89,82Zm1.28,8.75a8,8,0,0,1,8.07,8.07,7.7,7.7,0,0,1-2.35,5.65,8.08,8.08,0,0,1-11.41,0,8,8,0,0,1,0-11.4A7.89,7.89,0,0,1,56.09,90.75Z"/>
    </g>
  </g>
</svg>
