<svg id="Layer_1" data-name="Layer 1" xmlns="http://www.w3.org/2000/svg" xmlns:xlink="http://www.w3.org/1999/xlink" width="759.5" height="859" viewBox="0 0 759.5 859">
  <defs>
    <clipPath id="clip-path">
      <rect x="204.59" y="59.57" width="295.83" height="79.88" fill="none"/>
    </clipPath>
  </defs>
  <title>slotmachine</title>
  <g>
    <path d="M46.5,173.31V839.69A15.3,15.3,0,0,0,61.81,855H614.19a15.3,15.3,0,0,0,15.31-15.31V173.31A15.3,15.3,0,0,0,614.19,158H61.81A15.3,15.3,0,0,0,46.5,173.31ZM209.27,599.08h-107A15.32,15.32,0,0,1,87,583.77V277a15.31,15.31,0,0,1,15.31-15.31h107A15.31,15.31,0,0,1,224.58,277V583.77A15.32,15.32,0,0,1,209.27,599.08Zm182.23,0h-107a15.31,15.31,0,0,1-15.31-15.31V277a15.3,15.3,0,0,1,15.31-15.31h107A15.3,15.3,0,0,1,406.81,277V583.77A15.31,15.31,0,0,1,391.5,599.08Zm178.44,0h-107a15.32,15.32,0,0,1-15.31-15.31V277a15.31,15.31,0,0,1,15.31-15.31h107A15.31,15.31,0,0,1,585.25,277V583.77A15.32,15.32,0,0,1,569.94,599.08Z" fill="#1a8e5f"/>
    <g opacity="0.45">
      <rect x="40.07" y="637" width="595.87" height="218" fill="#160b05"/>
    </g>
    <rect y="166.5" width="670" height="40" rx="12" fill="#b38bcc"/>
    <rect x="308.5" y="503" width="664" height="40" transform="translate(1163.5 -117.5) rotate(90)" fill="#b38bcc"/>
    <rect x="-294.5" y="506" width="658" height="40" transform="translate(560.5 491.5) rotate(90)" fill="#b38bcc"/>
    <path d="M659.5,170c0-93.89-144.61-170-323-170s-323,76.11-323,170" fill="#b38bcc"/>
    <path d="M630.5,169c0-81.19-130.29-147-291-147s-291,65.81-291,147" fill="#8a6f9e"/>
    <path d="M616.5,160.49C616.5,88.4,492.48,30,339.5,30S62.5,88.4,62.5,160.49" fill="#156d47"/>
    <rect x="54.5" y="209" width="566" height="11" fill="#156d47"/>
    <rect x="43.5" y="198" width="588" height="11" rx="4.61" fill="#8a6f9e"/>
    <rect x="296" y="522.5" width="660" height="11" rx="4.49" transform="translate(1154 -98) rotate(90)" fill="#8a6f9e"/>
    <rect x="-281.5" y="523" width="661" height="11" rx="4.49" transform="translate(577.5 479.5) rotate(90)" fill="#8a6f9e"/>
    <rect x="401" y="417.5" width="428" height="11" transform="translate(1038 -192) rotate(90)" fill="#156d47"/>
    <rect x="-154" y="417.5" width="428" height="11" transform="translate(483 363) rotate(90)" fill="#156d47"/>
    <path d="M607.5,154.81c0-63.47-120.44-114.92-269-114.92s-269,51.45-269,114.92" fill="#1a8e5f"/>
    <rect x="660.5" y="417" width="22" height="152" fill="#000201"/>
    <rect x="710.5" y="329" width="27" height="176" fill="#000201"/>
    <rect x="682" y="476.5" width="27" height="30" transform="translate(1187 -204) rotate(90)" fill="#000201"/>
    <circle cx="722.5" cy="328" r="37" fill="#c61c2c"/>
    <g>
      <g clip-path="url(#clip-path)">
        <path d="M500.13,117.2a18.38,18.38,0,1,1-18.37-18.38,18.36,18.36,0,0,1,18.37,18.38" fill="#b38bcc"/>
        <path d="M500.13,117.2a18.38,18.38,0,1,1-18.37-18.38A18.36,18.36,0,0,1,500.13,117.2Z" fill="none" stroke="#763d99" stroke-miterlimit="10" stroke-width="0.5"/>
        <path d="M497,117.2A15.23,15.23,0,1,1,481.76,102,15.23,15.23,0,0,1,497,117.2" fill="#fff"/>
        <circle cx="481.76" cy="117.2" r="15.22" fill="none" stroke="#763d99" stroke-miterlimit="10" stroke-width="0.5"/>
        <path d="M493.43,117.2a11.68,11.68,0,1,1-11.67-11.68,11.66,11.66,0,0,1,11.67,11.68" fill="#b38bcc"/>
        <circle cx="481.76" cy="117.2" r="11.68" fill="none" stroke="#763d99" stroke-miterlimit="10" stroke-width="0.5"/>
        <path d="M489.8,117.2a8,8,0,1,1-8-8,8,8,0,0,1,8,8" fill="#fff"/>
        <circle cx="481.76" cy="117.2" r="8.04" fill="none" stroke="#763d99" stroke-miterlimit="10" stroke-width="0.5"/>
        <path d="M485.68,117.2a3.93,3.93,0,1,1-3.92-3.93,3.93,3.93,0,0,1,3.92,3.93" fill="#b38bcc"/>
        <path d="M485.68,117.2a3.93,3.93,0,1,1-3.92-3.93A3.93,3.93,0,0,1,485.68,117.2Z" fill="none" stroke="#763d99" stroke-miterlimit="10" stroke-width="0.5"/>
        <polygon points="460.91 103.98 458.18 101.97 456.65 98.53 460.91 98.53 460.91 103.98" fill="#b38bcc"/>
        <polygon points="460.91 103.98 458.18 101.97 456.65 98.53 460.91 98.53 460.91 103.98" fill="none" stroke="#763d99" stroke-miterlimit="10" stroke-width="0.5"/>
        <polygon points="460.91 104.18 457.94 102.54 454.18 102.59 455.95 106.46 460.91 104.18" fill="#b38bcc"/>
        <polygon points="460.91 104.18 457.94 102.54 454.18 102.59 455.95 106.46 460.91 104.18" fill="none" stroke="#763d99" stroke-miterlimit="10" stroke-width="0.5"/>
        <line x1="459.41" y1="102.72" x2="459.11" y2="99.84" fill="#b38bcc"/>
        <line x1="459.41" y1="102.72" x2="459.11" y2="99.84" fill="none" stroke="#763d99" stroke-miterlimit="10" stroke-width="0.5"/>
        <line x1="459.16" y1="103.15" x2="456.27" y2="104.15" fill="#b38bcc"/>
        <line x1="459.16" y1="103.15" x2="456.27" y2="104.15" fill="none" stroke="#763d99" stroke-miterlimit="10" stroke-width="0.5"/>
        <polygon points="411.15 78.65 408.23 76.94 406.34 73.68 410.57 73.22 411.15 78.65" fill="#b38bcc"/>
        <polygon points="411.15 78.65 408.23 76.94 406.34 73.68 410.57 73.22 411.15 78.65" fill="none" stroke="#763d99" stroke-miterlimit="10" stroke-width="0.5"/>
        <polygon points="411.17 78.85 408.05 77.53 404.31 77.98 406.49 81.64 411.17 78.85" fill="#b38bcc"/>
        <polygon points="411.17 78.85 408.05 77.53 404.31 77.98 406.49 81.64 411.17 78.85" fill="none" stroke="#763d99" stroke-miterlimit="10" stroke-width="0.5"/>
        <line x1="409.53" y1="77.55" x2="408.92" y2="74.73" fill="#b38bcc"/>
        <line x1="409.53" y1="77.55" x2="408.92" y2="74.73" fill="none" stroke="#763d99" stroke-miterlimit="10" stroke-width="0.5"/>
        <line x1="409.32" y1="78.01" x2="406.56" y2="79.31" fill="#b38bcc"/>
        <line x1="409.32" y1="78.01" x2="406.56" y2="79.31" fill="none" stroke="#763d99" stroke-miterlimit="10" stroke-width="0.5"/>
        <polygon points="343.42 64.78 340.07 64.26 337.12 61.91 340.9 59.94 343.42 64.78" fill="#b38bcc"/>
        <polygon points="343.42 64.78 340.07 64.26 337.12 61.91 340.9 59.94 343.42 64.78" fill="none" stroke="#763d99" stroke-miterlimit="10" stroke-width="0.5"/>
        <polygon points="343.51 64.96 340.12 64.87 336.8 66.66 340.16 69.27 343.51 64.96" fill="#b38bcc"/>
        <polygon points="343.51 64.96 340.12 64.87 336.8 66.66 340.16 69.27 343.51 64.96" fill="none" stroke="#763d99" stroke-miterlimit="10" stroke-width="0.5"/>
        <line x1="341.51" y1="64.35" x2="339.91" y2="61.95" fill="#b38bcc"/>
        <line x1="341.51" y1="64.35" x2="339.91" y2="61.95" fill="none" stroke="#763d99" stroke-miterlimit="10" stroke-width="0.5"/>
        <line x1="341.48" y1="64.86" x2="339.38" y2="67.08" fill="#b38bcc"/>
        <line x1="341.48" y1="64.86" x2="339.38" y2="67.08" fill="none" stroke="#763d99" stroke-miterlimit="10" stroke-width="0.5"/>
        <polygon points="286.56 69.96 283.21 70.5 279.68 69.18 282.67 66.14 286.56 69.96" fill="#b38bcc"/>
        <polygon points="286.56 69.96 283.21 70.5 279.68 69.18 282.67 66.14 286.56 69.96" fill="none" stroke="#763d99" stroke-miterlimit="10" stroke-width="0.5"/>
        <polygon points="286.7 70.1 283.45 71.07 280.84 73.79 284.85 75.23 286.7 70.1" fill="#b38bcc"/>
        <polygon points="286.7 70.1 283.45 71.07 280.84 73.79 284.85 75.23 286.7 70.1" fill="none" stroke="#763d99" stroke-miterlimit="10" stroke-width="0.5"/>
        <line x1="284.61" y1="70.14" x2="282.35" y2="68.35" fill="#b38bcc"/>
        <line x1="284.61" y1="70.14" x2="282.35" y2="68.35" fill="none" stroke="#763d99" stroke-miterlimit="10" stroke-width="0.5"/>
        <line x1="284.74" y1="70.63" x2="283.43" y2="73.39" fill="#b38bcc"/>
        <line x1="284.74" y1="70.63" x2="283.43" y2="73.39" fill="none" stroke="#763d99" stroke-miterlimit="10" stroke-width="0.5"/>
        <polygon points="235.19 89.01 232.3 90.79 230.49 94.09 234.73 94.45 235.19 89.01" fill="#b38bcc"/>
        <polygon points="235.19 89.01 232.3 90.79 230.49 94.09 234.73 94.45 235.19 89.01" fill="none" stroke="#763d99" stroke-miterlimit="10" stroke-width="0.5"/>
        <polygon points="235.02 88.92 231.93 90.3 228.17 89.93 230.27 86.23 235.02 88.92" fill="#b38bcc"/>
        <polygon points="235.02 88.92 231.93 90.3 228.17 89.93 230.27 86.23 235.02 88.92" fill="none" stroke="#763d99" stroke-miterlimit="10" stroke-width="0.5"/>
        <line x1="233.18" y1="89.59" x2="230.53" y2="88.44" fill="#b38bcc"/>
        <line x1="233.18" y1="89.59" x2="230.53" y2="88.44" fill="none" stroke="#763d99" stroke-miterlimit="10" stroke-width="0.5"/>
        <line x1="233.43" y1="90.04" x2="232.88" y2="93.03" fill="#b38bcc"/>
        <line x1="233.43" y1="90.04" x2="232.88" y2="93.03" fill="none" stroke="#763d99" stroke-miterlimit="10" stroke-width="0.5"/>
      </g>
      <text transform="translate(207.84 125.97)" font-size="49.48" fill="#b38bcc" font-family="KoolBeans, Kool Beans">LegolasVegas</text>
      <g clip-path="url(#clip-path)">
        <path d="M218.27,117.8h-2.41A119,119,0,0,1,223.54,95h-8.91q-2,7.41-6.6,22.76-.84,2.82-2.37,6.67h20.66l2-6.67Q222.12,117.8,218.27,117.8Z" fill="none" stroke="#763d99" stroke-miterlimit="10"/>
        <path d="M238.84,111.26c1.41-1.79,2.88-2.69,4.39-2.69a2.62,2.62,0,0,1,3,2.69ZM244.1,103a12.58,12.58,0,0,0-9.37,4.35,13.73,13.73,0,0,0-4.11,9.64,7.71,7.71,0,0,0,2.12,5.7,7.59,7.59,0,0,0,5.66,2.13,12.06,12.06,0,0,0,7.3-2.42,14,14,0,0,0,4.73-6.11h-6.09a5.09,5.09,0,0,1-3.89,2.08,3.83,3.83,0,0,1-2.15-.65,2.18,2.18,0,0,1-1.08-1.86,3.93,3.93,0,0,1,.19-1.29h13.94a38.29,38.29,0,0,0,.27-3.91Q251.62,103,244.1,103Z" fill="none" stroke="#763d99" stroke-miterlimit="10"/>
        <path d="M262.42,114.33a3.89,3.89,0,0,1-3.14,1.54,2.34,2.34,0,0,1-2.64-2.65A4.74,4.74,0,0,1,258,110a4.13,4.13,0,0,1,3.13-1.5,2.21,2.21,0,0,1,2.48,2.53A5.08,5.08,0,0,1,262.42,114.33Zm5-11.14-.29,1.52a6.37,6.37,0,0,0-4.71-1.67q-4.91,0-8.48,4.52a14.65,14.65,0,0,0-3.34,9.3,8.18,8.18,0,0,0,1.72,5.41,6.21,6.21,0,0,0,5.1,2.25,9.46,9.46,0,0,0,4.18-1q-2.48,5.93-7.45,5.92a11.55,11.55,0,0,1-4.78-.7q6,6,10.07,6a7.78,7.78,0,0,0,6.46-3.34,24.77,24.77,0,0,0,3.31-6.88q2-6,2.65-8.22,1.89-6,4.4-13.16Z" fill="none" stroke="#763d99" stroke-miterlimit="10"/>
        <path d="M287,114.33a3.89,3.89,0,0,1-3.14,1.54,2.34,2.34,0,0,1-2.64-2.65,4.74,4.74,0,0,1,1.37-3.27,4.13,4.13,0,0,1,3.13-1.5A2.22,2.22,0,0,1,288.2,111,5.09,5.09,0,0,1,287,114.33ZM286.22,103a12.61,12.61,0,0,0-9.37,4.35,13.73,13.73,0,0,0-4.12,9.62,7.77,7.77,0,0,0,2.11,5.71,7.57,7.57,0,0,0,5.67,2.14,12.22,12.22,0,0,0,9.55-4.37,14.67,14.67,0,0,0,3.67-10Q293.73,103,286.22,103Z" fill="none" stroke="#763d99" stroke-miterlimit="10"/>
        <path d="M299.6,95q-5.27,19.86-9,29.43h8.86a121.5,121.5,0,0,1,9-29.43Z" fill="none" stroke="#763d99" stroke-miterlimit="10"/>
        <path d="M316.51,114.33a3.92,3.92,0,0,1-3.14,1.54,2.33,2.33,0,0,1-2.63-2.65,4.76,4.76,0,0,1,1.35-3.27,4.09,4.09,0,0,1,3.12-1.5A2.22,2.22,0,0,1,317.7,111,5.13,5.13,0,0,1,316.51,114.33Zm4.18-11.12-.65,2.13q-1.64-2.3-5.24-2.3-4.91,0-8.48,4.52a14.65,14.65,0,0,0-3.34,9.3,8.24,8.24,0,0,0,1.72,5.41,6.21,6.21,0,0,0,5.1,2.25,9.57,9.57,0,0,0,4.8-1.33l-.36,1.18h8.1a147.19,147.19,0,0,1,6.45-21.16Z" fill="none" stroke="#763d99" stroke-miterlimit="10"/>
        <path d="M341.91,103q-9.24,0-9.23,6.86a5,5,0,0,0,1.86,3.91l3.5,2.37a3.53,3.53,0,0,1,1.88,2.83c0,1.77-1.08,2.66-3.26,2.66q-2.58,0-2.58-2.37a2.58,2.58,0,0,1,1.52-2.49,6.92,6.92,0,0,0-3.89-1.4,5.57,5.57,0,0,0-2.73.82,5.13,5.13,0,0,0-2.78,4.76q0,3.4,3.63,5.44a13.52,13.52,0,0,0,6.69,1.69,11.56,11.56,0,0,0,6.72-2.13,7,7,0,0,0,3.4-5.87,8.37,8.37,0,0,0-1.71-5.29,24.06,24.06,0,0,0-3.14-3,3.91,3.91,0,0,1-1.7-2.71,1.87,1.87,0,0,1,2.13-2.1c1.08,0,1.62.38,1.62,1.13a3.16,3.16,0,0,1-.92,1.82,6,6,0,0,0,2.85.92,3,3,0,0,0,2.32-1.06,3.61,3.61,0,0,0,.92-2.45Q349,103,341.91,103Z" fill="none" stroke="#763d99" stroke-miterlimit="10"/>
        <path d="M364.22,93.64a100.7,100.7,0,0,1-7.45,18.85c.19-2.52.28-4.87.28-7.08a46.41,46.41,0,0,0-1.83-14q-2.78-8.7-9.23-8.7t-10,7.06q1.07-1.5,4.74-1.5t6.23,5.43a27.23,27.23,0,0,1,2.25,6.92,59.15,59.15,0,0,1,.72,7.27c.05.9.08,1.68.08,2.34a38.35,38.35,0,0,1-2.61,14.14h11.28A130.7,130.7,0,0,1,374,93.64Z" fill="none" stroke="#763d99" stroke-miterlimit="10"/>
        <path d="M373.68,111.26c1.42-1.79,2.88-2.69,4.4-2.69a2.62,2.62,0,0,1,2.94,2.69Zm5.26-8.22a12.58,12.58,0,0,0-9.37,4.35,13.73,13.73,0,0,0-4.11,9.64,7.71,7.71,0,0,0,2.12,5.7,7.61,7.61,0,0,0,5.66,2.13,12,12,0,0,0,7.3-2.42,14.07,14.07,0,0,0,4.74-6.11h-6.09a5.12,5.12,0,0,1-3.89,2.08,3.78,3.78,0,0,1-2.15-.65,2.17,2.17,0,0,1-1.09-1.86,3.93,3.93,0,0,1,.19-1.29h13.94a38.29,38.29,0,0,0,.27-3.91Q386.46,103,378.94,103Z" fill="none" stroke="#763d99" stroke-miterlimit="10"/>
        <path d="M397.26,114.33a3.89,3.89,0,0,1-3.14,1.54,2.34,2.34,0,0,1-2.64-2.65,4.74,4.74,0,0,1,1.37-3.27,4.13,4.13,0,0,1,3.13-1.5,2.22,2.22,0,0,1,2.49,2.53A5.09,5.09,0,0,1,397.26,114.33Zm5-11.14-.29,1.52a6.37,6.37,0,0,0-4.71-1.67q-4.9,0-8.48,4.52a14.71,14.71,0,0,0-3.34,9.3,8.24,8.24,0,0,0,1.72,5.41,6.21,6.21,0,0,0,5.1,2.25,9.46,9.46,0,0,0,4.18-1q-2.47,5.93-7.44,5.92a11.6,11.6,0,0,1-4.79-.7q6,6,10.08,6a7.77,7.77,0,0,0,6.45-3.34,24.77,24.77,0,0,0,3.31-6.88c1.32-4,2.2-6.75,2.66-8.22q1.88-6,4.39-13.16Z" fill="none" stroke="#763d99" stroke-miterlimit="10"/>
        <path d="M420.82,114.33a3.94,3.94,0,0,1-3.15,1.54,2.33,2.33,0,0,1-2.63-2.65,4.76,4.76,0,0,1,1.35-3.27,4.11,4.11,0,0,1,3.12-1.5A2.22,2.22,0,0,1,422,111,5.12,5.12,0,0,1,420.82,114.33ZM425,103.21l-.66,2.13q-1.63-2.3-5.24-2.3-4.91,0-8.48,4.52a14.7,14.7,0,0,0-3.33,9.3,8.23,8.23,0,0,0,1.71,5.41,6.22,6.22,0,0,0,5.1,2.25,9.63,9.63,0,0,0,4.81-1.33l-.36,1.18h8.09a149.77,149.77,0,0,1,6.45-21.16Z" fill="none" stroke="#763d99" stroke-miterlimit="10"/>
        <path d="M446.21,103q-9.22,0-9.23,6.86a5,5,0,0,0,1.86,3.91l3.5,2.37a3.55,3.55,0,0,1,1.89,2.83c0,1.77-1.09,2.66-3.26,2.66-1.73,0-2.59-.79-2.59-2.37a2.58,2.58,0,0,1,1.52-2.49,6.92,6.92,0,0,0-3.89-1.4,5.57,5.57,0,0,0-2.73.82,5.13,5.13,0,0,0-2.78,4.76q0,3.4,3.63,5.44a13.52,13.52,0,0,0,6.69,1.69,11.56,11.56,0,0,0,6.72-2.13,7,7,0,0,0,3.4-5.87,8.37,8.37,0,0,0-1.71-5.29,23.39,23.39,0,0,0-3.14-3,3.89,3.89,0,0,1-1.69-2.71,1.87,1.87,0,0,1,2.12-2.1c1.08,0,1.62.38,1.62,1.13a3.1,3.1,0,0,1-.92,1.82,6,6,0,0,0,2.86.92,2.94,2.94,0,0,0,2.31-1.06,3.56,3.56,0,0,0,.92-2.45Q453.31,103,446.21,103Z" fill="none" stroke="#763d99" stroke-miterlimit="10"/>
        <path d="M223.14,94.94l16.23-8a216.75,216.75,0,0,1,209.39,9.92l27.54,16.64" fill="none" stroke="#763d99" stroke-miterlimit="10"/>
        <polygon points="476.13 109.47 472.55 114.91 481.76 117.07 476.13 109.47"/>
      </g>
    </g>
    <g>
      <circle cx="609.05" cy="185.3" r="8.75" fill="#ff0"/>
      <circle cx="609.05" cy="185.3" r="2.95" fill="#ddb300" fill-opacity="0.23"/>
    </g>
    <g>
      <circle cx="645.05" cy="185.3" r="8.75" fill="#ff0"/>
      <circle cx="645.05" cy="185.3" r="2.95" fill="#ddb300" fill-opacity="0.23"/>
    </g>
    <g>
      <circle cx="567.05" cy="185.3" r="8.75" fill="#ff0"/>
      <circle cx="567.05" cy="185.3" r="2.95" fill="#ddb300" fill-opacity="0.23"/>
    </g>
    <g>
      <circle cx="525.05" cy="185.3" r="8.75" fill="#ff0"/>
      <circle cx="525.05" cy="185.3" r="2.95" fill="#ddb300" fill-opacity="0.23"/>
    </g>
    <g>
      <circle cx="483.05" cy="185.3" r="8.75" fill="#ff0"/>
      <circle cx="483.05" cy="185.3" r="2.95" fill="#ddb300" fill-opacity="0.23"/>
    </g>
    <g>
      <circle cx="441.05" cy="185.3" r="8.75" fill="#ff0"/>
      <circle cx="441.05" cy="185.3" r="2.95" fill="#ddb300" fill-opacity="0.23"/>
    </g>
    <g>
      <circle cx="399.05" cy="185.3" r="8.75" fill="#ff0"/>
      <circle cx="399.05" cy="185.3" r="2.95" fill="#ddb300" fill-opacity="0.23"/>
    </g>
    <g>
      <circle cx="357.05" cy="185.3" r="8.75" fill="#ff0"/>
      <circle cx="357.05" cy="185.3" r="2.95" fill="#ddb300" fill-opacity="0.23"/>
    </g>
    <g>
      <circle cx="315.05" cy="185.3" r="8.75" fill="#ff0"/>
      <circle cx="315.05" cy="185.3" r="2.95" fill="#ddb300" fill-opacity="0.23"/>
    </g>
    <g>
      <circle cx="273.05" cy="185.3" r="8.75" fill="#ff0"/>
      <circle cx="273.05" cy="185.3" r="2.95" fill="#ddb300" fill-opacity="0.23"/>
    </g>
    <g>
      <circle cx="231.05" cy="185.3" r="8.75" fill="#ff0"/>
      <circle cx="231.05" cy="185.3" r="2.95" fill="#ddb300" fill-opacity="0.23"/>
    </g>
    <g>
      <circle cx="189.05" cy="185.3" r="8.75" fill="#ff0"/>
      <circle cx="189.05" cy="185.3" r="2.95" fill="#ddb300" fill-opacity="0.23"/>
    </g>
    <g>
      <circle cx="147.05" cy="185.3" r="8.75" fill="#ff0"/>
      <circle cx="147.05" cy="185.3" r="2.95" fill="#ddb300" fill-opacity="0.23"/>
    </g>
    <g>
      <circle cx="105.05" cy="185.3" r="8.75" fill="#ff0"/>
      <circle cx="105.05" cy="185.3" r="2.95" fill="#ddb300" fill-opacity="0.23"/>
    </g>
    <g>
      <circle cx="63.05" cy="185.3" r="8.75" fill="#ff0"/>
      <circle cx="63.05" cy="185.3" r="2.95" fill="#ddb300" fill-opacity="0.23"/>
    </g>
    <g>
      <circle cx="645.05" cy="222.3" r="8.75" fill="#ff0"/>
      <circle cx="645.05" cy="222.3" r="2.95" fill="#ddb300" fill-opacity="0.23"/>
    </g>
    <g>
      <circle cx="645.05" cy="264.3" r="8.75" fill="#ff0"/>
      <circle cx="645.05" cy="264.3" r="2.95" fill="#ddb300" fill-opacity="0.23"/>
    </g>
    <g>
      <circle cx="645.05" cy="306.3" r="8.75" fill="#ff0"/>
      <circle cx="645.05" cy="306.3" r="2.95" fill="#ddb300" fill-opacity="0.23"/>
    </g>
    <g>
      <circle cx="645.05" cy="348.3" r="8.75" fill="#ff0"/>
      <circle cx="645.05" cy="348.3" r="2.95" fill="#ddb300" fill-opacity="0.23"/>
    </g>
    <g>
      <circle cx="645.05" cy="390.3" r="8.75" fill="#ff0"/>
      <circle cx="645.05" cy="390.3" r="2.95" fill="#ddb300" fill-opacity="0.23"/>
    </g>
    <g>
      <circle cx="645.05" cy="432.3" r="8.75" fill="#ff0"/>
      <circle cx="645.05" cy="432.3" r="2.95" fill="#ddb300" fill-opacity="0.23"/>
    </g>
    <g>
      <circle cx="645.05" cy="474.3" r="8.75" fill="#ff0"/>
      <circle cx="645.05" cy="474.3" r="2.95" fill="#ddb300" fill-opacity="0.23"/>
    </g>
    <g>
      <circle cx="645.05" cy="516.3" r="8.75" fill="#ff0"/>
      <circle cx="645.05" cy="516.3" r="2.95" fill="#ddb300" fill-opacity="0.23"/>
    </g>
    <g>
      <circle cx="645.05" cy="558.3" r="8.75" fill="#ff0"/>
      <circle cx="645.05" cy="558.3" r="2.95" fill="#ddb300" fill-opacity="0.23"/>
    </g>
    <g>
      <circle cx="645.05" cy="600.3" r="8.75" fill="#ff0"/>
      <circle cx="645.05" cy="600.3" r="2.95" fill="#ddb300" fill-opacity="0.23"/>
    </g>
    <g>
      <circle cx="645.05" cy="642.3" r="8.75" fill="#ff0"/>
      <circle cx="645.05" cy="642.3" r="2.95" fill="#ddb300" fill-opacity="0.23"/>
    </g>
    <g>
      <circle cx="645.05" cy="684.3" r="8.75" fill="#ff0"/>
      <circle cx="645.05" cy="684.3" r="2.95" fill="#ddb300" fill-opacity="0.23"/>
    </g>
    <g>
      <circle cx="645.05" cy="726.3" r="8.75" fill="#ff0"/>
      <circle cx="645.05" cy="726.3" r="2.95" fill="#ddb300" fill-opacity="0.23"/>
    </g>
    <g>
      <circle cx="645.05" cy="768.3" r="8.75" fill="#ff0"/>
      <circle cx="645.05" cy="768.3" r="2.95" fill="#ddb300" fill-opacity="0.23"/>
    </g>
    <g>
      <circle cx="645.05" cy="810.3" r="8.75" fill="#ff0"/>
      <circle cx="645.05" cy="810.3" r="2.95" fill="#ddb300" fill-opacity="0.23"/>
    </g>
    <g>
      <circle cx="29.05" cy="222.3" r="8.75" fill="#ff0"/>
      <circle cx="29.05" cy="222.3" r="2.95" fill="#ddb300" fill-opacity="0.23"/>
    </g>
    <g>
      <circle cx="29.05" cy="264.3" r="8.75" fill="#ff0"/>
      <circle cx="29.05" cy="264.3" r="2.95" fill="#ddb300" fill-opacity="0.23"/>
    </g>
    <g>
      <circle cx="29.05" cy="306.3" r="8.75" fill="#ff0"/>
      <circle cx="29.05" cy="306.3" r="2.95" fill="#ddb300" fill-opacity="0.23"/>
    </g>
    <g>
      <circle cx="29.05" cy="348.3" r="8.75" fill="#ff0"/>
      <circle cx="29.05" cy="348.3" r="2.95" fill="#ddb300" fill-opacity="0.23"/>
    </g>
    <g>
      <circle cx="29.05" cy="390.3" r="8.75" fill="#ff0"/>
      <circle cx="29.05" cy="390.3" r="2.95" fill="#ddb300" fill-opacity="0.23"/>
    </g>
    <g>
      <circle cx="29.05" cy="432.3" r="8.75" fill="#ff0"/>
      <circle cx="29.05" cy="432.3" r="2.95" fill="#ddb300" fill-opacity="0.23"/>
    </g>
    <g>
      <circle cx="29.05" cy="474.3" r="8.75" fill="#ff0"/>
      <circle cx="29.05" cy="474.3" r="2.95" fill="#ddb300" fill-opacity="0.23"/>
    </g>
    <g>
      <circle cx="29.05" cy="516.3" r="8.75" fill="#ff0"/>
      <circle cx="29.05" cy="516.3" r="2.95" fill="#ddb300" fill-opacity="0.23"/>
    </g>
    <g>
      <circle cx="29.05" cy="558.3" r="8.75" fill="#ff0"/>
      <circle cx="29.05" cy="558.3" r="2.95" fill="#ddb300" fill-opacity="0.23"/>
    </g>
    <g>
      <circle cx="29.05" cy="600.3" r="8.75" fill="#ff0"/>
      <circle cx="29.05" cy="600.3" r="2.95" fill="#ddb300" fill-opacity="0.23"/>
    </g>
    <g>
      <circle cx="29.05" cy="642.3" r="8.75" fill="#ff0"/>
      <circle cx="29.05" cy="642.3" r="2.95" fill="#ddb300" fill-opacity="0.23"/>
    </g>
    <g>
      <circle cx="29.05" cy="684.3" r="8.75" fill="#ff0"/>
      <circle cx="29.05" cy="684.3" r="2.95" fill="#ddb300" fill-opacity="0.23"/>
    </g>
    <g>
      <circle cx="29.05" cy="726.3" r="8.75" fill="#ff0"/>
      <circle cx="29.05" cy="726.3" r="2.95" fill="#ddb300" fill-opacity="0.23"/>
    </g>
    <g>
      <circle cx="29.05" cy="768.3" r="8.75" fill="#ff0"/>
      <circle cx="29.05" cy="768.3" r="2.95" fill="#ddb300" fill-opacity="0.23"/>
    </g>
    <g>
      <circle cx="29.05" cy="810.3" r="8.75" fill="#ff0"/>
      <circle cx="29.05" cy="810.3" r="2.95" fill="#ddb300" fill-opacity="0.23"/>
    </g>
    <g>
      <circle cx="29.05" cy="185.3" r="8.75" fill="#ff0"/>
      <circle cx="29.05" cy="185.3" r="2.95" fill="#ddb300" fill-opacity="0.23"/>
    </g>
    <g>
      <circle cx="39.05" cy="126.5" r="8.75" fill="#ff0"/>
      <circle cx="39.05" cy="126.5" r="2.95" fill="#ddb300" fill-opacity="0.23"/>
    </g>
    <g>
      <circle cx="82.05" cy="80.3" r="8.75" fill="#ff0"/>
      <circle cx="82.05" cy="80.3" r="2.95" fill="#ddb300" fill-opacity="0.23"/>
    </g>
    <g>
      <circle cx="139.05" cy="49.3" r="8.75" fill="#ff0"/>
      <circle cx="139.05" cy="49.3" r="2.95" fill="#ddb300" fill-opacity="0.23"/>
    </g>
    <g>
      <circle cx="197.05" cy="28.3" r="8.75" fill="#ff0"/>
      <circle cx="197.05" cy="28.3" r="2.95" fill="#ddb300" fill-opacity="0.23"/>
    </g>
    <g>
      <circle cx="262.05" cy="15.3" r="8.75" fill="#ff0"/>
      <circle cx="262.05" cy="15.3" r="2.95" fill="#ddb300" fill-opacity="0.23"/>
    </g>
    <g>
      <circle cx="337.05" cy="11.3" r="8.75" fill="#ff0"/>
      <circle cx="337.05" cy="11.3" r="2.95" fill="#ddb300" fill-opacity="0.23"/>
    </g>
    <g>
      <circle cx="407.05" cy="14.34" r="8.75" fill="#ff0"/>
      <circle cx="407.05" cy="14.34" r="2.95" fill="#ddb300" fill-opacity="0.23"/>
    </g>
    <g>
      <circle cx="473.3" cy="26.34" r="8.75" fill="#ff0"/>
      <circle cx="473.3" cy="26.34" r="2.95" fill="#ddb300" fill-opacity="0.23"/>
    </g>
    <g>
      <circle cx="538.05" cy="50.3" r="8.75" fill="#ff0"/>
      <circle cx="538.05" cy="50.3" r="2.95" fill="#ddb300" fill-opacity="0.23"/>
    </g>
    <g>
      <circle cx="592.05" cy="80.3" r="8.75" fill="#ff0"/>
      <circle cx="592.05" cy="80.3" r="2.95" fill="#ddb300" fill-opacity="0.23"/>
    </g>
    <g>
      <circle cx="633.05" cy="124.3" r="8.75" fill="#ff0"/>
      <circle cx="633.05" cy="124.3" r="2.95" fill="#ddb300" fill-opacity="0.23"/>
    </g>
  </g>
</svg>
