<svg id="Layer_1" data-name="Layer 1" xmlns="http://www.w3.org/2000/svg" xmlns:xlink="http://www.w3.org/1999/xlink" width="322" height="322" viewBox="0 0 322 322">
  <defs>
    <clipPath id="clip-path">
      <rect width="322" height="322" fill="none"/>
    </clipPath>
  </defs>
  <title>balrog</title>
  <g clip-path="url(#clip-path)">
    <g>
      <path d="M161,316A155,155,0,1,0,6,161,155,155,0,0,0,161,316Z" fill="#80b300"/>
      <path d="M161,12a148,148,0,1,1-57,11.26A149,149,0,0,1,161,12Zm0-12A161,161,0,1,0,274.84,47.16,161,161,0,0,0,161,0Z" fill="#d3ff61"/>
      <path d="M125.54,245.13l16.26,11.26a19.14,19.14,0,0,1,1.8,1.43l8.68,7.9a17.42,17.42,0,0,0,23,.33L189.44,254a15.79,15.79,0,0,0,1.55-1.51l14.48-15.92a17.44,17.44,0,0,0,4.42-9.79l6.77-60.93a4.7,4.7,0,0,1,1.65-3.1l21-17.75a4.75,4.75,0,0,1,5-.7L261,151.82a4.69,4.69,0,0,1,2.28,2.2l7.58,15.14a4.71,4.71,0,0,1,.49,2.33,4.83,4.83,0,0,1-.7,2.28l-13.82,22.46L237.9,224.62a1.15,1.15,0,0,0-.12.25l-2.88,8.66a17,17,0,0,0,2.38,15.4l8.31,11.43a1,1,0,0,0,.52.38,1,1,0,0,0,.64,0,1,1,0,0,0,.53-.36,1,1,0,0,0,.23-.6l1.69-27a1.16,1.16,0,0,1,.12-.44,1,1,0,0,1,.3-.34L272,215.23l30.63-24.5a29,29,0,0,0,9.86-15L319,151.9a29,29,0,0,0-.72-17.54L314.48,124a75.09,75.09,0,0,0-28.3-36.42l-10.51-7.17a44.28,44.28,0,0,0-24.94-7.69H239.16a44.23,44.23,0,0,0-20.54,5L189.88,92.8c-1,.53-2,1-3.1,1.47l-5.18,2.22a44.23,44.23,0,0,1-38.77-1.9l-15.91-8.75a45.6,45.6,0,0,0-6.6-3L94.4,73.74a43.84,43.84,0,0,0-6.06-1.67l-1.49-.3a44.32,44.32,0,0,0-27.71,3.44l-16.79,8A44.31,44.31,0,0,0,26,96.61L11.24,116.25A36.21,36.21,0,0,0,4,138v16.47a36.17,36.17,0,0,0,4.65,17.74l8.64,15.37A36.21,36.21,0,0,0,27.37,199l29.85,22,18.56,14.84a1.41,1.41,0,0,1,.5.93l1.58,17.48a1.45,1.45,0,0,0,.28.69,1.27,1.27,0,0,0,.61.44,1.37,1.37,0,0,0,1.41-.3l5.9-5.9A17.76,17.76,0,0,0,90.62,232l-2.9-10.64a1.31,1.31,0,0,0-.35-.6L66.72,200,52.14,185.45a7.61,7.61,0,0,1-1.78-2.79,7.69,7.69,0,0,1-.42-3.29l1.25-13.72A7.53,7.53,0,0,1,54.55,160L71.9,148.43a7.63,7.63,0,0,1,5.3-1.21l19.89,2.84a7.65,7.65,0,0,1,3.31,1.32,7.76,7.76,0,0,1,2.35,2.68l15.16,28.65a1.09,1.09,0,0,1,.13.5v47.63a17.37,17.37,0,0,0,7.5,14.29Z" fill="#050209"/>
      <path d="M131.34,173.42l1.9,66.52,9.51,5.7L153,233l4,23,21.86,1.05,3.8-19,9.5,7.6,11.4-13.3v-57L188.36,219l-1.9-36.12-7.6,7.61-7.61-5.71-7.6,7.61-5.7-3.8-9.5,5.7v22.8Z" fill="#da2205"/>
      <path d="M133.24,184.82l3.6,51.92,5.91,3.2,11.4-15.2,6.5,27.31h17l3.4-17,8.5,6.8,10.2-11.9V190.53l-13.3,34.21-3.8-36.11-5,3.9-6.81-5.1-6.8,6.8-5.1-3.4-6.7,5.4-3.8,24.71Z" fill="#f1ce0f" opacity="0.5" style="isolation: isolate"/>
      <path d="M162.27,138.38c1.09-2.9.8-5.7-.66-6.24s-3.51,1.36-4.6,4.27-.8,5.7.66,6.25S161.18,141.29,162.27,138.38Z" fill="#ff0" opacity="0.5" style="isolation: isolate"/>
      <path d="M170.2,142.72c1.45-.55,1.74-3.34.65-6.25s-3.15-4.82-4.6-4.28-1.75,3.35-.66,6.25S168.74,143.26,170.2,142.72Z" fill="#ff0" opacity="0.5" style="isolation: isolate"/>
      <path d="M147.27,129.46c1.17-4-4.41-9.2-12.47-11.55s-15.54-1-16.72,3,4.41,9.2,12.47,11.55S146.09,133.49,147.27,129.46Z" fill="red"/>
      <path d="M133.24,131.61a5.7,5.7,0,1,0-5.7-5.7A5.7,5.7,0,0,0,133.24,131.61Z" fill="#ff0" opacity="0.47" style="isolation: isolate"/>
      <path d="M199.56,132.54c8.07-2.31,13.67-7.46,12.52-11.49s-8.64-5.44-16.71-3.13-13.68,7.46-12.52,11.49S191.49,134.85,199.56,132.54Z" fill="red"/>
      <path d="M198.47,131.36a5.7,5.7,0,1,0-5.7-5.7A5.7,5.7,0,0,0,198.47,131.36Z" fill="#ff0" opacity="0.5" style="isolation: isolate"/>
      <path d="M108,154l6,11,9,18,1-38L99,126l-42,5L38,149v26l7,17,3-12,1-22,24-15,29,4Z" fill="#2b2b2b"/>
      <path d="M216,161l-3,5-3,14V145l30-19,31,14,13,25-1,12-13,9,5-14-8-20-26-13-22,19Z" fill="#2b2b2b"/>
      <path d="M161,12a148,148,0,1,1-57,11.26A149,149,0,0,1,161,12Zm0-12A161,161,0,1,0,274.84,47.16,161,161,0,0,0,161,0Z"/>
    </g>
  </g>
</svg>
