<svg id="Layer_1" data-name="Layer 1" xmlns="http://www.w3.org/2000/svg" xmlns:xlink="http://www.w3.org/1999/xlink" width="323" height="324" viewBox="0 0 323 324">
  <defs>
    <clipPath id="clip-path">
      <rect width="323" height="324" fill="none"/>
    </clipPath>
  </defs>
  <title>frodo</title>
  <g clip-path="url(#clip-path)">
    <g>
      <path d="M161,318A155,155,0,1,0,6,163,155,155,0,0,0,161,318Z" fill="#d3ff61"/>
      <path d="M161,14a148,148,0,1,1-57,11.26A149,149,0,0,1,161,14Zm0-12A161,161,0,1,0,274.84,49.16,161,161,0,0,0,161,2Z"/>
      <path d="M165,315l-64.37-7.47a12,12,0,0,1-12-12V259.19a12,12,0,0,1,12-12H231.9a12,12,0,0,1,12,12v36.34C243.9,302.13,171.6,315,165,315Z" fill="#5e342d"/>
      <path d="M166.75,155h-6.9a28.25,28.25,0,0,0-28.25,28.25V206a28.25,28.25,0,0,0,28.25,28.25h6.9A28.25,28.25,0,0,0,195,206v-22.7A28.25,28.25,0,0,0,166.75,155Z" fill="#c9a688"/>
      <path d="M65.31,280.13c10.1-16.86,21.39-32.32,40.62-40.21,12.36-5.08,15.25-18.21,21.63-28.3.71-3,.57-6.27,2.54-8.94a7.88,7.88,0,0,1,6.17-2.86c6.16,2.22,6.59,8.22,8.52,13.16,4.3,11,12.9,16.56,24,16.58,11.31,0,13.5-9,14.61-18.23.46-3.84,1.83-7.56,6.68-8.06a18.57,18.57,0,0,1,10.54,11c10.64,8.63,19.26,19.84,31.88,25.93,15.52,7.48,23.68,19.57,24.41,36.74-8.64,10.12-18,19.43-30.24,25.16-13-5.8-22.41-16.81-34.75-23.74C167,264.36,156,265.59,135.29,285c-9.35,8.75-16.28,20.73-30,24C89.2,303.19,76.16,293.18,65.31,280.13Z" fill="#39433b"/>
      <path d="M162,12a148,148,0,1,1-57,11.26A149,149,0,0,1,162,12Zm0-12A161,161,0,1,0,275.84,47.16,161,161,0,0,0,162,0Z"/>
      <path d="M154.87,225.86S156,242,162,245s12.48-16.52,12.48-16.52" fill="none" stroke="#7a6661" stroke-miterlimit="10"/>
      <path d="M163.5,243c.71,0,1.5,1.28,1.5,3s-.79,3-1.5,3-1.5-1.28-1.5-3S162.79,243,163.5,243Zm0-1c-1.38,0-2.5,1.79-2.5,4s1.12,4,2.5,4,2.5-1.79,2.5-4S164.88,242,163.5,242Z" fill="#ffd400"/>
      <path d="M135.1,198.75l-3.9,3.73c-6.44-3.34-3.07-10.16-6.75-14.48-13.74-11.54-5.14-25-.51-35.53,4.92-11.2,15.31-21.5,33.31-20.39,32.92,2,49.94,19.25,47.52,48.83-.83,10.15-.21,20.41-4.9,30.06-7.48.42-10.1-3.44-10.56-9.18-5.65-4-1.19-23.75-2.86-29.09-3.79-12.07-29.89-21.09-41.75-14-3.59,2.15-4.15,21-4.68,24.18C139.13,188.35,140.66,194.39,135.1,198.75Z" fill="#281b17"/>
    </g>
  </g>
</svg>
