<svg id="Layer_1" data-name="Layer 1" xmlns="http://www.w3.org/2000/svg" xmlns:xlink="http://www.w3.org/1999/xlink" width="322" height="323" viewBox="0 0 322 323">
  <defs>
    <clipPath id="clip-path">
      <rect width="322" height="322" fill="none"/>
    </clipPath>
  </defs>
  <title>gandalf</title>
  <g clip-path="url(#clip-path)">
    <g>
      <path d="M161,317A155,155,0,1,0,6,162,155,155,0,0,0,161,317Z" fill="#d3ff61"/>
      <path d="M161,13a148,148,0,1,1-57,11.26A149,149,0,0,1,161,13Zm0-12A161,161,0,1,0,274.84,48.16,161,161,0,0,0,161,1Z"/>
      <path d="M127.27,318.08,178.92,183.4l75.5,93.18L251,288l-14.26,12.71Z" fill="#4b4b46"/>
      <path d="M38,256l-.09-10.87,101-66.91L146.53,302,147,319l-12.34-3.34L46.54,271.78Z" fill="#696d6a"/>
      <path d="M181.65,119H123.07a8.89,8.89,0,0,0-8.89,8.89v66.22a8.89,8.89,0,0,0,8.89,8.89h58.58a8.89,8.89,0,0,0,8.89-8.89V127.89A8.89,8.89,0,0,0,181.65,119Z" fill="#c99e89"/>
      <path d="M169.17,202H133.83c-8.19,0-14.83-6.29-14.83-14v-2.13a13.44,13.44,0,0,1,2-7.06,23.3,23.3,0,0,0,2.6-18.57l-4.1-14.41a13.29,13.29,0,0,1-.51-3.65V132c0-7.75,6.64-14,14.83-14h35.34c8.19,0,14.83,6.29,14.83,14v56C184,195.71,177.36,202,169.17,202Z" fill="#cfa78e"/>
      <path d="M147.22,309.15,134,251.48a91.51,91.51,0,0,0-4.86-15.06L112.76,197.6a4.07,4.07,0,0,1-.31-2,4,4,0,0,1,2.22-3.19,4,4,0,0,1,2-.41l68,1.74a9.27,9.27,0,0,1,9,8.11,9.16,9.16,0,0,1-.49,4.34L187,222.67a19.61,19.61,0,0,0-15.42,6.85,19.54,19.54,0,0,0-4.34,16.3l.75,3.89a57.66,57.66,0,0,1-2.56,31l-10.64,28.62A4,4,0,0,1,151,312a4,4,0,0,1-3.74-2.86Z" fill="#7f827f"/>
      <path d="M168,193.5c0,3.24-6.57,5.87-14.67,5.87s-14.67-2.63-14.67-5.87,6.36-3.26,14.67-5.86C161.09,185.21,168,190.26,168,193.5Z" fill="none" stroke="#7f827f" stroke-miterlimit="10" stroke-width="6"/>
      <path d="M252.53,157.94,257,286" fill="none" stroke="#563730" stroke-miterlimit="10" stroke-width="12"/>
      <path d="M269.29,162.57c0-9.22-4.86-24.56-8.59-30.07-3-4.42-.08-8.59-4.3-8.59-4.74,0-9.77,7.44-12.88,12.88s0,8.88,0,17.18c0,4.16-.87,9.29,0,12.89,1.19,4.92,1.88,14,4.29,17.18,2.87,3.78,2.57,2.15,6.45,2.15,4.74,0,6.44,4.12,6.44-2.15C260.7,179.75,269.29,170.87,269.29,162.57Z" fill="#563730"/>
      <path d="M247.81,263.51c0,4,3.49,11.72,4.3,15,1.81,7.44,2.34,8.59,6.44,8.59,5.93,0,10.74-10.58,10.74-23.62s-4.81-23.63-10.74-23.63c-4.59,0-4.91,8.27-6.44,17.18C251.66,259.66,247.81,260.56,247.81,263.51Z" fill="#cfa78e"/>
      <path d="M76,133.45l20.27-6.75a94.2,94.2,0,0,0,54.44-47.22l7.17-14.33A49.11,49.11,0,0,1,201.8,38h26.92l-24,36a38.39,38.39,0,0,0,0,42.57l24,36Z" fill="#696c69"/>
      <path d="M161,12a148,148,0,1,1-57,11.26A149,149,0,0,1,161,12Zm0-12A161,161,0,1,0,274.84,47.16,161,161,0,0,0,161,0Z"/>
    </g>
  </g>
</svg>
