<svg id="Layer_1" data-name="Layer 1" xmlns="http://www.w3.org/2000/svg" xmlns:xlink="http://www.w3.org/1999/xlink" width="322" height="323" viewBox="0 0 322 323">
  <defs>
    <clipPath id="clip-path">
      <rect width="322" height="323" fill="none"/>
    </clipPath>
  </defs>
  <title>gimle</title>
  <g clip-path="url(#clip-path)">
    <g>
      <path d="M161,317A155,155,0,1,0,6,162,155,155,0,0,0,161,317Z" fill="#d3ff61"/>
      <path d="M161,13a148,148,0,1,1-57,11.26A149,149,0,0,1,161,13Zm0-12A161,161,0,1,0,274.84,48.16,161,161,0,0,0,161,1Z"/>
      <path d="M166,294.85c64.73,0,117.2-27,117.2-60.34S230.73,174.17,166,174.17s-117.2,27-117.2,60.34S101.27,294.85,166,294.85Z" fill="#150f09"/>
      <path d="M164.6,309c67,0,121.35-26.88,121.35-60s-54.33-60-121.35-60S43.25,215.8,43.25,249,97.58,309,164.6,309Z" fill="#231612"/>
      <path d="M256.11,291.17c-.65-18.85,4.88-34.67,8.3-52.46,10.47,6.43,7.92,17.72,7.89,27.53C269.47,278.68,263.07,285.37,256.11,291.17Z" fill="#8f8a89"/>
      <path d="M73.73,292.81c.66-18.84-4.87-34.67-8.29-52.45-10.47,6.42-7.92,17.72-7.89,27.53C60.37,280.32,66.77,287,73.73,292.81Z" fill="#8f8a89"/>
      <path d="M196,91.61H136a12,12,0,0,0-12,12v68.47a12,12,0,0,0,12,12H196a12,12,0,0,0,12-12V103.61A12,12,0,0,0,196,91.61Z" fill="#9b7c6a"/>
      <path d="M100.79,181.17l7-11.86c11,1.64,11.78-4.68,11-13.29s-4.43-18.55,7-23.8c12,30.17,37.32,23.93,60.9,22.35,3.08-.21,6.07-1,8.78,1.12,2.65,2.64,3.22,6.37,5.09,9.86,4.23-4.19,2.12-12,8.57-14.62,4.37,11.55,7.11,23.82,15,33.79,1.61,3.86,4.34,7.29,4.55,11.7,4.09,13.34-3.75,26.49-.49,39.8-3,19.39,2,38.26,3.7,57.36-7.67,7.18-17.27,10.42-27.1,13.18-12.3-6.57-7.29-21.14-13.92-32-10.24,13.52-12.4,30.93-26.72,39.84l-3.87.09c-13-12.25-19.94-27.42-21.42-45.19.38,16.43,8,30.54,14,45.18-6.5,1.05-12.84.88-18.76-2.47-4.9-6.94-11-8.56-18.47-4.19-4.22.19-8.11-.55-11.07-3.92-8.83-10.86-4.24-24-4.17-35.53.13-23.3-2.41-46.17-5.18-69.14C94,192.41,96.14,186.4,100.79,181.17Z" fill="#422d23"/>
      <path d="M132.38,147.81v-8.16a6.54,6.54,0,0,0-.93-3.36l-3.6-6a6.48,6.48,0,0,1-.76-4.79l4.3-19a6.51,6.51,0,0,1,7.3-5c8.68,1.25,23.81,4.56,24.86,12.52,1.25,9.4,10,2,12.81-.58a6.27,6.27,0,0,1,2.1-1.3l13.09-5a6.5,6.5,0,0,1,8.78,5.17l5.29,36.91a6.66,6.66,0,0,0,.89,2.48,6.52,6.52,0,0,0,6.86,3l7-1.43a6.38,6.38,0,0,0,2.47-1,6.56,6.56,0,0,0,2.74-4.5,6.74,6.74,0,0,0-.21-2.68l-15.9-54.25a6.52,6.52,0,0,0-6.37-4.69l-70.89,1.24a6.52,6.52,0,0,0-5.92,4L105.58,142a6.47,6.47,0,0,0-.48,2.75,6.4,6.4,0,0,0,.72,2.71,6.52,6.52,0,0,0,4.3,3.36l14.24,3.36a6.54,6.54,0,0,0,2.92,0,6.62,6.62,0,0,0,2.63-1.26,6.44,6.44,0,0,0,1.83-2.28A6.67,6.67,0,0,0,132.38,147.81Z" fill="#494949"/>
      <path d="M167.4,98.62c16.25,0,29.42-4.39,29.42-9.81S183.65,79,167.4,79,138,83.39,138,88.81,151.15,98.62,167.4,98.62Z" fill="#494949"/>
      <path d="M161.8,168c9.67,0,17.51-4.08,17.51-9.11s-7.84-9.11-17.51-9.11-17.51,4.08-17.51,9.11S152.13,168,161.8,168Z" fill="none" stroke="#422d23" stroke-miterlimit="10" stroke-width="7"/>
      <path d="M161,12a148,148,0,1,1-57,11.26A149,149,0,0,1,161,12Zm0-12A161,161,0,1,0,274.84,47.16,161,161,0,0,0,161,0Z"/>
    </g>
  </g>
</svg>
