<svg id="Layer_1" data-name="Layer 1" xmlns="http://www.w3.org/2000/svg" xmlns:xlink="http://www.w3.org/1999/xlink" width="323" height="322" viewBox="0 0 323 322">
  <defs>
    <clipPath id="clip-path">
      <rect width="323" height="322" fill="none"/>
    </clipPath>
  </defs>
  <title>legolasVegas</title>
  <g clip-path="url(#clip-path)">
    <g>
      <path d="M161,316A155,155,0,1,0,6,161,155,155,0,0,0,161,316Z" fill="#d3ff61"/>
      <path d="M161,12a148,148,0,1,1-57,11.26A149,149,0,0,1,161,12Zm0-12A161,161,0,1,0,274.84,47.16,161,161,0,0,0,161,0Z"/>
      <path d="M183,318l-68-10c-12.93,0-23.11,3.95-23.11-9.55,6.72-9.82,1.67-45.69-.93-57.45l-1.4-16.37c-1-4.39-1.85-24.14-1.47-28.63l3.8-22.62c0-13.5,10.58-24.55,23.5-24.55H218c12.92,0,23.5,11,23.5,24.55l4.86,52.34a43.76,43.76,0,0,1-.62,12.46l-8,41.1a22.93,22.93,0,0,0,1.27,13L232,298C232,311.5,195.93,318,183,318Z" fill="#3e5b2b"/>
      <path d="M160.15,271.63,124.87,138.94a4.07,4.07,0,0,1,.76-3.6,4.15,4.15,0,0,1,1.49-1.17,4.1,4.1,0,0,1,1.86-.36L209.87,137a4.14,4.14,0,0,1,1.82.51,4.09,4.09,0,0,1,1.4,1.28,4,4,0,0,1,.48,3.65L168,271.94a4.11,4.11,0,0,1-1.55,2.07,4.09,4.09,0,0,1-6.3-2.38Z" fill="#7b7368"/>
      <path d="M201.59,134c1.18-9.94,12.16-17.41,17.09-26.41,7.4,13,4.16,27.39,13.56,40.12,4.73,8.81,7.83,18.14,14.54,26.32,12.77,15.59,10.71,29.63-6.14,43.25-.8.64-.83,1.65-1.21,2.49-1.86,4.12,2.4,11.9-10.18,10.22-10.83-1.45-8.83-9.41-6.22-13.5,6.88-10.82-2.59-20-5.06-29.73C213.47,169.1,207.15,151.6,201.59,134Z" fill="#d8c77f"/>
      <path d="M227.18,127.5a5.91,5.91,0,0,1-.2,2.64,5.84,5.84,0,0,1-1.33,2.28c-10.47,11.21-15,1.11-15.72-9.61-1.79-26.57-13.37-29-32.09-18.25-6.66,3.83-14,6.07-20.93,3.13-20.87-8.88-26,2.42-25.67,22.2.13,7-.79,13.4-7.88,15.4a6.07,6.07,0,0,1-2.81.09c-10.09-2.06-5.19-9.68-4-15.95a6.25,6.25,0,0,0,.11-1.06c.24-16.45-.43-32.88,3.43-49.17,6.17-26,22.63-42.89,44.42-44.07,27.63-1.51,45.83,10.39,53.51,38.5C222.83,91,224.4,109.46,227.18,127.5Z" fill="#dac880"/>
      <path d="M127.26,107.13c.24,3.06,0,6.28,2.88,8.46q3.74,11,7.49,22c-.44,7.54,1.42,14.85,3.16,22,2.72,11.13,2.65,21.86-1.22,32.6-2.77,5-3.61,11.2-9.25,14.31l-1.45,2.36a21.68,21.68,0,0,0-2.22,3.08c-1.71,2.49,1.6,8.06-3.9,7.81-4.32-.2-6.2-3.94-6.25-8.26-3.47-14-7.56-27.88-5.41-42.57-1.8-6-1.84-11.59,3.22-16.19C120.93,138.2,124.47,122.77,127.26,107.13Z" fill="#d9c77f"/>
      <path d="M146.69,161.17l9.6,15.09h19.2l12.34-16.46s15.08-27.43,20.57-27.43,9.6-37,9.6-37l-9.6,15.09s4.11-35.66-4.11-34.29-28.8,9.6-35.66,8.23-27.43-16.46-31.54-8.23-4.12,38.4-4.12,38.4l-9.6-15.08,1.37,32.91Z" fill="#ebd4bb"/>
      <path d="M162,12a148,148,0,1,1-57,11.26A149,149,0,0,1,162,12Zm0-12A161,161,0,1,0,275.84,47.16,161,161,0,0,0,162,0Z"/>
    </g>
  </g>
</svg>
