<svg id="Layer_1" data-name="Layer 1" xmlns="http://www.w3.org/2000/svg" width="323" height="323" viewBox="0 0 323 323">
  <title>nazgul</title>
  <g>
    <circle cx="161.5" cy="161.5" r="161" fill="#80b300" stroke="#000" stroke-miterlimit="10"/>
    <path d="M203.5,110.5l3,18c.67,1.77.28,8.13,0,10l-3,29,.14-38.09L182.5,112.5Z"/>
    <path d="M200.5,153.5c0-43.08,3.08-78-40-78s-69,34.92-69,78,25.92,78,69,78S200.5,196.58,200.5,153.5Z"/>
    <polygon points="91.5 153.5 86.5 221.5 71.5 281.5 94.5 306.5 172.5 312.5 237.5 296.5 229.5 255.5 202.5 184.5 161.5 231.5 91.5 153.5"/>
    <path d="M118.5,138.55c0,34.82-10.64,76.95,12,76.95s70-42.13,70-76.95-18.36-63.05-41-63.05S118.5,103.73,118.5,138.55Z"/>
    <path d="M200.5,153.5c0,24.55,7,35,0,52-4.23,10.27-16.34,23-25,23-22.37,0-25-34-25-74s1.63-76,24-76c13.4,0,23.3,12.54,29.09,31.21C207.47,122.2,200.5,137.44,200.5,153.5Z" fill="#3f3f3f"/>
    <path d="M150.5,112.5l4-17,2,41,2.13,9.05c1.23,5.23-.9,10.72-2.13,15.95l-1,10-1.4-13a48.76,48.76,0,0,1-.82-6l-.78-11Z"/>
    <path d="M154.77,151.94l.73,6.56.95-3.32a11.2,11.2,0,0,0-.37-7.23l-.58-1.45-.22.67A11,11,0,0,0,154.77,151.94Z" fill="#3f3f3f"/>
    <path d="M161.5,12.5A149,149,0,0,1,266.86,266.86,149,149,0,0,1,56.14,56.14,148,148,0,0,1,161.5,12.5m0-12a161,161,0,1,0,161,161A161,161,0,0,0,161.5.5Z"/>
  </g>
</svg>
