<svg id="Layer_1" data-name="Layer 1" xmlns="http://www.w3.org/2000/svg" xmlns:xlink="http://www.w3.org/1999/xlink" width="324" height="324" viewBox="0 0 324 324">
  <defs>
    <clipPath id="clip-path">
      <rect width="324" height="324" fill="none"/>
    </clipPath>
  </defs>
  <title>saruman</title>
  <g clip-path="url(#clip-path)">
    <g>
      <path d="M162,318A156,156,0,1,0,6,162,156,156,0,0,0,162,318Z" fill="#80b300"/>
      <path d="M162,12a149,149,0,1,1-57.44,11.34A150,150,0,0,1,162,12Zm0-12A162,162,0,1,0,276.55,47.45,162,162,0,0,0,162,0Z"/>
      <path d="M257.63,128.23l1.18-15v-15l4.61,16.16v14.1Z" fill="#999"/>
      <path d="M117.14,316.52l59.62-155.46,87.15,107.56-4,13.17L243.5,296.46,206,314l-45,4Z" fill="#e5e5e5"/>
      <path d="M27,242l-9-12,112.45-74.93,8.82,142.83.54,19.67-14.24-3.85L72,288,33,255Z" fill="#ededed"/>
      <path d="M181.28,86.72H110.92A8.89,8.89,0,0,0,102,95.61v79.18a8.89,8.89,0,0,0,8.89,8.89h70.36a8.89,8.89,0,0,0,8.89-8.89V95.61A8.89,8.89,0,0,0,181.28,86.72Z" fill="#c99e89"/>
      <path d="M161.74,179.35H128.48c-7.71,0-14-5.92-14-13.22v-2a12.66,12.66,0,0,1,1.89-6.64A21.86,21.86,0,0,0,118.86,140L115,126.45a12.53,12.53,0,0,1-.48-3.44v-9.5c0-7.3,6.25-13.22,14-13.22h33.26c7.71,0,14,5.92,14,13.22v52.62C175.7,173.43,169.45,179.35,161.74,179.35Z" fill="#cfa78e"/>
      <path d="M140.17,306.21l-15.31-66.57a104.94,104.94,0,0,0-5.61-17.39l-18.85-44.8a4.69,4.69,0,0,1-.33-2.28,4.68,4.68,0,0,1,2.54-3.68,4.62,4.62,0,0,1,2.25-.49l78.52,2a10.64,10.64,0,0,1,8.62,4.66,10.56,10.56,0,0,1,1.79,4.71,10.68,10.68,0,0,1-.57,5l-7.06,19a22.48,22.48,0,0,0-9.8,1.93,22.56,22.56,0,0,0-13,24.79l.87,4.48a66.62,66.62,0,0,1-3,35.81l-12.28,33a4.67,4.67,0,0,1-1.76,2.19,4.66,4.66,0,0,1-7-2.37Z" fill="#fff"/>
      <path d="M164.19,172.72c0,3.74-7.58,6.77-16.93,6.77s-16.94-3-16.94-6.77,7.34-3.77,16.94-6.77C156.18,163.15,164.19,169,164.19,172.72Z" fill="none" stroke="#fff" stroke-miterlimit="10" stroke-width="6"/>
      <path d="M261.11,137.51c5.1,0,9.23-9.82,9.23-21.93s-4.13-21.93-9.23-21.93-9.23,9.82-9.23,21.93S256,137.51,261.11,137.51Z" fill="#fff"/>
      <path d="M261.72,131.67l5.16,147.81" fill="none" stroke="#a8a8a8" stroke-miterlimit="10" stroke-width="12"/>
      <path d="M256.28,253.52c0,4.64,4,13.53,5,17.35,2.08,8.59,2.7,9.92,7.44,9.92,6.84,0,12.39-12.21,12.39-27.27s-5.55-27.27-12.39-27.27c-5.3,0-5.67,9.54-7.44,19.83C260.72,249.09,256.28,250.12,256.28,253.52Z" fill="#cfa78e"/>
      <path d="M255,135.52l12.68-.53,12-16.67-5.57-22.87-1.4,22-5.43,8.32-11.53.47-6.29-12.44-1.83-16.1L245,116.29Z" fill="#a8a8a8"/>
      <path d="M221.42,272.81,200.1,76.64a8.11,8.11,0,0,0-8.1-7.23H108.61a8.11,8.11,0,0,0-7.84,6L54,253.32c-.78,3-.14,6.47,2.19,8.41l.35-.34c3.21,2.68,25.05,3.89,36.08,2a8.12,8.12,0,0,0,6.67-7.28l13-147a7.62,7.62,0,0,1,2.19-4.86,7.52,7.52,0,0,1,4.75-2.13l57.62-3.86A7.68,7.68,0,0,1,185,105.4l-1.77,172.88c.32,4.05,19.21,3.54,23.18,3.54h7a8.09,8.09,0,0,0,6-2.7,8.14,8.14,0,0,0,2-6.31Z" fill="#fff"/>
      <path d="M162,12a149,149,0,1,1-57.44,11.34A150,150,0,0,1,162,12Zm0-12A162,162,0,1,0,276.55,47.45,162,162,0,0,0,162,0Z"/>
      <path d="M159,131c3.87,0,7-1.12,7-2.5s-3.13-2.5-7-2.5-7,1.12-7,2.5S155.13,131,159,131Z" fill="#bc9682"/>
      <path d="M135,131c3.87,0,7-1.12,7-2.5s-3.13-2.5-7-2.5-7,1.12-7,2.5S131.13,131,135,131Z" fill="#bc9682"/>
      <path d="M142.74,125.8c.23-.52-2.42-2.25-5.92-3.88s-6.54-2.53-6.78-2,2.41,2.24,5.92,3.87S142.5,126.31,142.74,125.8Z" fill="#bc9682"/>
      <path d="M157.82,123.76c3.5-1.63,6.15-3.37,5.91-3.88s-3.27.4-6.77,2-6.16,3.36-5.92,3.87S154.31,125.38,157.82,123.76Z" fill="#bc9682"/>
    </g>
  </g>
</svg>
