<svg id="Layer_1" data-name="Layer 1" xmlns="http://www.w3.org/2000/svg" width="324" height="324" viewBox="0 0 324 324">
  <title>theRing</title>
  <g>
    <circle cx="162" cy="162" r="161" fill="#eab8ff" stroke="#000" stroke-miterlimit="10" stroke-width="2"/>
    <path d="M163,13A149,149,0,0,1,268.36,267.36,149,149,0,0,1,57.64,56.64,148,148,0,0,1,163,13m0-12A161,161,0,1,0,324,162,161,161,0,0,0,163,1Z"/>
    <g>
      <path d="M183.22,222.42l-1.27-.69c-1.93-1-3.81-2.15-5.66-3.33l-20.91-13.27c-1-.66-2.07-1.35-3.08-2l-3.4-2.77a36,36,0,0,1-2.67-2.42l-15.58-15.58a35.07,35.07,0,0,1-2.7-3L115.3,163.45a36.35,36.35,0,0,1-4.4-7L97,127.23a35.66,35.66,0,0,1-1.94-5l-6.78-22.17a36.08,36.08,0,0,1-1.4-7l-1-9.75a1.93,1.93,0,0,1,2.2-1.15l23.52,5.3a96.74,96.74,0,0,1,28,11.11l16,9.49a96.82,96.82,0,0,1,21.29,17.06l19.33,20.6a96.1,96.1,0,0,1,11.49,14.93L221,181.73a96,96,0,0,1,8.2,16.41l.12.3a95,95,0,0,1,6.38,34.24h0a1.93,1.93,0,0,1-1.92,1.93h-3.53a96.56,96.56,0,0,1-23.68-3L184,222.76Z" fill="none"/>
      <path d="M43.31,124.53v8.76a73.69,73.69,0,0,0,6.95,31.25l6.32,13.53A73.71,73.71,0,0,0,65.09,192L87.2,220.54a74.26,74.26,0,0,0,10.38,10.89l27.65,23.64a73.29,73.29,0,0,0,14,9.44L154,272.17a73.57,73.57,0,0,0,21.1,7.14l4.53.8a73.83,73.83,0,0,0,27.6-.37h0a73.87,73.87,0,0,0,22-8.31l6.72-3.86a73.8,73.8,0,0,0,18-14.47l5-5.54a73.88,73.88,0,0,0,14-22.71l4-10.31a73.79,73.79,0,0,0,3-44L277.67,161a73.84,73.84,0,0,0-8.78-21.26l-14.45-23.63a73.39,73.39,0,0,0-11.66-14.56L219.43,79a73.34,73.34,0,0,0-11.11-8.84L181.5,52.71a74,74,0,0,0-25.33-10.39l-8.12-1.67a73.81,73.81,0,0,0-40,2.91L97.27,47.47A73.8,73.8,0,0,0,69.66,65.26L66,69.05A73.81,73.81,0,0,0,50.57,92.34l-1.63,3.91A73.75,73.75,0,0,0,43.31,124.53ZM235.39,234.89l.1,3a36.29,36.29,0,0,1-8.3,24.36h0a36.29,36.29,0,0,1-12.29,9.59l-2.28,1.09a36.34,36.34,0,0,1-7.94,2.72l-9.15,2L191,278.77a36.2,36.2,0,0,1-18.6-.27l-7.75-2.18a35.75,35.75,0,0,1-7.51-3.05l-25.31-13.76a36.25,36.25,0,0,1-6.33-4.38L95.57,229.37a36.52,36.52,0,0,1-4.69-4.86L72.6,201.6a36.59,36.59,0,0,1-4.09-6.4L52.58,163.32a36.19,36.19,0,0,1-3.46-11.08l-2.45-17.16a35.8,35.8,0,0,1,.06-10.64l1.2-7.81a36.28,36.28,0,0,1,7.32-16.88l.72-.92A36.19,36.19,0,0,1,71.3,87.46l14.47-5.65.14,1.45a1.93,1.93,0,0,1,2.2-1.15l23.52,5.3a96.74,96.74,0,0,1,28,11.11l16,9.49a96.82,96.82,0,0,1,21.29,17.06l19.33,20.6a96.1,96.1,0,0,1,11.49,14.93L221,181.73a96,96,0,0,1,8.2,16.41l.12.3a95,95,0,0,1,6.38,34.24h0c0,1.06.29,1.64-.28,2.21" fill="#fef200"/>
      <path d="M47.93,116.63a36.28,36.28,0,0,1,7.32-16.88l.72-.92A36.19,36.19,0,0,1,71.3,87.46l14.47-5.65.14,1.45a1.86,1.86,0,0,0-.13.94l1,8.93A96.85,96.85,0,0,0,94.1,120.8l10.65,24.65a96.6,96.6,0,0,0,14.58,23.69L133,185.5a96.74,96.74,0,0,0,19.29,17.58l11,9a36.32,36.32,0,0,0,8.05,5l11.89,5.36.81.44a96.46,96.46,0,0,0,22.51,8.8l1.3.51a36,36,0,0,0,12.81,2.52l14.74.2.1,3a36.29,36.29,0,0,1-8.3,24.36h0a36.29,36.29,0,0,1-12.29,9.59l-2.28,1.09a36.34,36.34,0,0,1-7.94,2.72l-9.15,2L191,278.77a36.2,36.2,0,0,1-18.6-.27l-7.75-2.18a35.75,35.75,0,0,1-7.51-3.05l-25.31-13.76a36.25,36.25,0,0,1-6.33-4.38L95.57,229.37a36.52,36.52,0,0,1-4.69-4.86L72.6,201.6a36.59,36.59,0,0,1-4.09-6.4L52.58,163.32a36.19,36.19,0,0,1-3.46-11.08l-2.45-17.16a35.8,35.8,0,0,1,.06-10.64Z" fill="#fef200" opacity="0.5"/>
      <path d="M47.75,117.78a40.66,40.66,0,0,1,8.22-19h0A36.19,36.19,0,0,1,71.3,87.46l6.55-2.56,7.92-3.09.14,1.45a1.86,1.86,0,0,0-.13.94l1,8.93A96.85,96.85,0,0,0,94.1,120.8l10.65,24.65a96.36,96.36,0,0,0,14.58,23.68L133,185.5a96.74,96.74,0,0,0,19.29,17.58l11,9a36.32,36.32,0,0,0,8.05,5l11.89,5.36.81.44a96.46,96.46,0,0,0,22.51,8.8l1.3.51a36,36,0,0,0,12.81,2.52l14.74.2.1,3a36.29,36.29,0,0,1-8.3,24.36h0a36.29,36.29,0,0,1-12.29,9.59l-2.28,1.09a36.34,36.34,0,0,1-7.94,2.72l-9.15,2L191,278.77a36.2,36.2,0,0,1-18.6-.27l-7.75-2.18a35.75,35.75,0,0,1-7.51-3.05l-25.31-13.76a36.25,36.25,0,0,1-6.33-4.38L95.57,229.37a36.52,36.52,0,0,1-4.69-4.86L72.6,201.6a36.59,36.59,0,0,1-4.09-6.4L54,166.11a55.52,55.52,0,0,1-5.29-17l-1.61-11.24a55.58,55.58,0,0,1,.09-16.29Z" fill="#fef200"/>
      <path d="M47.75,117.78a40.66,40.66,0,0,1,8.22-19h0A36.19,36.19,0,0,1,71.3,87.46l6.55-2.56,7.92-3.09.14,1.45a1.86,1.86,0,0,0-.13.94l1,8.93A96.85,96.85,0,0,0,94.1,120.8l10.65,24.65a96.36,96.36,0,0,0,14.58,23.68L133,185.5a96.74,96.74,0,0,0,19.29,17.58l11,9a36.32,36.32,0,0,0,8.05,5l11.89,5.36.81.44a96.46,96.46,0,0,0,22.51,8.8l1.3.51a36,36,0,0,0,12.81,2.52l14.74.2.1,3a36.29,36.29,0,0,1-8.3,24.36h0a36.29,36.29,0,0,1-12.29,9.59l-2.28,1.09a36.34,36.34,0,0,1-7.94,2.72l-9.15,2L191,278.77a36.2,36.2,0,0,1-18.6-.27l-7.75-2.18a35.75,35.75,0,0,1-7.51-3.05l-25.31-13.76a36.25,36.25,0,0,1-6.33-4.38L95.57,229.37a36.52,36.52,0,0,1-4.69-4.86L72.6,201.6a36.59,36.59,0,0,1-4.09-6.4L54,166.11a55.52,55.52,0,0,1-5.29-17l-1.61-11.24a55.58,55.58,0,0,1,.09-16.29Z" fill="#afa204" opacity="0.39"/>
    </g>
  </g>
</svg>
