<svg id="Layer_1" data-name="Layer 1" xmlns="http://www.w3.org/2000/svg" xmlns:xlink="http://www.w3.org/1999/xlink" viewBox="0 0 670 854.61"><defs><style>.cls-1{fill:none;}.cls-2{fill:#1a8e5f;}.cls-3{opacity:0.45;}.cls-4{fill:#160b05;}.cls-5{fill:#b38bcc;}.cls-6{fill:#8a6f9e;}.cls-7{fill:#156d47;}.cls-8{clip-path:url(#clip-path);}.cls-9{fill:#763d99;}.cls-10{fill:#fff;}.cls-11{isolation:isolate;}.cls-12{fill:#ff0;}.cls-13{fill:#ddb300;fill-opacity:0.23;}</style><clipPath id="clip-path"><rect class="cls-1" x="204.59" y="59.57" width="295.83" height="79.88"/></clipPath></defs><title>slotmachine_updated</title><path class="cls-2" d="M46.5,173.31V839.69A15.3,15.3,0,0,0,61.79,855h552.4a15.3,15.3,0,0,0,15.31-15.29V173.31A15.3,15.3,0,0,0,614.21,158H61.81A15.3,15.3,0,0,0,46.5,173.29ZM209.27,599.08h-107A15.32,15.32,0,0,1,87,583.77V277a15.3,15.3,0,0,1,15.31-15.31h107A15.31,15.31,0,0,1,224.58,277V583.77A15.33,15.33,0,0,1,209.27,599.08Zm182.23,0h-107a15.3,15.3,0,0,1-15.31-15.31V277a15.3,15.3,0,0,1,15.29-15.31h107A15.3,15.3,0,0,1,406.81,277V583.77A15.3,15.3,0,0,1,391.5,599.08Zm178.44,0h-107a15.33,15.33,0,0,1-15.31-15.31V277a15.3,15.3,0,0,1,15.31-15.31h107A15.3,15.3,0,0,1,585.25,277V583.77A15.33,15.33,0,0,1,569.94,599.08Z"/><g class="cls-3"><rect class="cls-4" x="40.07" y="637" width="595.87" height="218"/></g><rect class="cls-5" y="166.5" width="670" height="40" rx="12"/><rect class="cls-5" x="620.5" y="191" width="40" height="664"/><rect class="cls-5" x="14.5" y="197" width="40" height="658"/><path class="cls-5" d="M659.5,170c0-93.89-144.61-170-323-170s-323,76.11-323,170"/><path class="cls-6" d="M630.5,169c0-81.19-130.29-147-291-147s-291,65.81-291,147"/><path class="cls-7" d="M616.5,160.49C616.5,88.4,492.48,30,339.5,30s-277,58.4-277,130.49"/><rect class="cls-7" x="54.5" y="209" width="566" height="11"/><rect class="cls-6" x="43.5" y="198" width="588" height="11" rx="4.61"/><rect class="cls-6" x="620.5" y="198" width="11" height="660" rx="4.49"/><rect class="cls-6" x="43.5" y="198" width="11" height="661" rx="4.49"/><rect class="cls-7" x="609.5" y="209" width="11" height="428"/><rect class="cls-7" x="54.5" y="209" width="11" height="428"/><path class="cls-2" d="M607.5,154.81c0-63.47-120.44-114.92-269-114.92s-269,51.45-269,114.92"/><g class="cls-8"><path class="cls-5" d="M500.13,117.2a18.38,18.38,0,1,1-18.38-18.38h0a18.36,18.36,0,0,1,18.37,18.35v0"/><path class="cls-9" d="M481.75,135.83a18.63,18.63,0,1,1,0-37.26h0a18.63,18.63,0,0,1,18.62,18.6v0A18.65,18.65,0,0,1,481.75,135.83Zm0-36.76h0a18.13,18.13,0,1,0,18.12,18.13v0A18.14,18.14,0,0,0,481.77,99.07Z"/><path class="cls-10" d="M497,117.2A15.23,15.23,0,1,1,481.74,102h0A15.23,15.23,0,0,1,497,117.2"/><path class="cls-9" d="M481.76,132.67a15.47,15.47,0,1,1,15.47-15.47A15.49,15.49,0,0,1,481.76,132.67Zm0-30.44a15,15,0,1,0,15,15A15,15,0,0,0,481.76,102.23Z"/><path class="cls-5" d="M493.43,117.2a11.68,11.68,0,1,1-11.68-11.68h0a11.66,11.66,0,0,1,11.67,11.65v0"/><path class="cls-9" d="M481.76,129.13a11.93,11.93,0,1,1,11.93-11.93A11.94,11.94,0,0,1,481.76,129.13Zm0-23.36a11.43,11.43,0,1,0,11.43,11.43A11.45,11.45,0,0,0,481.76,105.77Z"/><path class="cls-10" d="M489.8,117.2a8,8,0,1,1-8-8,8,8,0,0,1,8,8"/><path class="cls-9" d="M481.76,125.49a8.29,8.29,0,1,1,8.29-8.29A8.3,8.3,0,0,1,481.76,125.49Zm0-16.08a7.79,7.79,0,1,0,7.79,7.79A7.79,7.79,0,0,0,481.76,109.41Z"/><path class="cls-5" d="M485.68,117.2a3.93,3.93,0,1,1-3.93-3.93h0a3.93,3.93,0,0,1,3.92,3.93"/><path class="cls-9" d="M481.75,121.38a4.18,4.18,0,1,1,4.18-4.18A4.19,4.19,0,0,1,481.75,121.38Zm0-7.86a3.68,3.68,0,1,0,3.67,3.68A3.69,3.69,0,0,0,481.76,113.52Z"/><polygon class="cls-5" points="460.91 103.98 458.18 101.97 456.65 98.53 460.91 98.53 460.91 103.98"/><path class="cls-9" d="M461.16,104.47,458,102.13l-1.71-3.85h4.89Zm-2.78-2.66,2.28,1.68V98.78H457Z"/><polygon class="cls-5" points="460.91 104.18 457.94 102.54 454.18 102.59 455.95 106.46 460.91 104.18"/><path class="cls-9" d="M455.83,106.79l-2-4.45,4.21,0,3.46,1.91Zm-1.26-4,1.5,3.3,4.29-2-2.48-1.37Z"/><line class="cls-1" x1="459.41" y1="102.72" x2="459.11" y2="99.84"/><rect class="cls-9" x="459.01" y="99.83" width="0.5" height="2.9" transform="translate(-8.02 48.09) rotate(-5.94)"/><line class="cls-1" x1="459.16" y1="103.15" x2="456.27" y2="104.15"/><polygon class="cls-9" points="456.35 104.39 456.19 103.91 459.08 102.91 459.24 103.39 456.35 104.39"/><polygon class="cls-5" points="411.15 78.65 408.23 76.94 406.34 73.68 410.57 73.22 411.15 78.65"/><path class="cls-9" d="M411.45,79.12l-3.4-2,0-.05-2.08-3.6,4.86-.53Zm-3-2.36,2.44,1.42-.5-4.68-3.6.39Z"/><polygon class="cls-5" points="411.17 78.85 408.05 77.53 404.31 77.98 406.49 81.64 411.17 78.85"/><path class="cls-9" d="M406.4,82l-2.5-4.2,4.19-.51,3.63,1.54Zm-1.68-3.8,1.86,3.12,4-2.41L408,77.79Z"/><line class="cls-1" x1="409.53" y1="77.55" x2="408.92" y2="74.73"/><rect class="cls-9" x="408.98" y="74.7" width="0.5" height="2.89" transform="translate(-6.85 88.3) rotate(-12.21)"/><line class="cls-1" x1="409.32" y1="78.01" x2="406.56" y2="79.31"/><rect class="cls-9" x="406.41" y="78.41" width="3.05" height="0.5" transform="translate(5.36 181.27) rotate(-25.21)"/><polygon class="cls-5" points="343.42 64.78 340.07 64.26 337.12 61.91 340.9 59.94 343.42 64.78"/><path class="cls-9" d="M343.87,65.1l-3.9-.6-3.31-2.63L341,59.6ZM340.17,64l2.8.44-2.18-4.18L337.58,62Z"/><polygon class="cls-5" points="343.51 64.96 340.12 64.87 336.8 66.66 340.16 69.27 343.51 64.96"/><path class="cls-9" d="M340.2,69.62l-3.86-3,3.72-2,3.95.1Zm-2.94-2.92,2.86,2.22L343,65.2l-2.83-.08Z"/><line class="cls-1" x1="341.51" y1="64.35" x2="339.91" y2="61.95"/><rect class="cls-9" x="340.46" y="61.71" width="0.5" height="2.88" transform="translate(22.18 199.57) rotate(-33.68)"/><line class="cls-1" x1="341.48" y1="64.86" x2="339.38" y2="67.08"/><rect class="cls-9" x="338.9" y="65.72" width="3.06" height="0.5" transform="translate(58.53 267.9) rotate(-46.58)"/><polygon class="cls-5" points="286.56 69.96 283.21 70.5 279.68 69.18 282.67 66.14 286.56 69.96"/><path class="cls-9" d="M283.18,70.76l-3.95-1.48,3.44-3.49,4.42,4.34Zm-3.05-1.68,3.11,1.16,2.79-.45-3.36-3.3Z"/><polygon class="cls-5" points="286.7 70.1 283.45 71.07 280.84 73.79 284.85 75.23 286.7 70.1"/><path class="cls-9" d="M285,75.55l-4.61-1.65,2.93-3.05,3.78-1.13Zm-3.71-1.86,3.41,1.22,1.6-4.43-2.72.81Z"/><line class="cls-1" x1="284.61" y1="70.14" x2="282.35" y2="68.35"/><rect class="cls-9" x="283.23" y="67.8" width="0.5" height="2.88" transform="translate(53.18 248.46) rotate(-51.62)"/><line class="cls-1" x1="284.74" y1="70.63" x2="283.43" y2="73.39"/><rect class="cls-9" x="282.56" y="71.76" width="3.06" height="0.5" transform="translate(97.12 297.7) rotate(-64.58)"/><polygon class="cls-5" points="235.19 89.01 232.3 90.79 230.49 94.09 234.73 94.45 235.19 89.01"/><path class="cls-9" d="M235,94.72l-4.87-.41,2-3.7,3.37-2.07Zm-4.07-.85,3.61.31.4-4.7L232.49,91Z"/><polygon class="cls-5" points="235.02 88.92 231.93 90.3 228.17 89.93 230.27 86.23 235.02 88.92"/><path class="cls-9" d="M232,90.56l-4.21-.42,2.42-4.25L235.57,89Zm-3.39-.84,3.31.32,2.58-1.15-4.11-2.32Z"/><line class="cls-1" x1="233.18" y1="89.59" x2="230.53" y2="88.44"/><rect class="cls-9" x="231.6" y="87.57" width="0.5" height="2.89" transform="translate(57.91 266.28) rotate(-66.55)"/><line class="cls-1" x1="233.43" y1="90.04" x2="232.88" y2="93.03"/><rect class="cls-9" x="231.64" y="91.28" width="3.04" height="0.5" transform="translate(100.83 304.21) rotate(-79.55)"/></g><g class="cls-11"><path class="cls-5" d="M228.33,117.71l-2,6.67H205.67q1.52-3.85,2.36-6.67,4.65-15.34,6.6-22.76h8.91a119.64,119.64,0,0,0-7.68,22.85h2.42Q222.12,117.8,228.33,117.71Z"/><path class="cls-5" d="M251.62,110.7a38.29,38.29,0,0,1-.27,3.91H237.41a3.91,3.91,0,0,0-.19,1.28,2.15,2.15,0,0,0,1.09,1.86,3.72,3.72,0,0,0,2.15.66,5.12,5.12,0,0,0,3.89-2.08h6.08a14,14,0,0,1-4.73,6.11,12,12,0,0,1-7.3,2.42,7.61,7.61,0,0,1-5.66-2.13,7.72,7.72,0,0,1-2.12-5.7,13.73,13.73,0,0,1,4.11-9.64A12.58,12.58,0,0,1,244.1,103Q251.62,103,251.62,110.7Zm-5.44.56a2.62,2.62,0,0,0-3-2.69c-1.51,0-3,.9-4.39,2.69Z"/><path class="cls-5" d="M276.26,103.19q-2.5,7.13-4.4,13.16-.67,2.2-2.65,8.22a24.77,24.77,0,0,1-3.31,6.88,7.77,7.77,0,0,1-6.45,3.34q-4,0-10.08-6a11.75,11.75,0,0,0,4.78.7q5,0,7.45-5.92a9.46,9.46,0,0,1-4.18,1,6.21,6.21,0,0,1-5.1-2.25,8.18,8.18,0,0,1-1.72-5.41,14.65,14.65,0,0,1,3.34-9.3q3.57-4.52,8.48-4.52a6.37,6.37,0,0,1,4.71,1.67l.29-1.52ZM263.63,111a2.22,2.22,0,0,0-2.49-2.53A4.13,4.13,0,0,0,258,110a4.74,4.74,0,0,0-1.37,3.27,2.34,2.34,0,0,0,2.64,2.65,3.89,3.89,0,0,0,3.14-1.54A5.09,5.09,0,0,0,263.63,111Z"/><path class="cls-5" d="M293.73,110.51a14.72,14.72,0,0,1-3.67,10,12.22,12.22,0,0,1-9.55,4.37,7.57,7.57,0,0,1-5.67-2.14,7.77,7.77,0,0,1-2.11-5.71,13.73,13.73,0,0,1,4.12-9.62,12.61,12.61,0,0,1,9.37-4.35Q293.72,103,293.73,110.51Zm-5.53.47a2.22,2.22,0,0,0-2.49-2.53,4.13,4.13,0,0,0-3.13,1.5,4.74,4.74,0,0,0-1.37,3.27,2.34,2.34,0,0,0,2.64,2.65,3.89,3.89,0,0,0,3.14-1.54A5.09,5.09,0,0,0,288.2,111Z"/><path class="cls-5" d="M308.52,95a121.5,121.5,0,0,0-9,29.43h-8.86q3.69-9.57,9-29.43Z"/><path class="cls-5" d="M328.79,103.21a148.65,148.65,0,0,0-6.46,21.17h-8.09l.36-1.19a9.57,9.57,0,0,1-4.8,1.33,6.21,6.21,0,0,1-5.1-2.25,8.18,8.18,0,0,1-1.72-5.41,14.65,14.65,0,0,1,3.34-9.3q3.57-4.52,8.48-4.52a6,6,0,0,1,5.24,2.3l.65-2.13ZM317.7,111a2.22,2.22,0,0,0-2.49-2.53,4.09,4.09,0,0,0-3.12,1.5,4.76,4.76,0,0,0-1.35,3.27,2.33,2.33,0,0,0,2.63,2.65,3.92,3.92,0,0,0,3.14-1.54A5.13,5.13,0,0,0,317.7,111Z"/><path class="cls-5" d="M349,107.34a3.61,3.61,0,0,1-.92,2.45,2.93,2.93,0,0,1-2.32,1.06,6,6,0,0,1-2.85-.92,3.17,3.17,0,0,0,.92-1.81q0-1.14-1.62-1.14a1.87,1.87,0,0,0-2.13,2.1,3.93,3.93,0,0,0,1.69,2.71,22.76,22.76,0,0,1,3.14,3,8.32,8.32,0,0,1,1.72,5.29,7,7,0,0,1-3.41,5.87,11.5,11.5,0,0,1-6.71,2.13,13.58,13.58,0,0,1-6.7-1.69q-3.61-2-3.62-5.44a5.13,5.13,0,0,1,2.78-4.76,5.54,5.54,0,0,1,2.73-.82,6.92,6.92,0,0,1,3.89,1.4,2.56,2.56,0,0,0-1.52,2.49q0,2.37,2.58,2.37c2.18,0,3.26-.89,3.26-2.66a3.53,3.53,0,0,0-1.88-2.83l-3.5-2.36a5,5,0,0,1-1.86-3.92q0-6.85,9.22-6.86Q349,103,349,107.34Z"/><path class="cls-5" d="M374,93.64a130.32,130.32,0,0,0-15.34,30.74H347.36A38.35,38.35,0,0,0,350,110.24c0-.66,0-1.44-.07-2.34a59.36,59.36,0,0,0-.72-7.27,27,27,0,0,0-2.25-6.91c-1.76-3.63-3.83-5.44-6.23-5.44s-4,.5-4.74,1.5q3.53-7.05,10-7.06t9.23,8.7a46.41,46.41,0,0,1,1.83,14c0,2.21-.09,4.57-.29,7.08a100,100,0,0,0,7.45-18.85Z"/><path class="cls-5" d="M386.46,110.7a38.29,38.29,0,0,1-.27,3.91H372.25a3.91,3.91,0,0,0-.19,1.28,2.16,2.16,0,0,0,1.08,1.86,3.74,3.74,0,0,0,2.15.66,5.09,5.09,0,0,0,3.89-2.08h6.09a14,14,0,0,1-4.73,6.11,12.06,12.06,0,0,1-7.3,2.42,7.63,7.63,0,0,1-5.67-2.13,7.76,7.76,0,0,1-2.11-5.7,13.73,13.73,0,0,1,4.11-9.64,12.58,12.58,0,0,1,9.37-4.35Q386.46,103,386.46,110.7Zm-5.44.56a2.62,2.62,0,0,0-2.95-2.69q-2.26,0-4.4,2.69Z"/><path class="cls-5" d="M411.1,103.19q-2.52,7.13-4.4,13.16c-.45,1.47-1.33,4.21-2.66,8.22a24.49,24.49,0,0,1-3.31,6.88,7.77,7.77,0,0,1-6.45,3.34q-4,0-10.07-6a11.72,11.72,0,0,0,4.78.7q5,0,7.44-5.92a9.4,9.4,0,0,1-4.18,1,6.2,6.2,0,0,1-5.09-2.25,8.18,8.18,0,0,1-1.72-5.41,14.65,14.65,0,0,1,3.34-9.3q3.57-4.52,8.48-4.52a6.37,6.37,0,0,1,4.71,1.67l.29-1.52ZM398.46,111a2.22,2.22,0,0,0-2.48-2.53,4.13,4.13,0,0,0-3.13,1.5,4.74,4.74,0,0,0-1.37,3.27,2.34,2.34,0,0,0,2.64,2.65,3.89,3.89,0,0,0,3.14-1.54A5.08,5.08,0,0,0,398.46,111Z"/><path class="cls-5" d="M433.08,103.21a149.89,149.89,0,0,0-6.45,21.17h-8.09l.36-1.19a9.57,9.57,0,0,1-4.8,1.33,6.21,6.21,0,0,1-5.1-2.25,8.18,8.18,0,0,1-1.72-5.41,14.65,14.65,0,0,1,3.34-9.3q3.57-4.52,8.48-4.52a6,6,0,0,1,5.24,2.3l.65-2.13ZM422,111a2.22,2.22,0,0,0-2.49-2.53,4.09,4.09,0,0,0-3.12,1.5,4.76,4.76,0,0,0-1.35,3.27,2.33,2.33,0,0,0,2.63,2.65,3.92,3.92,0,0,0,3.14-1.54A5.13,5.13,0,0,0,422,111Z"/><path class="cls-5" d="M453.31,107.34a3.61,3.61,0,0,1-.92,2.45,2.93,2.93,0,0,1-2.32,1.06,6,6,0,0,1-2.85-.92,3.17,3.17,0,0,0,.92-1.81q0-1.14-1.62-1.14a1.87,1.87,0,0,0-2.13,2.1,3.93,3.93,0,0,0,1.69,2.71,22.76,22.76,0,0,1,3.14,3,8.32,8.32,0,0,1,1.72,5.29,7,7,0,0,1-3.41,5.87,11.5,11.5,0,0,1-6.71,2.13,13.58,13.58,0,0,1-6.7-1.69q-3.62-2-3.62-5.44a5.13,5.13,0,0,1,2.78-4.76,5.54,5.54,0,0,1,2.73-.82,7,7,0,0,1,3.89,1.4,2.56,2.56,0,0,0-1.52,2.49q0,2.37,2.58,2.37c2.18,0,3.26-.89,3.26-2.66a3.56,3.56,0,0,0-1.88-2.83l-3.51-2.36a5,5,0,0,1-1.86-3.92q0-6.85,9.23-6.86Q453.31,103,453.31,107.34Z"/></g><g class="cls-8"><path class="cls-9" d="M226.69,124.93H204.92l.28-.68c1-2.55,1.8-4.78,2.35-6.63,3-10.19,5.27-17.84,6.6-22.75l.1-.37h10.07l-.32.71a117.87,117.87,0,0,0-7.51,22.09h1.78c2.57,0,5.91,0,10,0H229Zm-20.3-1H226l1.7-5.67c-3.83,0-7,0-9.38,0h-3l.14-.61a119.45,119.45,0,0,1,7.4-22.19H215c-1.34,4.93-3.52,12.46-6.5,22.4C208,119.62,207.29,121.64,206.39,123.93Z"/><path class="cls-9" d="M238,125.33a8.13,8.13,0,0,1-5.61-2.28,8.26,8.26,0,0,1-2.27-6.08,14.16,14.16,0,0,1,4.26-10,13,13,0,0,1,9.71-4.49h0c5.32,0,8,2.75,8,8.16,0,1.33-.12,2.66-.27,4l-.06.44h-14a3.43,3.43,0,0,0-.07.78,1.7,1.7,0,0,0,.83,1.44,3.42,3.42,0,0,0,1.89.58h0a4.57,4.57,0,0,0,3.49-1.87l.15-.21h7.08l-.28.69A14.43,14.43,0,0,1,246,122.8a12.6,12.6,0,0,1-7.55,2.52H238Zm6.1-21.83a12.06,12.06,0,0,0-9,4.18,13.16,13.16,0,0,0-4,9.32,7.25,7.25,0,0,0,2,5.34,7.08,7.08,0,0,0,5.28,2,11.78,11.78,0,0,0,7-2.32,13.43,13.43,0,0,0,4.27-5.21h-5.08a5.56,5.56,0,0,1-4.12,2.08,4.46,4.46,0,0,1-2.45-.73,2.7,2.7,0,0,1-1.3-2.28,4.45,4.45,0,0,1,.21-1.44l.12-.35H250.9c.13-1.13.2-2.28.22-3.42C251.12,105.84,248.82,103.5,244.1,103.5Zm2.61,8.26h-8.9l.64-.81c1.5-1.91,3.11-2.88,4.78-2.88a3.11,3.11,0,0,1,3.47,2.64,2.73,2.73,0,0,1,0,.57Zm-6.77-1h5.75a2.13,2.13,0,0,0-2.39-1.7A4.77,4.77,0,0,0,239.94,110.76Z"/><path class="cls-9" d="M259.51,135.24c-2.91,0-6.32-2-10.49-6.15l-1.62-1.62,2.14.8a10.82,10.82,0,0,0,4.58.67h0c2.81,0,4.93-1.46,6.47-4.46a10.11,10.11,0,0,1-3.18.54,6.76,6.76,0,0,1-5.49-2.43,8.69,8.69,0,0,1-1.83-5.75,15.18,15.18,0,0,1,3.45-9.6c2.47-3.12,5.45-4.7,8.87-4.7a6.85,6.85,0,0,1,4.37,1.26l.22-1.11,10,0-.24.67c-1.66,4.75-3.14,9.17-4.39,13.14-.43,1.47-1.33,4.24-2.66,8.23a24.86,24.86,0,0,1-3.37,7A8.26,8.26,0,0,1,259.51,135.24Zm-8.36-5.48c3.3,3,6.13,4.49,8.36,4.48a7.25,7.25,0,0,0,6-3.13,24.32,24.32,0,0,0,3.24-6.73c1.33-4,2.22-6.75,2.65-8.22,1.2-3.8,2.6-8,4.17-12.52l-7.72,0-.38,2-.66-.61a5.92,5.92,0,0,0-4.34-1.54c-3.13,0-5.85,1.46-8.12,4.33a14.19,14.19,0,0,0-3.23,9,7.7,7.7,0,0,0,1.61,5.1A5.7,5.7,0,0,0,257.4,124a9.14,9.14,0,0,0,4-1l1.2-.6-.52,1.24c-1.73,4.13-4.38,6.23-7.89,6.23h0A12.05,12.05,0,0,1,251.15,129.76Zm7.75-13.36a2.84,2.84,0,0,1-2.76-2.45,3.06,3.06,0,0,1,0-.8,5.13,5.13,0,0,1,1.49-3.5,4.6,4.6,0,0,1,3.48-1.65,2.69,2.69,0,0,1,3,2.33,2.55,2.55,0,0,1,0,.78,5.42,5.42,0,0,1-1.29,3.53,4.34,4.34,0,0,1-3.54,1.73A2.22,2.22,0,0,1,258.9,116.4Zm2.53-7.42a.86.86,0,0,0-.23,0,3.62,3.62,0,0,0-2.81,1.32,4.24,4.24,0,0,0-1.25,2.91,2.29,2.29,0,0,0,0,.58,1.86,1.86,0,0,0,2.08,1.57h0A3.47,3.47,0,0,0,262,114l0,0a4.56,4.56,0,0,0,1.07-3,2.21,2.21,0,0,0,0-.57A1.71,1.71,0,0,0,261.43,109Z"/><path class="cls-9" d="M280.1,125.33a8.08,8.08,0,0,1-5.61-2.29,8.31,8.31,0,0,1-2.26-6.09,14.15,14.15,0,0,1,4.27-10,13.11,13.11,0,0,1,9.71-4.49h0c5.32,0,8,2.67,8,8a15.12,15.12,0,0,1-3.79,10.33,12.78,12.78,0,0,1-9.94,4.54Zm6.12-21.83a12.1,12.1,0,0,0-9,4.18,13.18,13.18,0,0,0-4,9.3,7.3,7.3,0,0,0,2,5.36,7.06,7.06,0,0,0,5.28,2,11.6,11.6,0,0,0,9.2-4.19,14.17,14.17,0,0,0,3.55-9.67C293.23,105.77,290.94,103.5,286.22,103.5Zm-2.74,12.9a2.84,2.84,0,0,1-2.76-2.45,3.57,3.57,0,0,1,0-.8,5.22,5.22,0,0,1,1.51-3.55,4.6,4.6,0,0,1,3.48-1.65,2.65,2.65,0,0,1,2,.55,2.68,2.68,0,0,1,1,1.8,2.55,2.55,0,0,1,0,.78,5.46,5.46,0,0,1-1.3,3.56,4.37,4.37,0,0,1-3.54,1.73A2.22,2.22,0,0,1,283.48,116.4Zm2.53-7.47-.23,0a3.61,3.61,0,0,0-2.8,1.32,4.22,4.22,0,0,0-1.26,3,2.28,2.28,0,0,0,0,.58,1.86,1.86,0,0,0,2.08,1.57h0A3.47,3.47,0,0,0,286.6,114l0,0a4.6,4.6,0,0,0,1.08-3,2.21,2.21,0,0,0,0-.57A1.71,1.71,0,0,0,286,108.93Z"/><path class="cls-9" d="M299.88,124.93h-10l.26-.68c2.47-6.34,5.49-16.22,9-29.38l.1-.37h10l-.31.71a120.71,120.71,0,0,0-9,29.3Zm-8.55-1H299a121.78,121.78,0,0,1,8.65-28.43H300C296.65,108.05,293.74,117.61,291.33,123.93Z"/><path class="cls-9" d="M309.48,125a6.76,6.76,0,0,1-5.17-2.44,8.81,8.81,0,0,1-1.83-5.75,15.18,15.18,0,0,1,3.45-9.6c2.47-3.12,5.45-4.7,8.87-4.7a6.86,6.86,0,0,1,5,1.78l.49-1.61h9.2l-.26.68a146.56,146.56,0,0,0-6.43,21.09l-.09.39h-9.18l.22-.7a10.08,10.08,0,0,1-4,.85Zm5.32-21.49c-3.1,0-5.82,1.46-8.09,4.33a14.19,14.19,0,0,0-3.23,9,7.71,7.71,0,0,0,1.62,5.1,5.66,5.66,0,0,0,4.67,2.06,9.14,9.14,0,0,0,4.58-1.26l1.1-.66-.53,1.77h7a147.73,147.73,0,0,1,6.12-20.16h-7l-.84,2.75-.59-.83C318.63,104.22,317.05,103.54,314.8,103.54ZM313,116.4a2.83,2.83,0,0,1-2.75-2.44,2.75,2.75,0,0,1,0-.81,5.12,5.12,0,0,1,1.48-3.55A4.55,4.55,0,0,1,315.2,108a2.64,2.64,0,0,1,2,.54,2.7,2.7,0,0,1,1,1.8,2.33,2.33,0,0,1,0,.79,5.5,5.5,0,0,1-1.29,3.56,4.42,4.42,0,0,1-3.51,1.73h0A2.43,2.43,0,0,1,313,116.4Zm2.52-7.47-.23,0a3.58,3.58,0,0,0-2.8,1.32,4.26,4.26,0,0,0-1.24,3,2.36,2.36,0,0,0,0,.59,1.84,1.84,0,0,0,2.07,1.56h0a3.5,3.5,0,0,0,2.8-1.35l0,0a4.64,4.64,0,0,0,1.07-3,2.29,2.29,0,0,0,0-.58,1.71,1.71,0,0,0-1.7-1.49Z"/><path class="cls-9" d="M336.37,128.58a14,14,0,0,1-6.78-1.75c-2.58-1.45-3.89-3.43-3.89-5.88a5.63,5.63,0,0,1,3.05-5.2,5.88,5.88,0,0,1,2.94-.88,7.35,7.35,0,0,1,4.21,1.5l.67.51-.77.35a2.08,2.08,0,0,0-1.22,2c0,1.32.64,1.9,2.08,1.9,2.45,0,2.76-1.15,2.76-2.16a3,3,0,0,0-1.61-2.39l-3.55-2.4a5.47,5.47,0,0,1-2.08-4.32,6.71,6.71,0,0,1,1.82-5c1.59-1.6,4.25-2.41,7.91-2.41,5,0,7.59,1.63,7.6,4.84a4.08,4.08,0,0,1-1.05,2.78,3.38,3.38,0,0,1-2.7,1.23,6.57,6.57,0,0,1-3.11-1l-.53-.34.45-.44a2.64,2.64,0,0,0,.77-1.53c0-.13,0-.56-1.12-.56a1.82,1.82,0,0,0-.46,0,1.36,1.36,0,0,0-1.17,1.54,3.39,3.39,0,0,0,1.48,2.36,25,25,0,0,1,3.24,3.09,8.94,8.94,0,0,1,1.83,5.63,7.46,7.46,0,0,1-3.64,6.29,11.72,11.72,0,0,1-7,2.2Zm-4.68-12.71a5.08,5.08,0,0,0-2.45.75,4.66,4.66,0,0,0-2.54,4.31c0,2.11,1.1,3.75,3.38,5a12.79,12.79,0,0,0,6.43,1.63,10.94,10.94,0,0,0,6.44-2,6.47,6.47,0,0,0,3.19-5.47,7.84,7.84,0,0,0-1.61-5,23.38,23.38,0,0,0-3-2.91,4.41,4.41,0,0,1-1.89-3,2.38,2.38,0,0,1,2-2.67,2.09,2.09,0,0,1,.66,0c1.83-.06,2,1.13,2,1.62a3.82,3.82,0,0,1-.65,1.68,5.38,5.38,0,0,0,2.11.56,2.58,2.58,0,0,0,1.91-.88,3.1,3.1,0,0,0,.8-2.12c0-1,0-3.85-6.6-3.85-3.38,0-5.81.71-7.21,2.11a5.8,5.8,0,0,0-1.52,4.25,4.48,4.48,0,0,0,1.67,3.52l3.47,2.35a4,4,0,0,1,2.1,3.2c0,1.48-.65,3.2-3.76,3.2-2,0-3.08-1-3.08-2.87a3.08,3.08,0,0,1,1.11-2.5A6.32,6.32,0,0,0,331.69,115.87Z"/><path class="cls-9" d="M359,124.87H346.67l.26-.68a37.65,37.65,0,0,0,2.58-14c0-.65,0-1.42-.08-2.31a59.83,59.83,0,0,0-.71-7.22,26.65,26.65,0,0,0-2.21-6.78c-1.61-3.42-3.55-5.15-5.78-5.15s-3.72.43-4.33,1.29l-.86-.51c2.45-4.87,6-7.34,10.45-7.34s7.79,3,9.71,9.05a46.8,46.8,0,0,1,1.85,14.16q0,2.23-.12,4.65a101.14,101.14,0,0,0,6.31-16.57l.1-.36h11.1l-.53.78a130.51,130.51,0,0,0-15.26,30.61Zm-10.92-1h10.2a131.43,131.43,0,0,1,14.74-29.73H364.6a100.91,100.91,0,0,1-7.39,18.58l-1.12,2.18.18-2.45c.19-2.45.28-4.82.28-7a45.69,45.69,0,0,0-1.81-13.86c-1.79-5.61-4.66-8.34-8.75-8.34-3.55,0-6.35,1.64-8.53,5a10.36,10.36,0,0,1,3.27-.43c2.65,0,4.89,1.92,6.68,5.72a27.25,27.25,0,0,1,2.29,7,60.41,60.41,0,0,1,.73,7.34c.05.9.08,1.69.08,2.36A38.47,38.47,0,0,1,348.12,123.87Z"/><path class="cls-9" d="M372.85,125.37a8.14,8.14,0,0,1-5.62-2.28A8.26,8.26,0,0,1,365,117a14.16,14.16,0,0,1,4.26-10,13,13,0,0,1,9.22-4.47v-.06h.5c5.32,0,8,2.76,8,8.2,0,1.33-.12,2.66-.27,4l-.06.44h-14a3.43,3.43,0,0,0-.07.78,1.71,1.71,0,0,0,.84,1.44,3.29,3.29,0,0,0,1.9.58,4.58,4.58,0,0,0,3.49-1.88l.15-.2H386l-.28.69a14.53,14.53,0,0,1-4.9,6.32,12.79,12.79,0,0,1-7.6,2.52Zm6.47-21.86-.37,0a12.07,12.07,0,0,0-9,4.18,13.16,13.16,0,0,0-4,9.32,7.21,7.21,0,0,0,2,5.34,7.07,7.07,0,0,0,5.28,2h.06a11.58,11.58,0,0,0,7-2.32,13.45,13.45,0,0,0,4.28-5.21h-5.08a5.59,5.59,0,0,1-4.12,2.08,4.31,4.31,0,0,1-2.45-.74,2.65,2.65,0,0,1-1.31-2.27,4.45,4.45,0,0,1,.21-1.44l.12-.35h13.85c.13-1.13.2-2.28.22-3.42C386,106,383.79,103.63,379.32,103.51Zm2.18,8.25h-8.85l.64-.81c1.51-1.91,3.13-2.88,4.79-2.88a3.1,3.1,0,0,1,3.42,2.72,2.64,2.64,0,0,1,0,.49Zm-6.72-1h5.7a2.12,2.12,0,0,0-2.34-1.69A4.64,4.64,0,0,0,374.78,110.76Z"/><path class="cls-9" d="M394.36,135.24h-.07c-2.88,0-6.3-2-10.43-6.15l-1.62-1.61,2.14.79a11.05,11.05,0,0,0,4.59.67h0c2.81,0,4.93-1.46,6.47-4.46a10.22,10.22,0,0,1-3.19.54,6.76,6.76,0,0,1-5.49-2.43,8.81,8.81,0,0,1-1.83-5.75,15.26,15.26,0,0,1,3.45-9.6c2.47-3.12,5.46-4.7,8.87-4.7a6.85,6.85,0,0,1,4.37,1.26l.22-1.11,10,0-.24.67c-1.67,4.76-3.14,9.18-4.38,13.14-.29.93-1.13,3.59-2.67,8.23a25.14,25.14,0,0,1-3.37,7A8.24,8.24,0,0,1,394.36,135.24ZM386,129.76c3.3,3,6.11,4.49,8.36,4.48a7.25,7.25,0,0,0,6-3.13,24.32,24.32,0,0,0,3.24-6.73c1.53-4.65,2.37-7.3,2.66-8.23,1.19-3.78,2.59-8,4.16-12.51l-7.72,0-.38,2-.66-.61a5.88,5.88,0,0,0-4.34-1.54c-3.12,0-5.84,1.46-8.12,4.33a14.25,14.25,0,0,0-3.23,9,7.71,7.71,0,0,0,1.62,5.1,5.68,5.68,0,0,0,4.67,2.06,9.15,9.15,0,0,0,4-1l1.2-.6-.52,1.24c-1.72,4.13-4.37,6.23-7.88,6.23h0A12.13,12.13,0,0,1,386,129.76Zm7.76-13.36A2.85,2.85,0,0,1,391,114a3.06,3.06,0,0,1,0-.8,5.16,5.16,0,0,1,1.5-3.55A4.6,4.6,0,0,1,396,108a2.69,2.69,0,0,1,2,.54,2.74,2.74,0,0,1,1,1.8,2.76,2.76,0,0,1,0,.76,5.45,5.45,0,0,1-1.31,3.59,4.39,4.39,0,0,1-3.53,1.73Zm2.53-7.47-.23,0a3.62,3.62,0,0,0-2.81,1.32,4.22,4.22,0,0,0-1.26,3,2.29,2.29,0,0,0,0,.58,1.86,1.86,0,0,0,2.08,1.57,3.38,3.38,0,0,0,2.81-1.35l0,0a4.65,4.65,0,0,0,1.09-3,2.22,2.22,0,0,0,0-.57,1.74,1.74,0,0,0-.66-1.14A1.72,1.72,0,0,0,396.28,108.93Z"/><path class="cls-9" d="M413.78,125a6.77,6.77,0,0,1-5.17-2.44,8.8,8.8,0,0,1-1.82-5.75,15.25,15.25,0,0,1,3.44-9.6c2.47-3.12,5.45-4.7,8.87-4.7a6.83,6.83,0,0,1,5,1.78l.5-1.61h9.19l-.26.68a149.13,149.13,0,0,0-6.43,21.09l-.09.39h-9.17l.22-.7a10.13,10.13,0,0,1-4,.85Zm5.32-21.49c-3.1,0-5.82,1.46-8.09,4.33a14.24,14.24,0,0,0-3.22,9,7.76,7.76,0,0,0,1.61,5.1,5.66,5.66,0,0,0,4.68,2.06,9.16,9.16,0,0,0,4.58-1.26l1.1-.65-.53,1.76h7a150.6,150.6,0,0,1,6.12-20.16h-7l-.85,2.75-.59-.83C422.94,104.22,421.35,103.54,419.1,103.54Zm-1.81,12.86a2.83,2.83,0,0,1-2.75-2.44,2.45,2.45,0,0,1,0-.81A5.14,5.14,0,0,1,416,109.6,4.58,4.58,0,0,1,419.5,108a2.71,2.71,0,0,1,3,2.34,2.33,2.33,0,0,1,0,.79,5.45,5.45,0,0,1-1.28,3.56,4.47,4.47,0,0,1-3.54,1.73A2.43,2.43,0,0,1,417.29,116.4Zm2.52-7.47-.23,0a3.58,3.58,0,0,0-2.8,1.32,4.26,4.26,0,0,0-1.24,3,2.36,2.36,0,0,0,0,.59,1.83,1.83,0,0,0,2.07,1.56h0a3.52,3.52,0,0,0,2.81-1.35l0,0a4.68,4.68,0,0,0,1.06-3,2,2,0,0,0,0-.59,1.71,1.71,0,0,0-1.7-1.49Z"/><path class="cls-9" d="M440.67,128.58a14,14,0,0,1-6.78-1.75c-2.58-1.45-3.89-3.43-3.89-5.88a5.63,5.63,0,0,1,3.05-5.2,5.91,5.91,0,0,1,2.94-.88,7.35,7.35,0,0,1,4.21,1.5l.67.51-.76.35a2.08,2.08,0,0,0-1.23,2c0,1.32.64,1.9,2.09,1.9,2.47,0,2.76-1.23,2.76-2.16a3.05,3.05,0,0,0-1.62-2.39l-3.55-2.4a5.47,5.47,0,0,1-2.08-4.32c0-4.88,3.28-7.36,9.73-7.36,5,0,7.6,1.63,7.6,4.84a4,4,0,0,1-1.05,2.79,3.45,3.45,0,0,1-2.69,1.22,6.46,6.46,0,0,1-3.12-1l-.53-.34.45-.44a2.59,2.59,0,0,0,.77-1.53c0-.13,0-.56-1.12-.56a2.35,2.35,0,0,0-.45,0,1.41,1.41,0,0,0-.91.53,1.35,1.35,0,0,0-.26,1,3.37,3.37,0,0,0,1.47,2.36,24.36,24.36,0,0,1,3.24,3.09,8.94,8.94,0,0,1,1.83,5.63,7.46,7.46,0,0,1-3.64,6.29,12,12,0,0,1-6.95,2.2ZM436,115.87a5.08,5.08,0,0,0-2.45.75,4.66,4.66,0,0,0-2.54,4.31c0,2.11,1.1,3.75,3.38,5a12.7,12.7,0,0,0,6.44,1.63h0a11,11,0,0,0,6.4-2,6.47,6.47,0,0,0,3.19-5.47,7.84,7.84,0,0,0-1.61-5,23.38,23.38,0,0,0-3.05-2.91,4.32,4.32,0,0,1-1.87-3,2.38,2.38,0,0,1,2.68-2.67h0c1.83,0,2,1.14,2,1.63a3.81,3.81,0,0,1-.64,1.68,5.34,5.34,0,0,0,2.11.56,2.4,2.4,0,0,0,1.89-.88,3.06,3.06,0,0,0,.81-2.12c0-1,0-3.85-6.6-3.85-5.87,0-8.72,2.08-8.73,6.36a4.48,4.48,0,0,0,1.67,3.52l3.47,2.35a4,4,0,0,1,2.11,3.2c0,1.48-.65,3.2-3.76,3.2-2,0-3.09-1-3.09-2.87a3.08,3.08,0,0,1,1.11-2.5A6.32,6.32,0,0,0,436,115.87Z"/><path class="cls-9" d="M476,113.93,448.5,97.29a216.22,216.22,0,0,0-208.91-9.9l-16.23,8-.44-.9,16.23-8A217.23,217.23,0,0,1,449,96.43l27.54,16.64Z"/><polygon points="476.13 109.47 472.55 114.91 481.76 117.07 476.13 109.47"/></g><circle class="cls-12" cx="609.05" cy="185.3" r="8.75"/><circle class="cls-13" cx="609.05" cy="185.3" r="2.95"/><circle class="cls-12" cx="645.05" cy="185.3" r="8.75"/><circle class="cls-13" cx="645.05" cy="185.3" r="2.95"/><circle class="cls-12" cx="567.05" cy="185.3" r="8.75"/><circle class="cls-13" cx="567.05" cy="185.3" r="2.95"/><circle class="cls-12" cx="525.05" cy="185.3" r="8.75"/><circle class="cls-13" cx="525.05" cy="185.3" r="2.95"/><circle class="cls-12" cx="483.05" cy="185.3" r="8.75"/><circle class="cls-13" cx="483.05" cy="185.3" r="2.95"/><circle class="cls-12" cx="441.05" cy="185.3" r="8.75"/><circle class="cls-13" cx="441.05" cy="185.3" r="2.95"/><circle class="cls-12" cx="399.05" cy="185.3" r="8.75"/><circle class="cls-13" cx="399.05" cy="185.3" r="2.95"/><circle class="cls-12" cx="357.05" cy="185.3" r="8.75"/><circle class="cls-13" cx="357.05" cy="185.3" r="2.95"/><circle class="cls-12" cx="315.05" cy="185.3" r="8.75"/><circle class="cls-13" cx="315.05" cy="185.3" r="2.95"/><circle class="cls-12" cx="273.05" cy="185.3" r="8.75"/><circle class="cls-13" cx="273.05" cy="185.3" r="2.95"/><circle class="cls-12" cx="231.05" cy="185.3" r="8.75"/><circle class="cls-13" cx="231.05" cy="185.3" r="2.95"/><circle class="cls-12" cx="189.05" cy="185.3" r="8.75"/><circle class="cls-13" cx="189.05" cy="185.3" r="2.95"/><circle class="cls-12" cx="147.05" cy="185.3" r="8.75"/><circle class="cls-13" cx="147.05" cy="185.3" r="2.95"/><circle class="cls-12" cx="105.05" cy="185.3" r="8.75"/><circle class="cls-13" cx="105.05" cy="185.3" r="2.95"/><circle class="cls-12" cx="63.05" cy="185.3" r="8.75"/><circle class="cls-13" cx="63.05" cy="185.3" r="2.95"/><circle class="cls-12" cx="645.05" cy="222.3" r="8.75"/><circle class="cls-13" cx="645.05" cy="222.3" r="2.95"/><circle class="cls-12" cx="645.05" cy="264.3" r="8.75"/><circle class="cls-13" cx="645.05" cy="264.3" r="2.95"/><circle class="cls-12" cx="645.05" cy="306.3" r="8.75"/><circle class="cls-13" cx="645.05" cy="306.3" r="2.95"/><circle class="cls-12" cx="645.05" cy="348.3" r="8.75"/><circle class="cls-13" cx="645.05" cy="348.3" r="2.95"/><circle class="cls-12" cx="645.05" cy="390.3" r="8.75"/><circle class="cls-13" cx="645.05" cy="390.3" r="2.95"/><circle class="cls-12" cx="645.05" cy="432.3" r="8.75"/><circle class="cls-13" cx="645.05" cy="432.3" r="2.95"/><circle class="cls-12" cx="645.05" cy="474.3" r="8.75"/><circle class="cls-13" cx="645.05" cy="474.3" r="2.95"/><circle class="cls-12" cx="645.05" cy="516.3" r="8.75"/><circle class="cls-13" cx="645.05" cy="516.3" r="2.95"/><circle class="cls-12" cx="645.05" cy="558.3" r="8.75"/><circle class="cls-13" cx="645.05" cy="558.3" r="2.95"/><circle class="cls-12" cx="645.05" cy="600.3" r="8.75"/><circle class="cls-13" cx="645.05" cy="600.3" r="2.95"/><circle class="cls-12" cx="645.05" cy="642.3" r="8.75"/><circle class="cls-13" cx="645.05" cy="642.3" r="2.95"/><circle class="cls-12" cx="645.05" cy="684.3" r="8.75"/><circle class="cls-13" cx="645.05" cy="684.3" r="2.95"/><circle class="cls-12" cx="645.05" cy="726.3" r="8.75"/><circle class="cls-13" cx="645.05" cy="726.3" r="2.95"/><circle class="cls-12" cx="645.05" cy="768.3" r="8.75"/><circle class="cls-13" cx="645.05" cy="768.3" r="2.95"/><circle class="cls-12" cx="645.05" cy="810.3" r="8.75"/><circle class="cls-13" cx="645.05" cy="810.3" r="2.95"/><circle class="cls-12" cx="29.05" cy="222.3" r="8.75"/><circle class="cls-13" cx="29.05" cy="222.3" r="2.95"/><circle class="cls-12" cx="29.05" cy="264.3" r="8.75"/><circle class="cls-13" cx="29.05" cy="264.3" r="2.95"/><circle class="cls-12" cx="29.05" cy="306.3" r="8.75"/><circle class="cls-13" cx="29.05" cy="306.3" r="2.95"/><circle class="cls-12" cx="29.05" cy="348.3" r="8.75"/><circle class="cls-13" cx="29.05" cy="348.3" r="2.95"/><circle class="cls-12" cx="29.05" cy="390.3" r="8.75"/><circle class="cls-13" cx="29.05" cy="390.3" r="2.95"/><circle class="cls-12" cx="29.05" cy="432.3" r="8.75"/><circle class="cls-13" cx="29.05" cy="432.3" r="2.95"/><circle class="cls-12" cx="29.05" cy="474.3" r="8.75"/><circle class="cls-13" cx="29.05" cy="474.3" r="2.95"/><circle class="cls-12" cx="29.05" cy="516.3" r="8.75"/><circle class="cls-13" cx="29.05" cy="516.3" r="2.95"/><circle class="cls-12" cx="29.05" cy="558.3" r="8.75"/><circle class="cls-13" cx="29.05" cy="558.3" r="2.95"/><circle class="cls-12" cx="29.05" cy="600.3" r="8.75"/><circle class="cls-13" cx="29.05" cy="600.3" r="2.95"/><circle class="cls-12" cx="29.05" cy="642.3" r="8.75"/><circle class="cls-13" cx="29.05" cy="642.3" r="2.95"/><circle class="cls-12" cx="29.05" cy="684.3" r="8.75"/><circle class="cls-13" cx="29.05" cy="684.3" r="2.95"/><circle class="cls-12" cx="29.05" cy="726.3" r="8.75"/><circle class="cls-13" cx="29.05" cy="726.3" r="2.95"/><circle class="cls-12" cx="29.05" cy="768.3" r="8.75"/><circle class="cls-13" cx="29.05" cy="768.3" r="2.95"/><circle class="cls-12" cx="29.05" cy="810.3" r="8.75"/><circle class="cls-13" cx="29.05" cy="810.3" r="2.95"/><circle class="cls-12" cx="29.05" cy="185.3" r="8.75"/><circle class="cls-13" cx="29.05" cy="185.3" r="2.95"/><circle class="cls-12" cx="39.05" cy="126.5" r="8.75"/><circle class="cls-13" cx="39.05" cy="126.5" r="2.95"/><circle class="cls-12" cx="82.05" cy="80.3" r="8.75"/><circle class="cls-13" cx="82.05" cy="80.3" r="2.95"/><circle class="cls-12" cx="139.05" cy="49.3" r="8.75"/><circle class="cls-13" cx="139.05" cy="49.3" r="2.95"/><circle class="cls-12" cx="197.05" cy="28.3" r="8.75"/><circle class="cls-13" cx="197.05" cy="28.3" r="2.95"/><circle class="cls-12" cx="262.05" cy="15.3" r="8.75"/><circle class="cls-13" cx="262.05" cy="15.3" r="2.95"/><circle class="cls-12" cx="337.05" cy="11.3" r="8.75"/><circle class="cls-13" cx="337.05" cy="11.3" r="2.95"/><circle class="cls-12" cx="407.05" cy="14.34" r="8.75"/><circle class="cls-13" cx="407.05" cy="14.34" r="2.95"/><circle class="cls-12" cx="473.3" cy="26.34" r="8.75"/><circle class="cls-13" cx="473.3" cy="26.34" r="2.95"/><circle class="cls-12" cx="538.05" cy="50.3" r="8.75"/><circle class="cls-13" cx="538.05" cy="50.3" r="2.95"/><circle class="cls-12" cx="592.05" cy="80.3" r="8.75"/><circle class="cls-13" cx="592.05" cy="80.3" r="2.95"/><circle class="cls-12" cx="633.05" cy="124.3" r="8.75"/><circle class="cls-13" cx="633.05" cy="124.3" r="2.95"/></svg>