<?xml version="1.0" encoding="utf-8"?>
<!-- Generator: Adobe Illustrator 24.0.0, SVG Export Plug-In . SVG Version: 6.00 Build 0)  -->
<svg version="1.1" id="Layer_1" xmlns="http://www.w3.org/2000/svg" xmlns:xlink="http://www.w3.org/1999/xlink" x="0px" y="0px" viewBox="0 0 670 854.6" style="enable-background:new 0 0 670 854.6;" xml:space="preserve">
    <style type="text/css">
        .st0 {
            fill: #FFFFFF;
        }

        .st1 {
            fill: #007219;
        }

        .st3 {
            fill: #160B05;
        }

        .st4 {
            fill: #9C141E;
        }

        .st5 {
            fill: #030305;
        }

        .st6 {
            fill: #FFB100;
        }

        .st7 {
            fill: #FFB100;
        }

        .st8 {
            fill: #DDB300;
            fill-opacity: 0.23;
        }

        .st9 {
            enable-background: new;
        }

        .st10 {
            font-family: 'PressStart2P-Regular';
        }

        .st11 {
            font-size: 21.32px;
        }

        .st12 {
            display: none;
        }

        .st13 {
            display: inline;
        }

        .st14 {
            fill: #f5fffa;
            stroke: #000000;
            stroke-width: 1.5;
            stroke-miterlimit: 10;
        }

        .st15 {
            fill: #FFB100;
            stroke: #000000;
            stroke-width: 1.5;
            stroke-miterlimit: 10;
        }

        .st16 {
            fill: #FFB100;
            stroke: #000000;
            stroke-width: 0.5;
            stroke-miterlimit: 10;
        }

        .st17 {
            fill: #FFFFFF;
            stroke: #000000;
            stroke-width: 0.5;
            stroke-miterlimit: 10;
        }

        .st18 {
            fill: none;
            stroke: #000000;
            stroke-width: 0.5;
            stroke-miterlimit: 10;
        }

        .st19 {
            fill: #f5fffa;
            stroke: #000000;
            stroke-width: 0.5;
            stroke-miterlimit: 10;
        }

        .st20 {
            fill: none;
            stroke: #000000;
            stroke-miterlimit: 10;
        }

    </style>
    <rect id="spinner1" x="87" y="261.3" class="st0" width="137.6" height="339" />
    <rect id="spinner2" x="269.2" y="261.3" class="st0" width="137.6" height="339" />
    <rect id="spinner3" x="447.4" y="261.3" class="st0" width="137.6" height="339" />
    <title></title>
    <path class="st1" d="M46.5,173.3v666.4c0,8.4,6.8,15.3,15.3,15.3l0,0h552.4c8.4,0,15.3-6.8,15.3-15.3V173.3
	c0-8.4-6.8-15.3-15.3-15.3H61.8C53.4,158,46.5,164.8,46.5,173.3L46.5,173.3L46.5,173.3L46.5,173.3z M209.3,599.1h-107
	c-8.4,0-15.3-6.9-15.3-15.3V277c0-8.4,6.8-15.3,15.3-15.3l0,0h107c8.4,0,15.3,6.9,15.3,15.3v306.8
	C224.6,592.2,217.7,599.1,209.3,599.1z M391.5,599.1h-107c-8.4,0-15.3-6.8-15.3-15.3V277c0-8.4,6.8-15.3,15.3-15.3l0,0h107
	c8.4,0,15.3,6.8,15.3,15.3l0,0v306.8C406.8,592.2,400,599.1,391.5,599.1L391.5,599.1L391.5,599.1z M569.9,599.1h-107
	c-8.5,0-15.3-6.9-15.3-15.3V277c0-8.4,6.8-15.3,15.3-15.3l0,0h107c8.4,0,15.3,6.8,15.3,15.3l0,0v306.8
	C585.2,592.2,578.4,599.1,569.9,599.1z" />
    <g class="st2">
        <rect x="40.1" y="637" class="st3" width="595.9" height="218" />
    </g>
    <path class="st4" d="M12,166.5h646c6.6,0,12,5.4,12,12v16c0,6.6-5.4,12-12,12H12c-6.6,0-12-5.4-12-12v-16
	C0,171.9,5.4,166.5,12,166.5z" />
    <rect x="620.5" y="191" class="st4" width="40" height="664" />
    <rect x="14.5" y="197" class="st4" width="40" height="658" />
    <path class="st4" d="M659.5,170c0-93.9-144.6-170-323-170s-323,76.1-323,170" />
    <path class="st5" d="M630.5,169c0-81.2-130.3-147-291-147s-291,65.8-291,147" />
    <path class="st6" d="M616.5,160.5c0-72.1-124-130.5-277-130.5s-277,58.4-277,130.5" />
    <rect x="54.5" y="209" class="st6" width="566" height="11" />
    <path class="st5" d="M48.1,198h578.8c2.5,0,4.6,2.1,4.6,4.6v1.8c0,2.5-2.1,4.6-4.6,4.6H48.1c-2.5,0-4.6-2.1-4.6-4.6v-1.8
	C43.5,200.1,45.6,198,48.1,198z" />
    <path class="st5" d="M625,198h2c2.5,0,4.5,2,4.5,4.5v651c0,2.5-2,4.5-4.5,4.5h-2c-2.5,0-4.5-2-4.5-4.5v-651
	C620.5,200,622.5,198,625,198z" />
    <path class="st5" d="M48,198h2c2.5,0,4.5,2,4.5,4.5v652c0,2.5-2,4.5-4.5,4.5h-2c-2.5,0-4.5-2-4.5-4.5v-652C43.5,200,45.5,198,48,198
	z" />
    <rect x="609.5" y="209" class="st6" width="11" height="428" />
    <rect x="54.5" y="209" class="st6" width="11" height="428" />
    <path class="st1" d="M607.5,154.8c0-63.5-120.4-114.9-269-114.9s-269,51.4-269,114.9" />
    <g id="allLights">
        <g id="top-light">
            <circle class="st7 light1" cx="645" cy="185.3" r="8.8" />
            <circle class="st8" cx="645" cy="185.3" r="3" />
            <circle class="st7 light2" cx="609" cy="185.3" r="8.8" />
            <circle class="st8" cx="609" cy="185.3" r="3" />
            <circle class="st7 light1" cx="567" cy="185.3" r="8.8" />
            <circle class="st8" cx="567" cy="185.3" r="3" />
            <circle class="st7 light2" cx="525" cy="185.3" r="8.8" />
            <circle class="st8" cx="525" cy="185.3" r="3" />
            <circle class="st7 light1" cx="483" cy="185.3" r="8.8" />
            <circle class="st8" cx="483" cy="185.3" r="3" />
            <circle class="st7 light2" cx="441" cy="185.3" r="8.8" />
            <circle class="st8" cx="441" cy="185.3" r="3" />
            <circle class="st7 light1" cx="399" cy="185.3" r="8.8" />
            <circle class="st8" cx="399" cy="185.3" r="3" />
            <circle class="st7 light2" cx="357" cy="185.3" r="8.8" />
            <circle class="st8" cx="357" cy="185.3" r="3" />
            <circle class="st7 light1" cx="315" cy="185.3" r="8.8" />
            <circle class="st8" cx="315" cy="185.3" r="3" />
            <circle class="st7 light2" cx="273" cy="185.3" r="8.8" />
            <circle class="st8" cx="273" cy="185.3" r="3" />
            <circle class="st7 light1" cx="231.1" cy="185.3" r="8.8" />
            <circle class="st8" cx="231.1" cy="185.3" r="2.9" />
            <circle class="st7 light2" cx="189.1" cy="185.3" r="8.8" />
            <circle class="st8" cx="189.1" cy="185.3" r="2.9" />
            <circle class="st7 light1" cx="147.1" cy="185.3" r="8.8" />
            <circle class="st8" cx="147.1" cy="185.3" r="2.9" />
            <circle class="st7 light2" cx="105.1" cy="185.3" r="8.8" />
            <circle class="st8" cx="105.1" cy="185.3" r="2.9" />
            <circle class="st7 light1" cx="63" cy="185.3" r="8.8" />
            <circle class="st8" cx="63" cy="185.3" r="2.9" />
            <circle class="st7 light2" cx="29" cy="185.3" r="8.8" />
            <circle class="st8" cx="29" cy="185.3" r="2.9" />
            <g id="right-light">
                <circle class="st7 light2" cx="645" cy="222.3" r="8.8" />
                <circle class="st8" cx="645" cy="222.3" r="3" />
                <circle class="st7 light1" cx="645" cy="264.3" r="8.8" />
                <circle class="st8" cx="645" cy="264.3" r="3" />
                <circle class="st7 light2" cx="645" cy="306.3" r="8.8" />
                <circle class="st8" cx="645" cy="306.3" r="3" />
                <circle class="st7 light1" cx="645" cy="348.3" r="8.8" />
                <circle class="st8" cx="645" cy="348.3" r="3" />
                <circle class="st7 light2" cx="645" cy="390.3" r="8.8" />
                <circle class="st8" cx="645" cy="390.3" r="3" />
                <circle class="st7 light1" cx="645" cy="432.3" r="8.8" />
                <circle class="st8" cx="645" cy="432.3" r="3" />
                <circle class="st7 light2" cx="645" cy="474.3" r="8.8" />
                <circle class="st8" cx="645" cy="474.3" r="3" />
                <circle class="st7 light1" cx="645" cy="516.3" r="8.8" />
                <circle class="st8" cx="645" cy="516.3" r="3" />
                <circle class="st7 light2" cx="645" cy="558.3" r="8.8" />
                <circle class="st8" cx="645" cy="558.3" r="3" />
                <circle class="st7 light1" cx="645" cy="600.3" r="8.8" />
                <circle class="st8" cx="645" cy="600.3" r="3" />
                <circle class="st7 light2" cx="645" cy="642.3" r="8.8" />
                <circle class="st8" cx="645" cy="642.3" r="3" />
                <circle class="st7 light1" cx="645" cy="684.3" r="8.8" />
                <circle class="st8" cx="645" cy="684.3" r="3" />
                <circle class="st7 light2" cx="645" cy="726.3" r="8.8" />
                <circle class="st8" cx="645" cy="726.3" r="3" />
                <circle class="st7 light1" cx="645" cy="768.3" r="8.8" />
                <circle class="st8" cx="645" cy="768.3" r="3" />
                <circle class="st7 light2" cx="645" cy="810.3" r="8.8" />
                <circle class="st8" cx="645" cy="810.3" r="3" />
            </g>
            <g id="left-light">
                <circle class="st7 light1" cx="29" cy="222.3" r="8.8" />
                <circle class="st8" cx="29" cy="222.3" r="2.9" />
                <circle class="st7 light2" cx="29" cy="264.3" r="8.8" />
                <circle class="st8" cx="29" cy="264.3" r="3" />
                <circle class="st7 light1" cx="29" cy="306.3" r="8.8" />
                <circle class="st8" cx="29" cy="306.3" r="3" />
                <circle class="st7 light2" cx="29" cy="348.3" r="8.8" />
                <circle class="st8" cx="29" cy="348.3" r="3" />
                <circle class="st7 light1" cx="29" cy="390.3" r="8.8" />
                <circle class="st8" cx="29" cy="390.3" r="3" />
                <circle class="st7 light2" cx="29" cy="432.3" r="8.8" />
                <circle class="st8" cx="29" cy="432.3" r="3" />
                <circle class="st7 light1" cx="29" cy="474.3" r="8.8" />
                <circle class="st8" cx="29" cy="474.3" r="3" />
                <circle class="st7 light2" cx="29" cy="516.3" r="8.8" />
                <circle class="st8" cx="29" cy="516.3" r="3" />
                <circle class="st7 light1" cx="29" cy="558.3" r="8.8" />
                <circle class="st8" cx="29" cy="558.3" r="3" />
                <circle class="st7 light2" cx="29" cy="600.3" r="8.8" />
                <circle class="st8" cx="29" cy="600.3" r="3" />
                <circle class="st7 light1" cx="29" cy="642.3" r="8.8" />
                <circle class="st8" cx="29" cy="642.3" r="3" />
                <circle class="st7 light2" cx="29" cy="684.3" r="8.8" />
                <circle class="st8" cx="29" cy="684.3" r="3" />
                <circle class="st7 light1" cx="29" cy="726.3" r="8.8" />
                <circle class="st8" cx="29" cy="726.3" r="3" />
                <circle class="st7 light2" cx="29" cy="768.3" r="8.8" />
                <circle class="st8" cx="29" cy="768.3" r="3" />
                <circle class="st7 light1" cx="29" cy="810.3" r="8.8" />
                <circle class="st8" cx="29" cy="810.3" r="3" />
            </g>
            <g id="bow-light">
                <circle class="st7 light1" cx="39" cy="126.5" r="8.8" />
                <circle class="st8" cx="39" cy="126.5" r="2.9" />
                <circle class="st7 light2" cx="82.1" cy="80.3" r="8.8" />
                <circle class="st8" cx="82.1" cy="80.3" r="2.9" />
                <circle class="st7 light1" cx="139.1" cy="49.3" r="8.8" />
                <circle class="st8" cx="139.1" cy="49.3" r="2.9" />
                <circle class="st7 light2" cx="197.1" cy="28.3" r="8.8" />
                <circle class="st8" cx="197.1" cy="28.3" r="2.9" />
                <ellipse transform="matrix(0.7423 -0.6701 0.6701 0.7423 57.2766 179.5064)" class="st7 light1" cx="262" cy="15.3" rx="8.8" ry="8.8" />
                <circle class="st8" cx="262" cy="15.3" r="3" />
                <circle class="st7 light2" cx="337" cy="11.3" r="8.8" />
                <circle class="st8" cx="337" cy="11.3" r="3" />
                <circle class="st7 light1" cx="407" cy="14.3" r="8.8" />
                <circle class="st8" cx="407" cy="14.3" r="3" />
                <circle class="st7 light2" cx="473.3" cy="26.3" r="8.8" />
                <circle class="st8" cx="473.3" cy="26.3" r="3" />
                <circle class="st7 light1" cx="538" cy="50.3" r="8.8" />
                <circle class="st8" cx="538" cy="50.3" r="3" />
                <circle class="st7 light2" cx="592" cy="80.3" r="8.8" />
                <circle class="st8" cx="592" cy="80.3" r="3" />
                <circle class="st7 light1" cx="633" cy="124.3" r="8.8" />
                <circle class="st8" cx="633" cy="124.3" r="3" />
            </g>
        </g>

        <path id="hold1" class="st4 hold" d="M107.8,660.5h96.1c4.4,0,7.9,3.5,7.9,7.9v37.8c0,4.4-3.5,7.9-7.9,7.9h-96.1c-4.4,0-7.9-3.5-7.9-7.9v-37.8
		C99.9,664,103.4,660.5,107.8,660.5z" />
        <path class="st0" d="M140.2,675.3c-3.2,7.1-5.5,14.6-6.8,22.2h-6.7c0.9-2.3,1.9-5.2,3-8.8c-1.1,0-2.1,0-3.1,0c-0.8,0-1.5,0-2.2,0
		c-0.8,2.8-1.5,5.8-2,8.8h-6.7c1.9-4.8,4.1-12.2,6.8-22.2h6.7c-1.3,2.8-2.4,5.7-3.4,8.7c0.7,0,1.5,0,2.3,0c1,0,2,0,3.1-0.1
		c0.7-2.6,1.5-5.5,2.4-8.6L140.2,675.3z" />
        <path class="st0" d="M158.3,683.1c0,4-1.3,7.9-3.7,11c-2.7,3.5-6,5.3-10,5.3c-2.3,0.1-4.6-0.9-6.1-2.7c-1.4-1.8-2.1-4.1-2-6.4
		c0.1-3.9,1.6-7.7,4.2-10.7c2.9-3.6,6.2-5.4,9.8-5.4C155.7,674.3,158.3,677.2,158.3,683.1z M153,684.1c0-2.7-1.2-4.1-3.6-4.1
		c-1.3,0.1-2.5,0.6-3.4,1.5c-2.2,1.8-3.6,4.5-3.6,7.4c0,1,0.3,2,0.9,2.8c0.7,0.8,1.6,1.2,2.6,1.1c1.8,0,3.5-1,5-3
		C152.3,688.2,153,686.2,153,684.1L153,684.1z" />
        <path class="st0" d="M175.2,691.1l-1.4,4.6h-14.4c0.7-1.8,1.2-3.3,1.6-4.6c2.1-7.1,3.7-12.4,4.6-15.8h6.2
		c-2.3,5.1-4.1,10.4-5.3,15.9h1.7C170,691.1,172.3,691.1,175.2,691.1z" />
        <path class="st0" d="M195.8,682.5c-0.1,2.6-0.6,5.3-1.5,7.8c-1.7,4.8-6.2,7.2-13.6,7.2c-2,0-3.9-0.1-5.8-0.4
		c2.9-7,5.1-14.3,6.5-21.8h7.8c0.6,0.1,1.1,0.2,1.7,0.4c2.9,0.8,4.5,2.5,4.8,5.2C195.8,681.4,195.8,681.9,195.8,682.5z M190.1,683
		c0-2.2-1-3.3-2.9-3.3h-0.5l-3.5,11.8c0.4,0.1,0.8,0.1,1.2,0.1c1.7,0,3.2-1,4.3-3.1C189.6,686.8,190.1,684.9,190.1,683L190.1,683z" />


        <path id="hold2" class="st4 hold" d="M290,660.5h96c4.4,0,7.9,3.5,7.9,7.9v37.8c0,4.4-3.5,7.9-7.9,7.9h-96c-4.4,0-7.9-3.5-7.9-7.9v-37.8
		C282.1,664,285.6,660.5,290,660.5z" />
        <path class="st0" d="M322.4,675.3c-3.2,7.1-5.5,14.6-6.8,22.2h-6.7c0.9-2.3,1.9-5.2,3-8.8c-1.1,0-2.1,0-3.1,0c-0.8,0-1.5,0-2.2,0
		c-0.8,2.8-1.5,5.8-2,8.8h-6.7c1.9-4.8,4.1-12.2,6.8-22.2h6.7c-1.3,2.8-2.4,5.7-3.4,8.7c0.7,0,1.5,0,2.3,0c1,0,2,0,3.1-0.1
		c0.7-2.6,1.5-5.5,2.4-8.6L322.4,675.3z" />
        <path class="st0" d="M340.5,683.1c0,4-1.3,7.9-3.7,11c-2.7,3.5-6,5.3-10,5.3c-2.3,0.1-4.6-0.9-6.1-2.7c-1.4-1.8-2.1-4.1-2-6.4
		c0.1-3.9,1.6-7.7,4.2-10.7c2.9-3.6,6.2-5.4,9.8-5.4C337.9,674.3,340.5,677.2,340.5,683.1z M335.2,684.1c0-2.7-1.2-4.1-3.6-4.1
		c-1.3,0.1-2.5,0.6-3.4,1.5c-2.3,1.8-3.6,4.5-3.6,7.4c0,1,0.3,2,0.9,2.8c0.7,0.8,1.6,1.2,2.6,1.1c1.8,0,3.5-1,5-3
		C334.5,688.2,335.2,686.2,335.2,684.1L335.2,684.1z" />
        <path class="st0" d="M355.6,692.5l-1.5,5h-15.6c0.8-1.9,1.4-3.6,1.8-5c2.3-7.7,4-13.5,5-17.2h6.7c-2.5,5.5-4.5,11.3-5.8,17.3h1.8
		C349.9,692.5,352.5,692.5,355.6,692.5z" />
        <path class="st0" d="M378,683.1c-0.1,2.9-0.6,5.7-1.6,8.4c-1.8,5.2-6.8,7.9-14.8,7.9c-2.1,0-4.2-0.2-6.3-0.4
		c3.2-7.6,5.5-15.6,7.1-23.7h8.5c0.6,0.1,1.2,0.2,1.8,0.4c3.1,0.9,4.9,2.8,5.2,5.6C378,681.9,378,682.5,378,683.1z M371.8,683.7
		c0-2.4-1.1-3.6-3.2-3.6h-0.5l-3.9,12.8c0.4,0.1,0.9,0.2,1.4,0.2c1.9,0,3.5-1.1,4.7-3.4C371.3,687.8,371.8,685.8,371.8,683.7
		L371.8,683.7z" />


        <path id="hold3" class="st4 hold" d="M468.4,660.5h96.1c4.4,0,7.9,3.5,7.9,7.9v37.8c0,4.4-3.5,7.9-7.9,7.9h-96.1c-4.4,0-7.9-3.5-7.9-7.9v-37.8
		C460.5,664,464.1,660.5,468.4,660.5z" />
        <path class="st0" d="M500.8,675.3c-3.2,7.1-5.5,14.6-6.8,22.2h-6.7c0.9-2.3,1.9-5.2,3-8.8c-1.1,0-2.1,0-3.1,0c-0.8,0-1.5,0-2.2,0
		c-0.8,2.8-1.5,5.8-2,8.8h-6.7c1.9-4.8,4.1-12.2,6.8-22.2h6.7c-1.3,2.8-2.4,5.7-3.4,8.7c0.7,0,1.5,0,2.3,0c1,0,2,0,3.1-0.1
		c0.7-2.6,1.5-5.5,2.4-8.6L500.8,675.3z" />
        <path class="st0" d="M518.9,683.1c0,4-1.3,7.9-3.7,11c-2.7,3.5-6,5.3-10,5.3c-2.3,0.1-4.6-0.9-6.1-2.7c-1.4-1.8-2.1-4.1-2-6.4
		c0.1-3.9,1.6-7.7,4.2-10.7c2.9-3.6,6.2-5.4,9.8-5.4C516.3,674.3,518.9,677.2,518.9,683.1z M513.7,684.1c0-2.7-1.2-4.1-3.6-4.1
		c-1.3,0.1-2.5,0.6-3.4,1.5c-2.2,1.8-3.6,4.5-3.6,7.4c0,1,0.3,2,0.9,2.8c0.7,0.8,1.6,1.2,2.6,1.1c1.9,0,3.5-1,5-3
		C512.9,688.2,513.6,686.2,513.7,684.1L513.7,684.1z" />
        <path class="st0" d="M534,692.5l-1.5,5h-15.6c0.8-1.9,1.4-3.6,1.8-5c2.3-7.7,4-13.5,5-17.2h6.7c-2.5,5.5-4.5,11.3-5.8,17.3h1.8
		C528.4,692.5,530.9,692.5,534,692.5z" />
        <path class="st0" d="M556.5,683.1c-0.1,2.9-0.6,5.7-1.6,8.4c-1.8,5.2-6.8,7.9-14.8,7.9c-2.1,0-4.2-0.2-6.3-0.4
		c3.2-7.6,5.5-15.6,7.1-23.7h8.5c0.6,0.1,1.2,0.2,1.8,0.4c3.1,0.9,4.9,2.8,5.3,5.6C556.5,681.9,556.5,682.5,556.5,683.1z
		 M550.3,683.7c0-2.4-1.1-3.6-3.2-3.6h-0.5l-3.8,12.8c0.4,0.1,0.9,0.2,1.3,0.2c1.9,0,3.5-1.1,4.7-3.4
		C549.8,687.8,550.3,685.8,550.3,683.7z" />

        <g id="spin">
            <path class="st4" d="M464.4,765.3h104.2c9.2,0,16.7,7.5,16.7,16.7v32.5c0,9.2-7.5,16.7-16.7,16.7H464.4c-9.2,0-16.7-7.5-16.7-16.7
		V782C447.6,772.8,455.1,765.3,464.4,765.3z" />
            <g class="st9">
                <path class="st0" d="M491.2,789.1c0,1-0.3,1.9-0.9,2.6c-0.7,0.8-1.5,1.2-2.5,1.2c-0.9,0-1.9-0.3-3-1c0.8-0.8,1.1-1.5,1.1-2.1
			c0-0.4-0.2-0.8-0.6-1.1s-0.8-0.4-1.3-0.4c-1.7,0-2.5,0.9-2.5,2.7c0,1.2,0.6,2.4,1.9,3.5l3.5,3.1c1.2,1.5,1.9,3.3,1.9,5.5
			c0,2.5-1.2,4.6-3.6,6.3c-2.2,1.6-4.6,2.4-7.2,2.4c-2.7,0-5.1-0.6-7.1-1.7c-1.1-0.6-2-1.5-2.6-2.6c-0.7-1.1-1-2.3-1-3.5
			c0-2.4,1-4.1,2.9-5.3c1-0.6,1.9-0.9,2.8-0.9c1.3,0,2.6,0.5,4.1,1.5c-1.4,0.6-2.1,1.6-2.1,2.9c0,1.8,1.2,2.8,3.5,2.8s3.4-1,3.4-3.1
			c0-1.3-0.6-2.5-1.8-3.7l-3.4-3c-1.2-1.4-1.8-2.9-1.8-4.7c0-4.3,3-6.4,9-6.4C488.7,784.3,491.2,785.9,491.2,789.1z" />
                <path class="st0" d="M512.2,793.5c0,0.9-0.2,1.8-0.5,2.7c-1.8,4.8-5,7.1-9.5,7.1c-2.5,0-4.2-0.4-5.1-1.2l-2.3,7.7h-7.9
			c3.3-7.7,5.8-15.8,7.4-24.4h9.3c4.2,0,6.8,1.3,7.8,4C511.9,790.9,512.2,792.2,512.2,793.5z M504.9,793c0-1.6-1-2.4-3-2.4
			c-0.4,0-0.8,0-1.3,0.1l-2,6.5c0.9,0.3,1.7,0.4,2.4,0.4c1.2,0,2.2-0.5,3-1.4C504.6,795.3,504.9,794.3,504.9,793z" />
                <path class="st0" d="M532.4,785.4l-1.7,5.6c-1.6-0.1-3.1-0.1-4.7-0.2c-1.7,4.3-3,8.9-4.1,13.6c1.6,0,3.1-0.1,4.8-0.1l-1.7,5.5
			h-15.8l1.7-5.5c1.5,0.1,3,0.1,4.5,0.1c1.2-3.7,2.6-8.3,4.1-13.6c-1.5,0-3.1,0.1-4.6,0.2l1.7-5.6H532.4z" />
                <path class="st0" d="M556.2,784.3c-3.4,7.9-6,16.4-7.8,25.5h-8.2l-2-15.9c-1.8,5.6-3.1,10.9-4,15.9h-7.7
			c2.1-5.5,4.7-14.1,7.8-25.5h7.2h2.2v1.4c-0.1,4.3,0.3,9.3,1.2,14.9c1.4-4.5,2.9-9.9,4.6-16.3L556.2,784.3L556.2,784.3z" />
                <path class="st0" d="M560.6,804.9c-0.5,1.4-1,3.1-1.5,5h-7.5c0.7-2,1.3-3.6,1.5-5H560.6z M566.6,785.4c-2.2,5.6-4.1,11.2-5.7,16.8
			h-6.7c1.4-5.6,2.4-11.2,3.2-16.8H566.6z" />
            </g>
        </g>
        <path class="st1" d="M110.3,785.4h91c5.7,0,10.4,4.7,10.4,10.4v25.1c0,5.7-4.7,10.4-10.4,10.4h-91c-5.7,0-10.4-4.7-10.4-10.4v-25.1
	C99.9,790.1,104.5,785.4,110.3,785.4z" />
        <text id="score" transform="matrix(1 0 0 1 123.8 820.48)" class="st7 st10 st11">000</text>
        <path class="st1" d="M295,785.4h91c5.7,0,10.4,4.7,10.4,10.4v25.1c0,5.7-4.7,10.4-10.4,10.4h-91c-5.7,0-10.4-4.7-10.4-10.4v-25.1
	C284.6,790.1,289.2,785.4,295,785.4z" />
        <text id="credit" transform="matrix(1 0 0 1 308.51 820.48)" class="st7 st10 st11">000</text>
        <g class="st9">
            <path class="st0" d="M143.1,766c0,0.5-0.2,0.9-0.5,1.3c-0.3,0.4-0.8,0.6-1.3,0.6c-0.4,0-1-0.2-1.5-0.5c0.4-0.4,0.6-0.7,0.6-1
		c0-0.2-0.1-0.4-0.3-0.6c-0.2-0.1-0.4-0.2-0.6-0.2c-0.8,0-1.3,0.5-1.3,1.4c0,0.6,0.3,1.2,0.9,1.8l1.8,1.6c0.6,0.8,0.9,1.7,0.9,2.8
		c0,1.2-0.6,2.3-1.8,3.2c-1.1,0.8-2.3,1.2-3.6,1.2c-1.4,0-2.6-0.3-3.6-0.9c-0.5-0.3-1-0.8-1.3-1.3c-0.3-0.6-0.5-1.1-0.5-1.7
		c0-1.2,0.5-2.1,1.4-2.7c0.5-0.3,1-0.5,1.4-0.5c0.6,0,1.3,0.3,2,0.8c-0.7,0.3-1.1,0.8-1.1,1.5c0,0.9,0.6,1.4,1.8,1.4
		c1.1,0,1.7-0.5,1.7-1.5c0-0.7-0.3-1.3-0.9-1.8l-1.7-1.5c-0.6-0.7-0.9-1.5-0.9-2.4c0-2.1,1.5-3.2,4.5-3.2
		C141.9,763.5,143.1,764.4,143.1,766z" />
            <path class="st0" d="M150.5,770.8h-2.3c-0.2-0.7-0.6-1-1.2-1c-0.6,0-1.2,0.3-1.7,0.8s-0.8,1.1-0.8,1.8c0,1,0.5,1.5,1.4,1.5
		c0.6,0,1.1-0.3,1.6-0.9h2.5c-0.4,1.1-1.1,1.9-2,2.6c-0.9,0.7-1.9,1-3,1c-1,0-1.8-0.3-2.4-0.9c-0.6-0.6-0.9-1.4-0.9-2.4
		c0-1.5,0.6-2.8,1.7-4c1.1-1.2,2.4-1.8,3.9-1.8C149.4,767.5,150.4,768.6,150.5,770.8z" />
            <path class="st0" d="M158.9,770.6c0,1.6-0.5,3-1.5,4.2c-1.1,1.2-2.4,1.8-4,1.8c-1,0-1.8-0.3-2.4-0.9c-0.6-0.6-0.9-1.4-0.9-2.4
		c0-1.5,0.6-2.8,1.7-4c1.1-1.2,2.4-1.8,3.9-1.8C157.9,767.5,158.9,768.5,158.9,770.6z M156.6,770.8c0-0.7-0.3-1.1-1-1.1
		c-0.5,0-0.9,0.2-1.3,0.6c-0.4,0.4-0.6,0.9-0.6,1.4c0,0.7,0.4,1.1,1.1,1.1c0.5,0,1-0.2,1.3-0.6C156.5,771.8,156.6,771.3,156.6,770.8
		z" />
            <path class="st0" d="M167.8,769.8c-0.4-0.2-1.1-0.3-2.1-0.3c-0.8,0-1.4,0.2-1.9,0.7c-0.6,0.5-1.4,2.5-2.4,6l0,0v0.2H158l2.7-8.8
		h1.5c0.4-0.2,0.9-0.3,1.4-0.3C164.8,767.3,166.2,768.1,167.8,769.8z" />
            <path class="st0" d="M175.2,770.7c0,0.4,0,0.9-0.1,1.6h-5.8c-0.1,0.2-0.1,0.3-0.1,0.5c0,0.3,0.2,0.6,0.5,0.8s0.6,0.3,0.9,0.3
		c0.6,0,1.1-0.3,1.6-0.9h2.5c-0.4,1.1-1.1,1.9-2,2.6c-0.9,0.7-1.9,1-3,1c-1,0-1.8-0.3-2.4-0.9c-0.6-0.6-0.9-1.4-0.9-2.4
		c0-1.5,0.6-2.8,1.7-4c1.1-1.2,2.4-1.8,3.9-1.8C174.1,767.5,175.2,768.5,175.2,770.7z M172.9,770.9c-0.1-0.7-0.5-1.1-1.2-1.1
		c-0.6,0-1.2,0.4-1.8,1.1H172.9z" />
        </g>
        <g class="st9">
            <path class="st0" d="M326.4,767.8h-3.6c-0.2-0.7-0.7-1.1-1.4-1.1c-1,0-1.9,0.6-2.7,1.7c-0.7,1-1.1,2.1-1.1,3.2
		c0,0.6,0.2,1.2,0.5,1.6c0.3,0.4,0.8,0.6,1.5,0.6c1.4,0,2.5-0.8,3.3-2.5h3.3c-1.6,4.1-4.1,6.2-7.4,6.2c-1.4,0-2.6-0.5-3.4-1.5
		c-0.8-0.9-1.1-2.1-1.1-3.6c0-1.4,0.4-2.7,1.1-4.1c0.7-1.3,1.6-2.4,2.7-3.3c1.2-1,2.5-1.5,3.8-1.5
		C324.5,763.6,326.1,765,326.4,767.8z" />
            <path class="st0" d="M335.7,769.8c-0.4-0.2-1.1-0.3-2.1-0.3c-0.8,0-1.4,0.2-1.9,0.7c-0.6,0.5-1.4,2.5-2.4,6l0,0v0.2h-3.4l2.7-8.8
		h1.5c0.4-0.2,0.9-0.3,1.4-0.3C332.6,767.3,334,768.1,335.7,769.8z" />
            <path class="st0" d="M343.1,770.7c0,0.4,0,0.9-0.1,1.6h-5.8c-0.1,0.2-0.1,0.3-0.1,0.5c0,0.3,0.2,0.6,0.5,0.8s0.6,0.3,0.9,0.3
		c0.6,0,1.1-0.3,1.6-0.9h2.5c-0.4,1.1-1.1,1.9-2,2.6c-0.9,0.7-1.9,1-3,1c-1,0-1.8-0.3-2.4-0.9c-0.6-0.6-0.9-1.4-0.9-2.4
		c0-1.5,0.6-2.8,1.7-4s2.4-1.8,3.9-1.8C342,767.5,343.1,768.5,343.1,770.7z M340.8,770.9c-0.1-0.7-0.5-1.1-1.2-1.1
		c-0.6,0-1.2,0.4-1.8,1.1H340.8z" />
            <path class="st0" d="M354.6,764.1c-1.7,3.8-3,7.9-3.8,12.3h-3.7l0.2-0.5c-0.6,0.3-1.3,0.5-1.9,0.5c-0.9,0-1.6-0.3-2.1-0.9
		c-0.5-0.6-0.7-1.3-0.7-2.3c0-1.4,0.5-2.7,1.4-3.9c1-1.3,2.2-1.9,3.5-1.9c1,0,1.8,0.3,2.2,1c0.4-1.3,0.8-2.8,1.2-4.4h3.7
		L354.6,764.1L354.6,764.1z M348.7,770.8c0-0.7-0.3-1.1-1-1.1c-0.5,0-0.9,0.2-1.3,0.6c-0.4,0.4-0.6,0.9-0.6,1.4
		c0,0.7,0.4,1.1,1.1,1.1c0.5,0,1-0.2,1.3-0.6C348.5,771.8,348.7,771.3,348.7,770.8z" />
            <path class="st0" d="M358,767.6l-2.7,8.8H352l2.7-8.8H358z M359.2,765.6c0,0.5-0.3,0.8-0.8,1.1c-0.4,0.2-0.9,0.3-1.4,0.3
		s-1-0.1-1.5-0.3c-0.6-0.3-0.8-0.7-0.8-1.1s0.3-0.9,0.9-1.1c0.5-0.2,1-0.3,1.5-0.3s1,0.1,1.4,0.3
		C358.9,764.7,359.2,765.1,359.2,765.6z" />
            <path class="st0" d="M365.6,767.5l-0.8,2.8c-0.7,0-1.4-0.1-2.1-0.1c-0.6,2-1.1,4.1-1.5,6.2h-3.7c0.6-1.6,1.3-3.6,2-6.2
		c-0.7,0-1.4,0-2,0.1l0.8-2.8c0.6,0,1.3,0.1,2,0.1c0.3-1.1,0.6-2.2,0.9-3.4h3.7c-0.5,1.1-1,2.3-1.4,3.4
		C364.2,767.5,364.9,767.5,365.6,767.5z" />
        </g>
        <g id="Layer_7" class="st12">
            <g class="st13">
                <g>
                    <path class="st14" d="M228.1,117.4l-2,6.7h-20.6c1-2.6,1.8-4.8,2.4-6.7c3.1-10.2,5.3-17.8,6.6-22.7h8.9c-3.3,7.3-5.9,15-7.6,22.8
				h2.4C220.6,117.5,224,117.4,228.1,117.4z" />
                    <path class="st14" d="M251.3,110.4c0,1.3-0.1,2.6-0.3,4h-13.9c-0.1,0.4-0.2,0.8-0.2,1.2c0,0.8,0.4,1.5,1.1,1.9
				c0.6,0.4,1.4,0.7,2.1,0.7c1.5-0.1,3-0.8,3.9-2.1h6.1c-1,2.4-2.6,4.5-4.7,6.1c-2.1,1.6-4.7,2.4-7.4,2.4c-4,0.3-7.5-2.7-7.8-6.8
				c0-0.4,0-0.7,0-1.1c0-3.6,1.5-7.1,4.1-9.6c2.4-2.7,5.8-4.3,9.4-4.3C248.8,102.7,251.3,105.3,251.3,110.4z M245.9,111
				c0-1.4-1.1-2.6-2.5-2.7c-0.1,0-0.3,0-0.4,0c-1.5,0-3,0.9-4.4,2.7H245.9z" />
                    <path class="st14" d="M275.9,102.9c-1.7,4.7-3.1,9.1-4.4,13.1c-0.4,1.5-1.3,4.2-2.6,8.2c-0.7,2.4-1.9,4.8-3.3,6.9
				c-1.5,2.1-3.9,3.4-6.4,3.4c-2.7,0-6-2-10.1-6c1.5,0.6,3.1,0.8,4.8,0.7c3.3,0,5.8-2,7.4-5.9c-1.3,0.6-2.7,1-4.2,1
				c-2,0.1-3.8-0.7-5.1-2.2c-1.2-1.5-1.8-3.5-1.7-5.4c0-3.4,1.2-6.7,3.4-9.3c2.4-3,5.2-4.5,8.5-4.5c1.7-0.1,3.4,0.5,4.7,1.7l0.3-1.5
				L275.9,102.9z M263.3,110.7c0.2-1.2-0.7-2.4-1.9-2.5c-0.2,0-0.4,0-0.6,0c-1.2,0-2.3,0.6-3.1,1.5c-0.9,0.9-1.3,2-1.4,3.3
				c-0.2,1.3,0.7,2.5,2,2.6c0.2,0,0.4,0,0.7,0c1.2,0,2.4-0.6,3.1-1.5C262.9,113.1,263.3,111.9,263.3,110.7z" />
                    <path class="st14" d="M293.4,110.2c0.1,3.7-1.2,7.2-3.6,10s-5.9,4.4-9.5,4.4c-2.1,0.1-4.1-0.7-5.6-2.1c-1.4-1.5-2.2-3.6-2.1-5.7
				c0-3.6,1.5-7.1,4.1-9.6c2.3-2.7,5.7-4.3,9.3-4.3C290.9,102.7,293.4,105.2,293.4,110.2z M287.9,110.7c0.2-1.2-0.7-2.4-1.9-2.5
				c-0.2,0-0.4,0-0.6,0c-1.2,0-2.3,0.6-3.1,1.5c-0.9,0.9-1.3,2-1.4,3.3c-0.2,1.3,0.7,2.5,2,2.6c0.2,0,0.4,0,0.7,0
				c1.2,0,2.4-0.6,3.1-1.5C287.4,113.1,287.9,111.9,287.9,110.7z" />
                    <path class="st14" d="M308.1,94.7c-4.2,9.4-7.2,19.2-9,29.4h-8.9c2.5-6.4,5.4-16.2,9-29.4H308.1z" />
                    <path class="st14" d="M328.4,102.9c-2.7,6.9-4.8,13.9-6.4,21.1h-8.1l0.4-1.2c-1.5,0.9-3.1,1.3-4.8,1.3c-2,0.1-3.8-0.7-5.1-2.2
				c-1.2-1.5-1.8-3.4-1.7-5.3c0-3.4,1.2-6.7,3.4-9.3c2.4-3,5.2-4.5,8.5-4.5c2-0.2,4,0.7,5.2,2.2l0.7-2.1H328.4z M317.3,110.7
				c0.2-1.2-0.7-2.4-1.9-2.5c-0.2,0-0.4,0-0.6,0c-1.2,0-2.4,0.6-3.1,1.5c-0.9,0.9-1.3,2-1.3,3.3c-0.2,1.3,0.7,2.5,2,2.6
				c0.2,0,0.4,0,0.7,0c1.2,0,2.4-0.6,3.1-1.5C316.9,113.1,317.3,111.9,317.3,110.7z" />
                    <path class="st14" d="M348.6,107c0,0.9-0.3,1.8-0.9,2.4c-0.6,0.7-1.4,1.1-2.3,1.1c-1-0.1-2-0.4-2.8-0.9c0.5-0.5,0.8-1.1,0.9-1.8
				c0-0.8-0.5-1.1-1.6-1.1c-1-0.1-2,0.6-2.1,1.6c0,0.2,0,0.3,0,0.5c0.2,1.1,0.8,2.1,1.8,2.7c1.1,0.9,2.2,1.9,3.1,3
				c1.2,1.5,1.8,3.4,1.7,5.3c0,2.4-1.3,4.6-3.4,5.9c-2,1.4-4.3,2.1-6.7,2.1c-2.4,0-4.7-0.6-6.7-1.7c-2.4-1.3-3.6-3.2-3.6-5.4
				c-0.1-2,1-3.8,2.8-4.7c0.8-0.5,1.8-0.8,2.7-0.8c1.4,0.1,2.8,0.5,3.9,1.4c-1,0.4-1.6,1.4-1.5,2.5c0,1.6,0.9,2.4,2.6,2.4
				c2.2,0,3.3-0.9,3.3-2.6c-0.1-1.2-0.8-2.3-1.9-2.8l-3.5-2.4c-1.2-1-1.9-2.4-1.9-3.9c0-4.6,3.1-6.9,9.2-6.8
				C346.2,102.7,348.6,104.1,348.6,107z" />
                    <path class="st15" d="M373.5,93.4c-6.4,9.5-11.6,19.8-15.3,30.7H347c1.8-4.5,2.6-9.3,2.6-14.1c0-0.7,0-1.4-0.1-2.3
				c-0.1-2.4-0.3-4.9-0.7-7.3c-0.4-2.4-1.2-4.7-2.2-6.9c-1.8-3.6-3.8-5.4-6.2-5.4s-4,0.5-4.7,1.5c2.3-4.7,5.7-7,10-7
				s7.4,2.9,9.2,8.7c1.3,4.5,1.9,9.2,1.8,14c0,2.2-0.1,4.6-0.3,7.1c3.1-6,5.6-12.3,7.4-18.8h9.7L373.5,93.4L373.5,93.4z" />
                    <path class="st15" d="M385.9,110.4c0,1-0.1,2.2-0.3,3.9h-14c-0.1,0.4-0.2,0.8-0.2,1.3c0,0.8,0.4,1.5,1.1,1.9
				c0.6,0.4,1.4,0.7,2.2,0.7c1.5-0.1,3-0.8,3.9-2.1h6.1c-1,2.4-2.6,4.5-4.7,6.1s-4.7,2.4-7.3,2.4c-2.1,0.1-4.1-0.7-5.6-2.1
				c-1.5-1.5-2.2-3.6-2.2-5.7c0-3.6,1.5-7.1,4.1-9.6c2.4-2.7,5.8-4.3,9.4-4.3C383.4,102.7,385.9,105.3,385.9,110.4z M380.5,110.9
				c0-1.4-1.1-2.6-2.5-2.7c-0.1,0-0.3,0-0.4,0c-1.5,0-3,0.9-4.4,2.7H380.5z" />
                    <path class="st15" d="M410.5,102.9c-1.7,4.7-3.1,9.1-4.4,13.1c-0.4,1.5-1.3,4.2-2.7,8.2c-0.7,2.5-1.9,4.8-3.3,6.9
				c-1.5,2.1-3.9,3.4-6.4,3.4c-2.7,0-6-2-10.1-6c1.5,0.6,3.2,0.8,4.8,0.7c3.3,0,5.8-2,7.4-5.9c-1.3,0.6-2.7,1-4.2,1
				c-2,0.1-3.8-0.7-5.1-2.2c-1.2-1.5-1.8-3.5-1.7-5.4c0-3.4,1.2-6.7,3.4-9.3c1.9-2.8,5.1-4.4,8.5-4.5c1.7-0.1,3.4,0.5,4.7,1.7
				l0.3-1.5L410.5,102.9z M397.9,110.7c0.2-1.2-0.7-2.4-1.9-2.5c-0.2,0-0.4,0-0.6,0c-1.2,0-2.4,0.6-3.1,1.5c-0.9,0.9-1.4,2-1.4,3.3
				c-0.2,1.3,0.7,2.5,2,2.6c0.2,0,0.4,0,0.7,0c1.2,0,2.4-0.6,3.1-1.5C397.5,113.1,397.9,111.9,397.9,110.7L397.9,110.7z" />
                    <path class="st15" d="M432.5,102.9c-2.7,6.9-4.8,13.9-6.4,21.1H418l0.4-1.2c-1.5,0.9-3.1,1.3-4.8,1.3c-2,0.1-3.8-0.7-5.1-2.2
				c-1.2-1.5-1.8-3.4-1.7-5.3c0-3.4,1.2-6.7,3.4-9.3c2.4-3,5.2-4.5,8.5-4.5c2-0.2,4,0.7,5.2,2.2l0.7-2.1H432.5z M421.4,110.7
				c0.2-1.2-0.7-2.4-1.9-2.5c-0.2,0-0.4,0-0.6,0c-1.2,0-2.3,0.6-3.1,1.5c-0.9,0.9-1.3,2-1.3,3.3c-0.2,1.3,0.7,2.5,2,2.6
				c0.2,0,0.4,0,0.7,0c1.2,0,2.4-0.6,3.1-1.5C421,113.1,421.4,111.9,421.4,110.7z" />
                    <path class="st15" d="M452.7,107c0,0.9-0.3,1.8-0.9,2.4c-0.6,0.7-1.4,1.1-2.3,1.1c-1-0.1-2-0.4-2.8-0.9c0.5-0.5,0.8-1.1,0.9-1.8
				c0-0.8-0.5-1.1-1.6-1.1c-1-0.1-2,0.6-2.1,1.6c0,0.2,0,0.3,0,0.5c0.1,1.1,0.8,2.1,1.7,2.7c1.1,0.9,2.2,1.9,3.1,3
				c1.2,1.5,1.8,3.4,1.7,5.3c0,2.4-1.3,4.6-3.4,5.9c-2,1.4-4.3,2.1-6.7,2.1c-2.3,0-4.6-0.6-6.7-1.7c-2.4-1.3-3.6-3.2-3.6-5.4
				c-0.1-2,1-3.8,2.8-4.7c0.8-0.5,1.8-0.8,2.7-0.8c1.4,0.1,2.8,0.5,3.9,1.4c-1,0.4-1.6,1.4-1.5,2.5c0,1.6,0.9,2.4,2.6,2.4
				c2.2,0,3.3-0.9,3.3-2.6c-0.1-1.2-0.8-2.3-1.9-2.8l-3.5-2.4c-1.2-1-1.9-2.4-1.9-3.9c0-4.6,3.1-6.9,9.2-6.8
				C450.3,102.7,452.7,104.1,452.7,107z" />
                </g>
                <g>
                    <circle class="st16" cx="481.1" cy="116.9" r="18.3" />
                    <circle class="st17" cx="481.1" cy="116.9" r="15.2" />
                    <circle class="st16" cx="481.1" cy="116.9" r="11.7" />
                    <circle class="st17" cx="481.1" cy="116.9" r="8" />
                    <circle class="st16" cx="481.1" cy="116.9" r="3.9" />
                    <g>
                        <polygon class="st16" points="460.3,103.7 457.5,101.7 456,98.2 460.3,98.2 				" />
                        <polygon class="st16" points="460.3,103.9 457.3,102.2 453.5,102.3 455.3,106.2 				" />
                        <line class="st18" x1="458.8" y1="102.4" x2="458.5" y2="99.6" />
                        <line class="st18" x1="458.5" y1="102.9" x2="455.6" y2="103.9" />
                    </g>
                    <g>
                        <polygon class="st19" points="410.6,78.4 407.7,76.7 405.8,73.4 410,73 				" />
                        <polygon class="st19" points="410.6,78.6 407.5,77.3 403.7,77.7 405.9,81.4 				" />
                        <line class="st18" x1="409" y1="77.3" x2="408.4" y2="74.5" />
                        <line class="st18" x1="408.8" y1="77.8" x2="406" y2="79.1" />
                    </g>
                    <g>
                        <polygon class="st16" points="343,64.6 339.6,64 336.7,61.7 340.5,59.7 				" />
                        <polygon class="st16" points="343.1,64.7 339.7,64.6 336.4,66.4 339.7,69 				" />
                        <line class="st18" x1="341.1" y1="64.1" x2="339.5" y2="61.7" />
                        <line class="st18" x1="341" y1="64.6" x2="338.9" y2="66.8" />
                    </g>
                    <g>
                        <polygon class="st19" points="286.2,69.7 282.9,70.3 279.4,68.9 282.3,65.9 				" />
                        <polygon class="st19" points="286.4,69.9 283.1,70.8 280.5,73.5 284.5,75 				" />
                        <line class="st18" x1="284.3" y1="69.9" x2="282" y2="68.1" />
                        <line class="st18" x1="284.4" y1="70.4" x2="283.1" y2="73.1" />
                    </g>
                    <g>
                        <polygon class="st16" points="234.9,88.7 232.1,90.5 230.3,93.8 234.5,94.2 				" />
                        <g>
                            <polygon class="st16" points="234.8,88.6 231.7,90 227.9,89.7 230,86 					" />
                            <line class="st18" x1="232.9" y1="89.3" x2="230.3" y2="88.2" />
                            <line class="st18" x1="233.2" y1="89.8" x2="232.6" y2="92.7" />
                        </g>
                    </g>
                    <path class="st20" d="M222.9,94.7l16.2-8c66.7-32.9,145.7-29.1,209,9.9l27.5,16.6" />
                    <polygon class="st19" points="475.6,109.7 472.4,114.6 480.7,116.5 			" />
                </g>
            </g>
        </g>
        <g id="Layer_7_1_">
            <g>
                <g>
                    <path class="st14" d="M227.7,115.1l-1.8,5.9h-18.4c0.9-2.3,1.6-4.2,2.1-5.9c2.8-9.1,4.7-15.8,5.9-20.2h7.9
				c-2.9,6.5-5.2,13.3-6.8,20.3h2.1C221.1,115.2,224.1,115.1,227.7,115.1z" />
                    <path class="st14" d="M248.4,108.9c0,1.2-0.1,2.4-0.2,3.5h-12.4c-0.1,0.4-0.2,0.7-0.1,1.1c0,0.7,0.4,1.3,1,1.7
				c0.6,0.4,1.2,0.6,1.9,0.6c1.4-0.1,2.6-0.7,3.5-1.8h5.4c-0.9,2.2-2.3,4-4.2,5.4s-4.2,2.2-6.6,2.2c-3.6,0.2-6.7-2.4-6.9-6
				c0-0.3,0-0.7,0-1c0-3.2,1.3-6.3,3.6-8.6c2.1-2.4,5.1-3.8,8.3-3.9C246.2,102,248.4,104.3,248.4,108.9z M243.6,109.4
				c0-1.3-1-2.4-2.2-2.4c-0.1,0-0.3,0-0.4,0c-1.3,0-2.6,0.8-3.9,2.4H243.6z" />
                    <path class="st14" d="M270.4,102.2c-1.5,4.2-2.8,8.1-3.9,11.7c-0.4,1.3-1.2,3.7-2.4,7.3c-0.7,2.2-1.7,4.2-2.9,6.1
				c-1.3,1.9-3.5,3-5.7,3c-2.4,0-5.4-1.8-9-5.4c1.4,0.5,2.8,0.7,4.2,0.6c2.9,0,5.2-1.8,6.6-5.3c-1.2,0.6-2.4,0.9-3.7,0.9
				c-1.7,0.1-3.4-0.7-4.5-2c-1-1.4-1.6-3.1-1.5-4.8c0-3,1.1-5.9,3-8.3c2.1-2.7,4.6-4,7.5-4c1.5-0.1,3.1,0.4,4.2,1.5l0.3-1.3
				L270.4,102.2z M259.1,109.1c0.1-1.1-0.6-2.1-1.7-2.2c-0.2,0-0.3,0-0.5,0c-1.1,0-2.1,0.5-2.8,1.3c-0.8,0.8-1.2,1.8-1.2,2.9
				c-0.2,1.1,0.6,2.2,1.8,2.4c0.2,0,0.4,0,0.6,0c1.1,0,2.1-0.5,2.8-1.4C258.7,111.3,259.1,110.2,259.1,109.1z" />
                    <path class="st14" d="M285.9,108.7c0.1,3.3-1.1,6.4-3.2,8.9s-5.2,3.9-8.5,3.9c-1.9,0.1-3.7-0.6-5-1.9c-1.3-1.4-1.9-3.2-1.9-5.1
				c0-3.2,1.4-6.3,3.7-8.5c2.1-2.4,5.1-3.8,8.3-3.9C283.7,102,285.9,104.3,285.9,108.7z M281,109.1c0.1-1.1-0.6-2.1-1.7-2.2
				c-0.2,0-0.3,0-0.5,0c-1.1,0-2.1,0.5-2.8,1.3c-0.8,0.8-1.2,1.8-1.2,2.9c-0.2,1.1,0.6,2.2,1.8,2.4c0.2,0,0.4,0,0.6,0
				c1.1,0,2.1-0.5,2.8-1.4C280.6,111.3,281,110.2,281,109.1z" />
                    <path class="st14" d="M299,94.8c-3.8,8.4-6.4,17.1-8,26.2h-7.9c2.2-5.7,4.9-14.4,8-26.2H299z" />
                    <path class="st14" d="M317.1,102.2c-2.4,6.1-4.3,12.4-5.7,18.8h-7.2l0.3-1.1c-1.3,0.8-2.8,1.2-4.3,1.2c-1.7,0.1-3.4-0.7-4.5-2
				c-1.1-1.4-1.6-3-1.5-4.8c0-3,1.1-5.9,3-8.3c2.1-2.7,4.6-4,7.5-4c1.8-0.2,3.5,0.6,4.7,2l0.6-1.9L317.1,102.2z M307.2,109.1
				c0.1-1.1-0.6-2.1-1.7-2.2c-0.2,0-0.3,0-0.5,0c-1.1,0-2.1,0.5-2.8,1.3c-0.8,0.8-1.2,1.8-1.2,2.9c-0.2,1.1,0.6,2.2,1.8,2.4
				c0.2,0,0.4,0,0.6,0c1.1,0,2.1-0.5,2.8-1.4C306.8,111.2,307.2,110.2,307.2,109.1z" />
                    <path class="st14" d="M335,105.9c0,0.8-0.3,1.6-0.8,2.2s-1.3,1-2.1,0.9c-0.9-0.1-1.8-0.3-2.5-0.8c0.4-0.4,0.7-1,0.8-1.6
				c0-0.7-0.5-1-1.4-1c-0.9-0.1-1.8,0.5-1.9,1.4c0,0.1,0,0.3,0,0.4c0.1,1,0.7,1.9,1.6,2.4c1,0.8,1.9,1.7,2.8,2.6
				c1,1.3,1.6,3,1.5,4.7c0,2.1-1.2,4.1-3,5.2c-1.8,1.2-3.9,1.9-6,1.9s-4.2-0.5-6-1.5c-2.2-1.2-3.2-2.8-3.2-4.8
				c-0.1-1.8,0.9-3.4,2.5-4.2c0.7-0.5,1.6-0.7,2.4-0.7c1.3,0,2.5,0.5,3.5,1.2c-0.9,0.4-1.4,1.3-1.4,2.2c0,1.4,0.8,2.1,2.3,2.1
				c1.9,0,2.9-0.8,2.9-2.4c-0.1-1.1-0.7-2-1.7-2.5l-3.1-2.1c-1.1-0.8-1.7-2.1-1.6-3.5c0-4.1,2.7-6.1,8.2-6.1
				C332.9,102,335,103.3,335,105.9z" />
                    <path class="st15" d="M357.3,93.7c-5.7,8.5-10.3,17.7-13.6,27.3h-10c1.6-4,2.3-8.3,2.3-12.6c0-0.6,0-1.3-0.1-2.1
				c-0.1-2.2-0.3-4.3-0.6-6.5c-0.4-2.1-1.1-4.2-2-6.1c-1.6-3.2-3.4-4.8-5.5-4.8s-3.6,0.4-4.2,1.3c2.1-4.2,5.1-6.3,8.9-6.3
				s6.6,2.6,8.2,7.7c1.2,4,1.7,8.2,1.6,12.4c0,2-0.1,4.1-0.3,6.3c2.8-5.3,5-11,6.6-16.8L357.3,93.7z" />
                    <path class="st15" d="M368.3,108.9c0,0.8-0.1,2-0.2,3.5h-12.4c-0.1,0.4-0.2,0.8-0.2,1.1c0,0.7,0.4,1.3,1,1.7
				c0.6,0.4,1.2,0.6,1.9,0.6c1.4-0.1,2.6-0.7,3.5-1.8h5.4c-0.9,2.2-2.3,4-4.2,5.4c-1.9,1.4-4.1,2.2-6.5,2.2c-1.9,0.1-3.7-0.6-5-1.9
				c-1.3-1.4-2-3.2-1.9-5.1c0-3.2,1.4-6.3,3.7-8.6c2.1-2.4,5.1-3.8,8.3-3.9C366.1,102,368.3,104.3,368.3,108.9z M363.5,109.3
				c0-1.3-1-2.4-2.3-2.4c-0.1,0-0.2,0-0.4,0c-1.3,0-2.6,0.8-3.9,2.4H363.5z" />
                    <path class="st15" d="M390.3,102.2c-1.5,4.2-2.8,8.1-3.9,11.7c-0.4,1.3-1.2,3.7-2.4,7.3c-0.7,2.2-1.6,4.3-2.9,6.1
				c-1.3,1.9-3.4,3-5.7,3c-2.4,0-5.4-1.8-9-5.4c1.4,0.5,2.8,0.7,4.3,0.6c2.9,0,5.1-1.8,6.6-5.3c-1.2,0.6-2.4,0.9-3.7,0.9
				c-1.7,0.1-3.4-0.7-4.5-2c-1.1-1.4-1.6-3.1-1.5-4.8c0-3,1.1-5.9,3-8.3c1.7-2.5,4.5-4,7.5-4c1.5-0.1,3.1,0.4,4.2,1.5l0.2-1.3
				L390.3,102.2z M379,109.1c0.1-1.1-0.6-2.1-1.7-2.2c-0.2,0-0.3,0-0.5,0c-1.1,0-2.1,0.5-2.8,1.3c-0.8,0.8-1.2,1.8-1.2,2.9
				c-0.2,1.1,0.6,2.2,1.8,2.4c0.2,0,0.4,0,0.6,0c1.1,0,2.1-0.5,2.8-1.4C378.7,111.3,379,110.2,379,109.1L379,109.1z" />
                    <path class="st15" d="M409.8,102.2c-2.4,6.1-4.3,12.4-5.7,18.8h-7.2l0.3-1.1c-1.3,0.8-2.8,1.2-4.3,1.2c-1.7,0.1-3.4-0.7-4.5-2
				c-1.1-1.4-1.6-3-1.5-4.8c0-3,1.1-5.9,3-8.3c2.1-2.7,4.6-4,7.5-4c1.8-0.2,3.5,0.6,4.7,2l0.6-1.9L409.8,102.2z M400,109.1
				c0.1-1.1-0.6-2.1-1.7-2.2c-0.2,0-0.3,0-0.5,0c-1.1,0-2.1,0.5-2.8,1.3c-0.8,0.8-1.2,1.8-1.2,2.9c-0.2,1.1,0.6,2.2,1.8,2.4
				c0.2,0,0.4,0,0.6,0c1.1,0,2.1-0.5,2.8-1.4C399.6,111.2,400,110.2,400,109.1z" />
                    <path class="st15" d="M427.8,105.9c0,0.8-0.3,1.6-0.8,2.2s-1.3,1-2.1,0.9c-0.9,0-1.8-0.3-2.5-0.8c0.4-0.4,0.7-1,0.8-1.6
				c0-0.7-0.5-1-1.4-1c-0.9-0.1-1.8,0.5-1.9,1.4c0,0.1,0,0.3,0,0.4c0.1,1,0.7,1.9,1.5,2.4c1,0.8,1.9,1.7,2.8,2.6
				c1,1.3,1.6,3,1.5,4.7c0,2.2-1.2,4.1-3,5.2c-1.8,1.2-3.9,1.9-6,1.9s-4.1-0.5-6-1.5c-2.2-1.2-3.2-2.8-3.2-4.8
				c-0.1-1.8,0.9-3.4,2.5-4.2c0.7-0.5,1.6-0.7,2.4-0.7c1.3,0.1,2.5,0.5,3.5,1.2c-0.9,0.4-1.4,1.3-1.4,2.2c0,1.4,0.8,2.1,2.3,2.1
				c1.9,0,2.9-0.8,2.9-2.4c-0.1-1.1-0.7-2-1.7-2.5l-3.1-2.1c-1.1-0.8-1.7-2.1-1.6-3.5c0-4.1,2.7-6.1,8.2-6.1
				C425.7,102,427.8,103.3,427.8,105.9z" />
                </g>
                <g>
                    <circle class="st16" cx="453.1" cy="114.6" r="16.3" />
                    <circle class="st17" cx="453.1" cy="114.6" r="13.5" />
                    <circle class="st16" cx="453.1" cy="114.6" r="10.4" />
                    <circle class="st17" cx="453.1" cy="114.6" r="7.1" />
                    <circle class="st16" cx="453.1" cy="114.6" r="3.5" />
                    <g>
                        <polygon class="st16" points="434.6,102.9 432.1,101.1 430.8,98 434.6,98 				" />
                        <polygon class="st16" points="434.6,103.1 431.9,101.6 428.6,101.6 430.1,105.1 				" />
                        <line class="st18" x1="433.2" y1="101.8" x2="432.9" y2="99.2" />
                        <line class="st18" x1="433" y1="102.1" x2="430.4" y2="103" />
                    </g>
                    <g>
                        <polygon class="st19" points="390.3,80.4 387.7,78.8 386,75.9 389.8,75.5 				" />
                        <polygon class="st19" points="390.3,80.5 387.5,79.4 384.2,79.8 386.1,83 				" />
                        <line class="st18" x1="388.9" y1="79.4" x2="388.3" y2="76.9" />
                        <line class="st18" x1="388.7" y1="79.8" x2="386.2" y2="80.9" />
                    </g>
                    <g>
                        <polygon class="st16" points="330.1,68 327.1,67.6 324.5,65.5 327.8,63.7 				" />
                        <polygon class="st16" points="330.1,68.2 327.1,68.1 324.2,69.7 327.2,72 				" />
                        <line class="st18" x1="328.4" y1="67.6" x2="327" y2="65.5" />
                        <line class="st18" x1="328.3" y1="68.1" x2="326.5" y2="70.1" />
                    </g>
                    <g>
                        <polygon class="st19" points="279.5,72.6 276.5,73.1 273.4,71.9 276,69.2 				" />
                        <polygon class="st19" points="279.6,72.8 276.8,73.6 274.4,76 278,77.3 				" />
                        <line class="st18" x1="277.8" y1="72.8" x2="275.8" y2="71.2" />
                        <line class="st18" x1="277.9" y1="73.2" x2="276.7" y2="75.7" />
                    </g>
                    <g>
                        <polygon class="st16" points="233.8,89.6 231.3,91.1 229.6,94.1 233.4,94.4 				" />
                        <g>
                            <polygon class="st16" points="233.7,89.5 230.9,90.7 227.6,90.4 229.5,87.1 					" />
                            <line class="st18" x1="232" y1="90.1" x2="229.7" y2="89.1" />
                            <line class="st18" x1="232.3" y1="90.5" x2="231.8" y2="93.1" />
                        </g>
                    </g>
                    <path class="st20" d="M223.1,94.8l14.4-7.1c59.5-29.3,129.8-25.9,186.2,8.8l24.5,14.8" />
                    <polygon class="st19" points="448.2,108.2 445.4,112.6 452.8,114.3 			" />
                </g>
            </g>
        </g>

        <image style="overflow:visible;enable-background:new    ;" width="707" height="1743" id="image1" xlink:href="A933C438FB5808D4.png" transform="matrix(0.1946 0 0 0.1945 87.016 261.3)">
        </image>
        <image style="overflow:visible;enable-background:new    ;" width="710" height="1738" id="image2" xlink:href="A933C438FB5808DA.png" transform="matrix(0.1965 0 0 0.1951 267.3 261.3)">
        </image>
        <image style="overflow:visible;enable-background:new    ;" width="712" height="1743" id="image3" xlink:href="A933C438FB5808DD.png" transform="matrix(0.1904 0 0 0.1945 447.6 261.3)">
        </image>

        <g class="pos group" id="group1">
            <image style="overflow:visible;enable-background:new    ;" width="1216" height="1216" id="pos1" xlink:href="A933C438FB5808C0.png" transform="matrix(8.691036e-02 0 0 8.691036e-02 102.9585 267.2754)">
            </image>
            <image style="overflow:visible;enable-background:new    ;" width="1216" height="1216" id="pos2" xlink:href="A933C438FB5808FB.png" transform="matrix(8.691036e-02 0 0 8.691036e-02 102.9585 377.9585)">
            </image>
            <image style="overflow:visible;enable-background:new    ;" width="1216" height="1204" id="pos3" xlink:href="A933C438FB5808FC.png" transform="matrix(8.734024e-02 0 0 8.734024e-02 102.6971 488.9043)">
            </image>
        </g>




        <g class="pos group" id="group2">
            <image style="overflow:visible;enable-background:new    ;" width="1204" height="1216" id="pos4" xlink:href="A933C438FB5808FD.png" transform="matrix(8.734024e-02 0 0 8.734024e-02 284.4712 267.014)">
            </image>
            <image style="overflow:visible;enable-background:new    ;" width="1204" height="1216" id="pos5" xlink:href="A933C438FB5808FE.png" transform="matrix(8.734024e-02 0 0 8.734024e-02 284.4712 377.6971)">
            </image>
            <image style="overflow:visible;enable-background:new    ;" width="1204" height="1204" id="pos6" xlink:href="A933C438FB5808FF.png" transform="matrix(8.777657e-02 0 0 8.777657e-02 284.2085 488.6416)">
            </image>
        </g>

        <g class="pos group" id="group3">
            <image style="overflow:visible;enable-background:new    ;" width="1216" height="1216" id="pos7" xlink:href="747B5C3C53B94753.png" transform="matrix(8.691036e-02 0 0 8.691036e-02 462.5585 267.2754)">
            </image>
            <image style="overflow:visible;enable-background:new    ;" width="1216" height="1216" id="pos8" xlink:href="747B5C3C53B94750.png" transform="matrix(8.691036e-02 0 0 8.691036e-02 462.5585 377.9585)">
            </image>
            <image style="overflow:visible;enable-background:new    ;" width="1216" height="1204" id="pos9" xlink:href="747B5C3C53B94751.png" transform="matrix(8.734024e-02 0 0 8.734024e-02 462.2971 488.9043)">
            </image>
        </g>


</svg>
